solid OpenSCAD_Model
  facet normal -0.923875 0 -0.382694
    outer loop
      vertex -3.04142 -1.18 4.40858
      vertex -3.1 1.18 4.55
      vertex -3.04142 1.18 4.40858
    endloop
  endfacet
  facet normal -0.923875 -0 -0.382694
    outer loop
      vertex -3.1 1.18 4.55
      vertex -3.04142 -1.18 4.40858
      vertex -3.1 -1.18 4.55
    endloop
  endfacet
  facet normal 0 -0.382694 -0.923875
    outer loop
      vertex -2.9 -1.32142 4.40858
      vertex -2.65 -1.18 4.35
      vertex -2.59142 -1.32142 4.40858
    endloop
  endfacet
  facet normal -0 -0.382694 -0.923875
    outer loop
      vertex -2.65 -1.18 4.35
      vertex -2.9 -1.32142 4.40858
      vertex -2.9 -1.18 4.35
    endloop
  endfacet
  facet normal -0.357415 0.357415 -0.862849
    outer loop
      vertex -2.9 1.18 4.35
      vertex -3.04142 1.18 4.40858
      vertex -2.9 1.32142 4.40858
    endloop
  endfacet
  facet normal 0 0.382694 -0.923875
    outer loop
      vertex -2.9 1.32142 4.40858
      vertex -2.65 1.18 4.35
      vertex -2.9 1.18 4.35
    endloop
  endfacet
  facet normal 0 0.382694 -0.923875
    outer loop
      vertex -2.65 1.18 4.35
      vertex -2.9 1.32142 4.40858
      vertex -2.59142 1.32142 4.40858
    endloop
  endfacet
  facet normal 0 0.923875 0.382694
    outer loop
      vertex -2.45 1.38 5.6
      vertex -2.51649 1.32142 5.74142
      vertex -2.45 1.32142 5.74142
    endloop
  endfacet
  facet normal 0 0.923875 0.382694
    outer loop
      vertex -2.45 1.38 5.6
      vertex -2.65791 1.38 5.6
      vertex -2.51649 1.32142 5.74142
    endloop
  endfacet
  facet normal -0.923875 -0.382694 0
    outer loop
      vertex -3.04142 -1.32142 4.55
      vertex -3.1 -1.18 5.15791
      vertex -3.1 -1.18 4.55
    endloop
  endfacet
  facet normal -0.923875 -0.382694 0
    outer loop
      vertex -3.1 -1.18 5.15791
      vertex -3.04142 -1.32142 4.55
      vertex -3.04142 -1.32142 5.21649
    endloop
  endfacet
  facet normal 0 0.923875 -0.382694
    outer loop
      vertex -2.59142 1.32142 4.40858
      vertex -2.9 1.38 4.55
      vertex -2.45 1.38 4.55
    endloop
  endfacet
  facet normal 0 0.923875 -0.382694
    outer loop
      vertex -2.9 1.38 4.55
      vertex -2.59142 1.32142 4.40858
      vertex -2.9 1.32142 4.40858
    endloop
  endfacet
  facet normal 0 1 0
    outer loop
      vertex -2.45 1.38 5.6
      vertex -2.9 1.38 5.35791
      vertex -2.65791 1.38 5.6
    endloop
  endfacet
  facet normal 0 1 0
    outer loop
      vertex -2.45 1.38 4.55
      vertex -2.45 1.38 5.6
      vertex -1.95 1.38 5.6
    endloop
  endfacet
  facet normal 0 1 0
    outer loop
      vertex -2.45 1.38 5.6
      vertex -2.45 1.38 4.55
      vertex -2.9 1.38 5.35791
    endloop
  endfacet
  facet normal 0 1 -0
    outer loop
      vertex -1.95 1.38 2.09459
      vertex -2.45 1.38 4.55
      vertex -1.95 1.38 5.6
    endloop
  endfacet
  facet normal 0 1 0
    outer loop
      vertex -2.45 1.38 4.55
      vertex -1.95 1.38 2.09459
      vertex -2.45 1.38 2.185
    endloop
  endfacet
  facet normal 0 1 0
    outer loop
      vertex -1.95 1.38 2.07416
      vertex -1.95 1.38 2.09459
      vertex -1.94217 1.38 2.09094
    endloop
  endfacet
  facet normal 0 1 0
    outer loop
      vertex -1.95 1.38 2.09459
      vertex -1.95 1.38 2.07416
      vertex -2.45 1.38 2.185
    endloop
  endfacet
  facet normal 0 1 -0
    outer loop
      vertex -1.95 1.38 1.1
      vertex -2.45 1.38 2.185
      vertex -1.95 1.38 2.07416
    endloop
  endfacet
  facet normal 0 1 0
    outer loop
      vertex -2.45 1.38 2.185
      vertex -1.95 1.38 1.1
      vertex -2.95595 1.38 1.1
    endloop
  endfacet
  facet normal 0 1 0
    outer loop
      vertex -2.9 1.38 5.35791
      vertex -2.45 1.38 4.55
      vertex -2.9 1.38 4.55
    endloop
  endfacet
  facet normal -0.357415 -0.862849 -0.357415
    outer loop
      vertex -2.9 -1.38 4.55
      vertex -3.04142 -1.32142 4.55
      vertex -2.9 -1.32142 4.40858
    endloop
  endfacet
  facet normal -0.57735 0.57735 -0.57735
    outer loop
      vertex -2.9 1.32142 4.40858
      vertex -3.04142 1.18 4.40858
      vertex -3.04142 1.32142 4.55
    endloop
  endfacet
  facet normal -1 0 0
    outer loop
      vertex -3.1 -1.18 4.55
      vertex -3.1 1.18 5.15791
      vertex -3.1 1.18 4.55
    endloop
  endfacet
  facet normal -1 -0 0
    outer loop
      vertex -3.1 1.18 5.15791
      vertex -3.1 -1.18 4.55
      vertex -3.1 -1.18 5.15791
    endloop
  endfacet
  facet normal 0 -0.382694 0.923875
    outer loop
      vertex -2.45 -1.18 5.8
      vertex -2.45791 -1.18 5.8
      vertex -2.45 -1.32142 5.74142
    endloop
  endfacet
  facet normal 0 -0.382694 0.923875
    outer loop
      vertex -2.51649 -1.32142 5.74142
      vertex -2.45 -1.32142 5.74142
      vertex -2.45791 -1.18 5.8
    endloop
  endfacet
  facet normal 0 -0.923875 0.382694
    outer loop
      vertex -2.51649 -1.32142 5.74142
      vertex -2.45 -1.38 5.6
      vertex -2.45 -1.32142 5.74142
    endloop
  endfacet
  facet normal 0 -0.923875 0.382694
    outer loop
      vertex -2.65791 -1.38 5.6
      vertex -2.45 -1.38 5.6
      vertex -2.51649 -1.32142 5.74142
    endloop
  endfacet
  facet normal 0 0.382694 0.923875
    outer loop
      vertex -2.45 1.32142 5.74142
      vertex -2.45791 1.18 5.8
      vertex -2.45 1.18 5.8
    endloop
  endfacet
  facet normal 0 0.382694 0.923875
    outer loop
      vertex -2.45 1.32142 5.74142
      vertex -2.51649 1.32142 5.74142
      vertex -2.45791 1.18 5.8
    endloop
  endfacet
  facet normal -0 0 1
    outer loop
      vertex -2.45791 1.18 5.8
      vertex -2.45 -1.18 5.8
      vertex -2.45 1.18 5.8
    endloop
  endfacet
  facet normal 0 0 1
    outer loop
      vertex -2.45 -1.18 5.8
      vertex -2.45791 1.18 5.8
      vertex -2.45791 -1.18 5.8
    endloop
  endfacet
  facet normal -0.862849 0.357415 -0.357415
    outer loop
      vertex -3.04142 1.18 4.40858
      vertex -3.1 1.18 4.55
      vertex -3.04142 1.32142 4.55
    endloop
  endfacet
  facet normal 0 -1 -0
    outer loop
      vertex -2.65791 -1.38 5.6
      vertex -2.9 -1.38 5.35791
      vertex -2.45 -1.38 5.6
    endloop
  endfacet
  facet normal 0 -1 0
    outer loop
      vertex -2.45 -1.38 4.55
      vertex -2.45 -1.38 5.6
      vertex -2.9 -1.38 5.35791
    endloop
  endfacet
  facet normal 0 -1 0
    outer loop
      vertex -2.45 -1.38 4.55
      vertex -2.9 -1.38 5.35791
      vertex -2.9 -1.38 4.55
    endloop
  endfacet
  facet normal 0 -1 0
    outer loop
      vertex -2.45 -1.38 5.6
      vertex -2.45 -1.38 4.55
      vertex -1.95 -1.38 5.6
    endloop
  endfacet
  facet normal 0 -1 0
    outer loop
      vertex -1.95 -1.38 2.09459
      vertex -2.45 -1.38 4.55
      vertex -2.45 -1.38 2.185
    endloop
  endfacet
  facet normal 0 -1 0
    outer loop
      vertex -2.45 -1.38 4.55
      vertex -1.95 -1.38 2.09459
      vertex -1.95 -1.38 5.6
    endloop
  endfacet
  facet normal 0 -1 0
    outer loop
      vertex -1.95 -1.38 2.07416
      vertex -1.95 -1.38 2.09459
      vertex -2.45 -1.38 2.185
    endloop
  endfacet
  facet normal 0 -1 0
    outer loop
      vertex -1.95 -1.38 2.09459
      vertex -1.95 -1.38 2.07416
      vertex -1.94217 -1.38 2.09094
    endloop
  endfacet
  facet normal 0 -1 0
    outer loop
      vertex -1.95 -1.38 1.1
      vertex -2.45 -1.38 2.185
      vertex -2.95595 -1.38 1.1
    endloop
  endfacet
  facet normal 0 -1 0
    outer loop
      vertex -2.45 -1.38 2.185
      vertex -1.95 -1.38 1.1
      vertex -1.95 -1.38 2.07416
    endloop
  endfacet
  facet normal -0.382694 0.923875 0
    outer loop
      vertex -2.9 1.38 4.55
      vertex -3.04142 1.32142 5.21649
      vertex -2.9 1.38 5.35791
    endloop
  endfacet
  facet normal -0.382694 0.923875 0
    outer loop
      vertex -3.04142 1.32142 5.21649
      vertex -2.9 1.38 4.55
      vertex -3.04142 1.32142 4.55
    endloop
  endfacet
  facet normal -0.57735 -0.57735 -0.57735
    outer loop
      vertex -2.9 -1.32142 4.40858
      vertex -3.04142 -1.32142 4.55
      vertex -3.04142 -1.18 4.40858
    endloop
  endfacet
  facet normal -0.923875 0.382694 0
    outer loop
      vertex -3.1 1.18 5.15791
      vertex -3.04142 1.32142 4.55
      vertex -3.1 1.18 4.55
    endloop
  endfacet
  facet normal -0.923875 0.382694 0
    outer loop
      vertex -3.04142 1.32142 4.55
      vertex -3.1 1.18 5.15791
      vertex -3.04142 1.32142 5.21649
    endloop
  endfacet
  facet normal -0.357415 0.862849 -0.357415
    outer loop
      vertex -2.9 1.32142 4.40858
      vertex -3.04142 1.32142 4.55
      vertex -2.9 1.38 4.55
    endloop
  endfacet
  facet normal -0 -0.923875 -0.382694
    outer loop
      vertex -2.59142 -1.32142 4.40858
      vertex -2.9 -1.38 4.55
      vertex -2.9 -1.32142 4.40858
    endloop
  endfacet
  facet normal 0 -0.923875 -0.382694
    outer loop
      vertex -2.9 -1.38 4.55
      vertex -2.59142 -1.32142 4.40858
      vertex -2.45 -1.38 4.55
    endloop
  endfacet
  facet normal -0.862849 -0.357415 -0.357415
    outer loop
      vertex -3.04142 -1.32142 4.55
      vertex -3.1 -1.18 4.55
      vertex -3.04142 -1.18 4.40858
    endloop
  endfacet
  facet normal -0.382694 0 -0.923875
    outer loop
      vertex -3.04142 -1.18 4.40858
      vertex -2.9 1.18 4.35
      vertex -2.9 -1.18 4.35
    endloop
  endfacet
  facet normal -0.382694 0 -0.923875
    outer loop
      vertex -2.9 1.18 4.35
      vertex -3.04142 -1.18 4.40858
      vertex -3.04142 1.18 4.40858
    endloop
  endfacet
  facet normal -0.357415 -0.357415 -0.862849
    outer loop
      vertex -2.9 -1.32142 4.40858
      vertex -3.04142 -1.18 4.40858
      vertex -2.9 -1.18 4.35
    endloop
  endfacet
  facet normal 0 0 -1
    outer loop
      vertex -2.9 -1.18 4.35
      vertex -2.65 1.18 4.35
      vertex -2.65 -1.18 4.35
    endloop
  endfacet
  facet normal -0 0 -1
    outer loop
      vertex -2.65 1.18 4.35
      vertex -2.9 -1.18 4.35
      vertex -2.9 1.18 4.35
    endloop
  endfacet
  facet normal -0.382694 -0.923875 0
    outer loop
      vertex -2.9 -1.38 4.55
      vertex -3.04142 -1.32142 5.21649
      vertex -3.04142 -1.32142 4.55
    endloop
  endfacet
  facet normal -0.382694 -0.923875 0
    outer loop
      vertex -3.04142 -1.32142 5.21649
      vertex -2.9 -1.38 4.55
      vertex -2.9 -1.38 5.35791
    endloop
  endfacet
  facet normal -0.707107 0 0.707107
    outer loop
      vertex -3.1 1.18 5.15791
      vertex -2.9 1.38 5.35791
      vertex -3.04142 1.32142 5.21649
    endloop
  endfacet
  facet normal -0.707107 1.72273e-15 0.707107
    outer loop
      vertex -2.9 1.38 5.35791
      vertex -2.64441 1.18 5.6135
      vertex -2.65791 1.38 5.6
    endloop
  endfacet
  facet normal -0.707122 -7.25088e-05 0.707092
    outer loop
      vertex -2.65791 1.38 5.6
      vertex -2.59142 1.25494 5.66648
      vertex -2.51649 1.32142 5.74142
    endloop
  endfacet
  facet normal -0.707107 0 0.707107
    outer loop
      vertex -2.9 1.38 5.35791
      vertex -3.1 1.18 5.15791
      vertex -2.64441 1.18 5.6135
    endloop
  endfacet
  facet normal -0.707046 8.2231e-06 0.707168
    outer loop
      vertex -2.65791 1.38 5.6
      vertex -2.64441 1.18 5.6135
      vertex -2.59142 1.25494 5.66648
    endloop
  endfacet
  facet normal -0.707107 0 0.707107
    outer loop
      vertex -3.1 -1.18 5.15791
      vertex -2.64441 1.18 5.6135
      vertex -3.1 1.18 5.15791
    endloop
  endfacet
  facet normal -0.707107 0 0.707107
    outer loop
      vertex -3.1 -1.18 5.15791
      vertex -2.64441 -1.18 5.6135
      vertex -2.64441 1.18 5.6135
    endloop
  endfacet
  facet normal -0.707107 0 0.707107
    outer loop
      vertex -2.9 -1.38 5.35791
      vertex -2.64441 -1.18 5.6135
      vertex -3.1 -1.18 5.15791
    endloop
  endfacet
  facet normal -0.707107 0 0.707107
    outer loop
      vertex -2.9 -1.38 5.35791
      vertex -3.1 -1.18 5.15791
      vertex -3.04142 -1.32142 5.21649
    endloop
  endfacet
  facet normal -0.707154 0 0.70706
    outer loop
      vertex -2.51649 1.25494 5.74142
      vertex -2.51649 1.32142 5.74142
      vertex -2.59142 1.25494 5.66648
    endloop
  endfacet
  facet normal -0.707107 0 0.707107
    outer loop
      vertex -2.45791 1.18 5.8
      vertex -2.51649 1.25494 5.74142
      vertex -2.4635 1.18 5.79441
    endloop
  endfacet
  facet normal -0.707107 0 0.707107
    outer loop
      vertex -2.51649 1.25494 5.74142
      vertex -2.45791 1.18 5.8
      vertex -2.51649 1.32142 5.74142
    endloop
  endfacet
  facet normal -0.707107 0 0.707107
    outer loop
      vertex -2.4635 -1.18 5.79441
      vertex -2.45791 1.18 5.8
      vertex -2.4635 1.18 5.79441
    endloop
  endfacet
  facet normal -0.707107 0 0.707107
    outer loop
      vertex -2.4635 -1.18 5.79441
      vertex -2.45791 -1.18 5.8
      vertex -2.45791 1.18 5.8
    endloop
  endfacet
  facet normal -0.707107 0 0.707107
    outer loop
      vertex -2.51649 -1.25494 5.74142
      vertex -2.45791 -1.18 5.8
      vertex -2.4635 -1.18 5.79441
    endloop
  endfacet
  facet normal -0.707107 -1.65939e-15 0.707107
    outer loop
      vertex -2.65791 -1.38 5.6
      vertex -2.64441 -1.18 5.6135
      vertex -2.9 -1.38 5.35791
    endloop
  endfacet
  facet normal -0.707107 0 0.707107
    outer loop
      vertex -2.51649 -1.25494 5.74142
      vertex -2.51649 -1.32142 5.74142
      vertex -2.45791 -1.18 5.8
    endloop
  endfacet
  facet normal -0.707046 -8.2231e-06 0.707168
    outer loop
      vertex -2.64441 -1.18 5.6135
      vertex -2.65791 -1.38 5.6
      vertex -2.59142 -1.25494 5.66648
    endloop
  endfacet
  facet normal -0.707122 7.25088e-05 0.707092
    outer loop
      vertex -2.51649 -1.32142 5.74142
      vertex -2.59142 -1.25494 5.66648
      vertex -2.65791 -1.38 5.6
    endloop
  endfacet
  facet normal -0.707154 0 0.70706
    outer loop
      vertex -2.59142 -1.25494 5.66648
      vertex -2.51649 -1.32142 5.74142
      vertex -2.51649 -1.25494 5.74142
    endloop
  endfacet
  facet normal 0.923875 0.382694 0
    outer loop
      vertex -1.75 1.18 5.6
      vertex -1.80858 1.32142 1.1
      vertex -1.80858 1.32142 5.6
    endloop
  endfacet
  facet normal 0.923875 0.382694 0
    outer loop
      vertex -1.80858 1.32142 1.1
      vertex -1.75 1.18 5.6
      vertex -1.75 1.18 1.1
    endloop
  endfacet
  facet normal 0.38269 -0.923877 0
    outer loop
      vertex -1.95 -1.38 2.07416
      vertex -1.95 -1.38 1.1
      vertex -1.86647 -1.3454 2.05564
    endloop
  endfacet
  facet normal 0.382694 -0.923875 -1.90823e-06
    outer loop
      vertex -1.95 -1.38 5.6
      vertex -1.93645 -1.37438 2.10323
      vertex -1.80858 -1.32142 5.6
    endloop
  endfacet
  facet normal 0.383114 -0.923701 0
    outer loop
      vertex -1.93645 -1.37438 2.10323
      vertex -1.95 -1.38 5.6
      vertex -1.95 -1.38 2.09459
    endloop
  endfacet
  facet normal 0.382609 -0.92391 1.72485e-06
    outer loop
      vertex -1.86647 -1.3454 2.05564
      vertex -1.80858 -1.32142 5.6
      vertex -1.93645 -1.37438 2.10323
    endloop
  endfacet
  facet normal 0.382699 -0.923873 0
    outer loop
      vertex -1.86647 -1.3454 2.05564
      vertex -1.80858 -1.32142 1.1
      vertex -1.80858 -1.32142 5.6
    endloop
  endfacet
  facet normal 0.382694 -0.923875 -3.7872e-07
    outer loop
      vertex -1.80858 -1.32142 1.1
      vertex -1.86647 -1.3454 2.05564
      vertex -1.95 -1.38 1.1
    endloop
  endfacet
  facet normal 0.357415 -0.862849 0.357415
    outer loop
      vertex -1.95 -1.32142 5.74142
      vertex -1.95 -1.38 5.6
      vertex -1.80858 -1.32142 5.6
    endloop
  endfacet
  facet normal 0.923875 -0 0.382694
    outer loop
      vertex -1.80858 -1.18 5.74142
      vertex -1.75 1.18 5.6
      vertex -1.80858 1.18 5.74142
    endloop
  endfacet
  facet normal 0.923875 0 0.382694
    outer loop
      vertex -1.75 1.18 5.6
      vertex -1.80858 -1.18 5.74142
      vertex -1.75 -1.18 5.6
    endloop
  endfacet
  facet normal -0.382663 -0.923888 0
    outer loop
      vertex -2.46032 -1.37572 2.18729
      vertex -2.59142 -1.32142 4.40858
      vertex -2.59142 -1.32142 2.21636
    endloop
  endfacet
  facet normal -0.383095 -0.923709 -2.98873e-05
    outer loop
      vertex -2.45 -1.38 2.185
      vertex -2.59142 -1.32142 4.40858
      vertex -2.46032 -1.37572 2.18729
    endloop
  endfacet
  facet normal -0.382694 -0.923875 0
    outer loop
      vertex -2.59142 -1.32142 4.40858
      vertex -2.45 -1.38 2.185
      vertex -2.45 -1.38 4.55
    endloop
  endfacet
  facet normal 0.57735 0.57735 0.57735
    outer loop
      vertex -1.80858 1.32142 5.6
      vertex -1.95 1.32142 5.74142
      vertex -1.80858 1.18 5.74142
    endloop
  endfacet
  facet normal 0.357415 -0.357415 0.862849
    outer loop
      vertex -1.95 -1.18 5.8
      vertex -1.95 -1.32142 5.74142
      vertex -1.80858 -1.18 5.74142
    endloop
  endfacet
  facet normal 1 -0 0
    outer loop
      vertex -1.75 -1.18 5.6
      vertex -1.75 1.18 1.1
      vertex -1.75 1.18 5.6
    endloop
  endfacet
  facet normal 1 0 0
    outer loop
      vertex -1.75 1.18 1.1
      vertex -1.75 -1.18 5.6
      vertex -1.75 -1.18 1.1
    endloop
  endfacet
  facet normal -1 0 0
    outer loop
      vertex -2.65 -1.18 2.22934
      vertex -2.65 1.18 4.35
      vertex -2.65 1.18 2.22934
    endloop
  endfacet
  facet normal -1 -0 0
    outer loop
      vertex -2.65 1.18 4.35
      vertex -2.65 -1.18 2.22934
      vertex -2.65 -1.18 4.35
    endloop
  endfacet
  facet normal -0.923875 -0.382694 0
    outer loop
      vertex -2.59142 -1.32142 2.21636
      vertex -2.65 -1.18 4.35
      vertex -2.65 -1.18 2.22934
    endloop
  endfacet
  facet normal -0.923875 -0.382694 0
    outer loop
      vertex -2.65 -1.18 4.35
      vertex -2.59142 -1.32142 2.21636
      vertex -2.59142 -1.32142 4.40858
    endloop
  endfacet
  facet normal -0.86284 -0.357426 0.357426
    outer loop
      vertex -2.59142 -1.18 5.74142
      vertex -2.64441 -1.18 5.6135
      vertex -2.59142 -1.25494 5.66648
    endloop
  endfacet
  facet normal 0.57735 -0.57735 0.57735
    outer loop
      vertex -1.80858 -1.18 5.74142
      vertex -1.95 -1.32142 5.74142
      vertex -1.80858 -1.32142 5.6
    endloop
  endfacet
  facet normal -0.577402 -0.577325 0.577325
    outer loop
      vertex -2.59142 -1.18 5.74142
      vertex -2.59142 -1.25494 5.66648
      vertex -2.51649 -1.25494 5.74142
    endloop
  endfacet
  facet normal 0.382694 0 0.923875
    outer loop
      vertex -1.95 1.18 5.8
      vertex -1.80858 -1.18 5.74142
      vertex -1.80858 1.18 5.74142
    endloop
  endfacet
  facet normal 0.382694 0 0.923875
    outer loop
      vertex -1.80858 -1.18 5.74142
      vertex -1.95 1.18 5.8
      vertex -1.95 -1.18 5.8
    endloop
  endfacet
  facet normal 0.923875 -0.382694 0
    outer loop
      vertex -1.80858 -1.32142 5.6
      vertex -1.75 -1.18 1.1
      vertex -1.75 -1.18 5.6
    endloop
  endfacet
  facet normal 0.923875 -0.382694 0
    outer loop
      vertex -1.75 -1.18 1.1
      vertex -1.80858 -1.32142 5.6
      vertex -1.80858 -1.32142 1.1
    endloop
  endfacet
  facet normal -0 0 1
    outer loop
      vertex -2.45 1.18 5.8
      vertex -1.95 -1.18 5.8
      vertex -1.95 1.18 5.8
    endloop
  endfacet
  facet normal 0 0 1
    outer loop
      vertex -1.95 -1.18 5.8
      vertex -2.45 1.18 5.8
      vertex -2.45 -1.18 5.8
    endloop
  endfacet
  facet normal 0.357415 0.357415 0.862849
    outer loop
      vertex -1.95 1.32142 5.74142
      vertex -1.95 1.18 5.8
      vertex -1.80858 1.18 5.74142
    endloop
  endfacet
  facet normal 0 0 -1
    outer loop
      vertex 3.335 -6.71 0
      vertex 3.835 -6.21 0
      vertex 3.68855 -6.56355 0
    endloop
  endfacet
  facet normal 0 0 -1
    outer loop
      vertex -3.835 -6.21 0
      vertex 3.835 -6.21 0
      vertex 3.335 -6.71 0
    endloop
  endfacet
  facet normal 0 0 -1
    outer loop
      vertex 3.835 -6.21 0
      vertex -3.835 -6.21 0
      vertex 3.835 6.21 0
    endloop
  endfacet
  facet normal 0 0 -1
    outer loop
      vertex 3.835 6.21 0
      vertex 3.335 6.71 0
      vertex 3.68855 6.56355 0
    endloop
  endfacet
  facet normal 0 0 -1
    outer loop
      vertex -3.835 -6.21 0
      vertex 3.335 -6.71 0
      vertex -3.335 -6.71 0
    endloop
  endfacet
  facet normal 0 0 -1
    outer loop
      vertex -3.835 6.21 0
      vertex 3.835 6.21 0
      vertex -3.835 -6.21 0
    endloop
  endfacet
  facet normal 0 0 -1
    outer loop
      vertex -3.835 -6.21 0
      vertex -3.335 -6.71 0
      vertex -3.68855 -6.56355 0
    endloop
  endfacet
  facet normal 0 0 -1
    outer loop
      vertex 3.835 6.21 0
      vertex -3.835 6.21 0
      vertex 3.335 6.71 0
    endloop
  endfacet
  facet normal -0 0 -1
    outer loop
      vertex 3.335 6.71 0
      vertex -3.835 6.21 0
      vertex -3.335 6.71 0
    endloop
  endfacet
  facet normal 0 0 -1
    outer loop
      vertex -3.335 6.71 0
      vertex -3.835 6.21 0
      vertex -3.68855 6.56355 0
    endloop
  endfacet
  facet normal -0.382694 0.923875 0
    outer loop
      vertex -2.45 1.38 2.185
      vertex -2.59142 1.32142 4.40858
      vertex -2.45 1.38 4.55
    endloop
  endfacet
  facet normal -0.382663 0.923888 0
    outer loop
      vertex -2.59142 1.32142 4.40858
      vertex -2.46032 1.37572 2.18729
      vertex -2.59142 1.32142 2.21636
    endloop
  endfacet
  facet normal -0.383095 0.923709 -2.98873e-05
    outer loop
      vertex -2.59142 1.32142 4.40858
      vertex -2.45 1.38 2.185
      vertex -2.46032 1.37572 2.18729
    endloop
  endfacet
  facet normal 0.357415 0.862849 0.357415
    outer loop
      vertex -1.95 1.38 5.6
      vertex -1.95 1.32142 5.74142
      vertex -1.80858 1.32142 5.6
    endloop
  endfacet
  facet normal 0.862849 0.357415 0.357415
    outer loop
      vertex -1.80858 1.32142 5.6
      vertex -1.80858 1.18 5.74142
      vertex -1.75 1.18 5.6
    endloop
  endfacet
  facet normal -0.382707 0 0.92387
    outer loop
      vertex -2.59142 1.18 5.74142
      vertex -2.4635 -1.18 5.79441
      vertex -2.4635 1.18 5.79441
    endloop
  endfacet
  facet normal -0.382707 0 0.92387
    outer loop
      vertex -2.4635 -1.18 5.79441
      vertex -2.59142 1.18 5.74142
      vertex -2.59142 -1.18 5.74142
    endloop
  endfacet
  facet normal 0.862849 -0.357415 0.357415
    outer loop
      vertex -1.80858 -1.18 5.74142
      vertex -1.80858 -1.32142 5.6
      vertex -1.75 -1.18 5.6
    endloop
  endfacet
  facet normal -0.577402 0.577325 0.577325
    outer loop
      vertex -2.59142 1.25494 5.66648
      vertex -2.59142 1.18 5.74142
      vertex -2.51649 1.25494 5.74142
    endloop
  endfacet
  facet normal 0 0.923875 0.382694
    outer loop
      vertex -1.95 1.38 5.6
      vertex -2.45 1.32142 5.74142
      vertex -1.95 1.32142 5.74142
    endloop
  endfacet
  facet normal 0 0.923875 0.382694
    outer loop
      vertex -2.45 1.32142 5.74142
      vertex -1.95 1.38 5.6
      vertex -2.45 1.38 5.6
    endloop
  endfacet
  facet normal -0 0.382694 0.923875
    outer loop
      vertex -2.45 1.32142 5.74142
      vertex -1.95 1.18 5.8
      vertex -1.95 1.32142 5.74142
    endloop
  endfacet
  facet normal 0 0.382694 0.923875
    outer loop
      vertex -1.95 1.18 5.8
      vertex -2.45 1.32142 5.74142
      vertex -2.45 1.18 5.8
    endloop
  endfacet
  facet normal -0.357432 0.357384 0.862855
    outer loop
      vertex -2.51649 1.25494 5.74142
      vertex -2.59142 1.18 5.74142
      vertex -2.4635 1.18 5.79441
    endloop
  endfacet
  facet normal 0 -0.382694 0.923875
    outer loop
      vertex -2.45 -1.18 5.8
      vertex -1.95 -1.32142 5.74142
      vertex -1.95 -1.18 5.8
    endloop
  endfacet
  facet normal 0 -0.382694 0.923875
    outer loop
      vertex -1.95 -1.32142 5.74142
      vertex -2.45 -1.18 5.8
      vertex -2.45 -1.32142 5.74142
    endloop
  endfacet
  facet normal -0.357432 -0.357384 0.862855
    outer loop
      vertex -2.4635 -1.18 5.79441
      vertex -2.59142 -1.18 5.74142
      vertex -2.51649 -1.25494 5.74142
    endloop
  endfacet
  facet normal -0.923875 0.382694 0
    outer loop
      vertex -2.65 1.18 4.35
      vertex -2.59142 1.32142 2.21636
      vertex -2.65 1.18 2.22934
    endloop
  endfacet
  facet normal -0.923875 0.382694 0
    outer loop
      vertex -2.59142 1.32142 2.21636
      vertex -2.65 1.18 4.35
      vertex -2.59142 1.32142 4.40858
    endloop
  endfacet
  facet normal 0.382694 0.923875 -1.90823e-06
    outer loop
      vertex -1.80858 1.32142 5.6
      vertex -1.93645 1.37438 2.10323
      vertex -1.95 1.38 5.6
    endloop
  endfacet
  facet normal 0.382609 0.92391 1.72485e-06
    outer loop
      vertex -1.80858 1.32142 5.6
      vertex -1.86647 1.3454 2.05564
      vertex -1.93645 1.37438 2.10323
    endloop
  endfacet
  facet normal 0.382699 0.923873 0
    outer loop
      vertex -1.86647 1.3454 2.05564
      vertex -1.80858 1.32142 5.6
      vertex -1.80858 1.32142 1.1
    endloop
  endfacet
  facet normal 0.383114 0.923701 0
    outer loop
      vertex -1.95 1.38 5.6
      vertex -1.93645 1.37438 2.10323
      vertex -1.95 1.38 2.09459
    endloop
  endfacet
  facet normal 0.382694 0.923875 -3.7872e-07
    outer loop
      vertex -1.95 1.38 1.1
      vertex -1.86647 1.3454 2.05564
      vertex -1.80858 1.32142 1.1
    endloop
  endfacet
  facet normal 0.38269 0.923877 0
    outer loop
      vertex -1.86647 1.3454 2.05564
      vertex -1.95 1.38 1.1
      vertex -1.95 1.38 2.07416
    endloop
  endfacet
  facet normal 0 -0.923875 0.382694
    outer loop
      vertex -2.45 -1.38 5.6
      vertex -1.95 -1.32142 5.74142
      vertex -2.45 -1.32142 5.74142
    endloop
  endfacet
  facet normal 0 -0.923875 0.382694
    outer loop
      vertex -1.95 -1.32142 5.74142
      vertex -2.45 -1.38 5.6
      vertex -1.95 -1.38 5.6
    endloop
  endfacet
  facet normal -0.86284 0.357426 0.357426
    outer loop
      vertex -2.59142 1.25494 5.66648
      vertex -2.64441 1.18 5.6135
      vertex -2.59142 1.18 5.74142
    endloop
  endfacet
  facet normal -0.92387 0 0.382707
    outer loop
      vertex -2.64441 -1.18 5.6135
      vertex -2.59142 1.18 5.74142
      vertex -2.64441 1.18 5.6135
    endloop
  endfacet
  facet normal -0.92387 0 0.382707
    outer loop
      vertex -2.59142 1.18 5.74142
      vertex -2.64441 -1.18 5.6135
      vertex -2.59142 -1.18 5.74142
    endloop
  endfacet
  facet normal -0.346803 -0.923891 0.161718
    outer loop
      vertex -3.07504 -1.33529 1.1
      vertex -2.59142 -1.32142 2.21636
      vertex -3.11199 -1.32142 1.1
    endloop
  endfacet
  facet normal -0.346805 -0.92389 0.161718
    outer loop
      vertex -2.59142 -1.32142 2.21636
      vertex -3.07504 -1.33529 1.1
      vertex -2.46032 -1.37572 2.18729
    endloop
  endfacet
  facet normal 0.161808 -0.92376 0.347111
    outer loop
      vertex -1.93645 -1.37438 2.10323
      vertex -1.95 -1.38 2.09459
      vertex -1.94217 -1.38 2.09094
    endloop
  endfacet
  facet normal -0.346805 0.92389 0.161718
    outer loop
      vertex -3.07504 1.33529 1.1
      vertex -2.59142 1.32142 2.21636
      vertex -2.46032 1.37572 2.18729
    endloop
  endfacet
  facet normal -0.346803 0.923891 0.161718
    outer loop
      vertex -2.59142 1.32142 2.21636
      vertex -3.07504 1.33529 1.1
      vertex -3.11199 1.32142 1.1
    endloop
  endfacet
  facet normal -0.906308 0 0.422618
    outer loop
      vertex -3.17662 -1.18 1.1
      vertex -2.65 1.18 2.22934
      vertex -3.17662 1.18 1.1
    endloop
  endfacet
  facet normal -0.906308 0 0.422618
    outer loop
      vertex -2.65 1.18 2.22934
      vertex -3.17662 -1.18 1.1
      vertex -2.65 -1.18 2.22934
    endloop
  endfacet
  facet normal 0.475133 0.86267 0.173348
    outer loop
      vertex -1.86647 1.3454 2.05564
      vertex -1.94217 1.38 2.09094
      vertex -1.93645 1.37438 2.10323
    endloop
  endfacet
  facet normal 0.346807 0.92387 -0.16183
    outer loop
      vertex -1.86647 1.3454 2.05564
      vertex -1.95 1.38 2.07416
      vertex -1.94217 1.38 2.09094
    endloop
  endfacet
  facet normal -0.346849 -0.92387 0.161744
    outer loop
      vertex -2.95595 -1.38 1.1
      vertex -2.46032 -1.37572 2.18729
      vertex -3.07504 -1.33529 1.1
    endloop
  endfacet
  facet normal -0.347171 -0.923723 0.16189
    outer loop
      vertex -2.46032 -1.37572 2.18729
      vertex -2.95595 -1.38 1.1
      vertex -2.45 -1.38 2.185
    endloop
  endfacet
  facet normal -0.347171 0.923723 0.16189
    outer loop
      vertex -2.95595 1.38 1.1
      vertex -2.46032 1.37572 2.18729
      vertex -2.45 1.38 2.185
    endloop
  endfacet
  facet normal -0.346849 0.92387 0.161744
    outer loop
      vertex -2.46032 1.37572 2.18729
      vertex -2.95595 1.38 1.1
      vertex -3.07504 1.33529 1.1
    endloop
  endfacet
  facet normal 0.161808 0.92376 0.347111
    outer loop
      vertex -1.94217 1.38 2.09094
      vertex -1.95 1.38 2.09459
      vertex -1.93645 1.37438 2.10323
    endloop
  endfacet
  facet normal -0.837326 0.382664 0.390453
    outer loop
      vertex -3.17662 1.18 1.1
      vertex -2.59142 1.32142 2.21636
      vertex -3.11199 1.32142 1.1
    endloop
  endfacet
  facet normal -0.837321 0.382678 0.390449
    outer loop
      vertex -2.59142 1.32142 2.21636
      vertex -3.17662 1.18 1.1
      vertex -2.65 1.18 2.22934
    endloop
  endfacet
  facet normal 0.346807 -0.92387 -0.16183
    outer loop
      vertex -1.94217 -1.38 2.09094
      vertex -1.95 -1.38 2.07416
      vertex -1.86647 -1.3454 2.05564
    endloop
  endfacet
  facet normal 0.475133 -0.86267 0.173348
    outer loop
      vertex -1.93645 -1.37438 2.10323
      vertex -1.94217 -1.38 2.09094
      vertex -1.86647 -1.3454 2.05564
    endloop
  endfacet
  facet normal -0.837326 -0.382664 0.390453
    outer loop
      vertex -2.59142 -1.32142 2.21636
      vertex -3.17662 -1.18 1.1
      vertex -3.11199 -1.32142 1.1
    endloop
  endfacet
  facet normal -0.837321 -0.382678 0.390449
    outer loop
      vertex -3.17662 -1.18 1.1
      vertex -2.59142 -1.32142 2.21636
      vertex -2.65 -1.18 2.22934
    endloop
  endfacet
  facet normal 0.923875 0 -0.382694
    outer loop
      vertex 3.1 -1.18 4.55
      vertex 3.04142 1.18 4.40858
      vertex 3.1 1.18 4.55
    endloop
  endfacet
  facet normal 0.923875 0 -0.382694
    outer loop
      vertex 3.04142 1.18 4.40858
      vertex 3.1 -1.18 4.55
      vertex 3.04142 -1.18 4.40858
    endloop
  endfacet
  facet normal 0 0.382694 -0.923875
    outer loop
      vertex 2.65 1.18 4.35
      vertex 2.9 1.32142 4.40858
      vertex 2.9 1.18 4.35
    endloop
  endfacet
  facet normal 0 0.382694 -0.923875
    outer loop
      vertex 2.9 1.32142 4.40858
      vertex 2.65 1.18 4.35
      vertex 2.59142 1.32142 4.40858
    endloop
  endfacet
  facet normal 0.357415 -0.357415 -0.862849
    outer loop
      vertex 3.04142 -1.18 4.40858
      vertex 2.9 -1.32142 4.40858
      vertex 2.9 -1.18 4.35
    endloop
  endfacet
  facet normal 0 -0.382694 -0.923875
    outer loop
      vertex 2.9 -1.32142 4.40858
      vertex 2.65 -1.18 4.35
      vertex 2.9 -1.18 4.35
    endloop
  endfacet
  facet normal 0 -0.382694 -0.923875
    outer loop
      vertex 2.65 -1.18 4.35
      vertex 2.9 -1.32142 4.40858
      vertex 2.59142 -1.32142 4.40858
    endloop
  endfacet
  facet normal 0 -0.923875 0.382694
    outer loop
      vertex 2.45 -1.38 5.6
      vertex 2.51649 -1.32142 5.74142
      vertex 2.45 -1.32142 5.74142
    endloop
  endfacet
  facet normal 0 -0.923875 0.382694
    outer loop
      vertex 2.45 -1.38 5.6
      vertex 2.65791 -1.38 5.6
      vertex 2.51649 -1.32142 5.74142
    endloop
  endfacet
  facet normal 0.923875 0.382694 0
    outer loop
      vertex 3.1 1.18 5.15791
      vertex 3.04142 1.32142 4.55
      vertex 3.04142 1.32142 5.21649
    endloop
  endfacet
  facet normal 0.923875 0.382694 0
    outer loop
      vertex 3.04142 1.32142 4.55
      vertex 3.1 1.18 5.15791
      vertex 3.1 1.18 4.55
    endloop
  endfacet
  facet normal 0 -0.923875 -0.382694
    outer loop
      vertex 2.59142 -1.32142 4.40858
      vertex 2.9 -1.38 4.55
      vertex 2.45 -1.38 4.55
    endloop
  endfacet
  facet normal 0 -0.923875 -0.382694
    outer loop
      vertex 2.9 -1.38 4.55
      vertex 2.59142 -1.32142 4.40858
      vertex 2.9 -1.32142 4.40858
    endloop
  endfacet
  facet normal 0 -1 0
    outer loop
      vertex 2.45 -1.38 5.6
      vertex 2.9 -1.38 5.35791
      vertex 2.65791 -1.38 5.6
    endloop
  endfacet
  facet normal 0 -1 0
    outer loop
      vertex 2.45 -1.38 4.55
      vertex 2.45 -1.38 5.6
      vertex 1.95 -1.38 5.6
    endloop
  endfacet
  facet normal 0 -1 0
    outer loop
      vertex 2.45 -1.38 5.6
      vertex 2.45 -1.38 4.55
      vertex 2.9 -1.38 5.35791
    endloop
  endfacet
  facet normal 0 -1 0
    outer loop
      vertex 1.95 -1.38 2.09459
      vertex 2.45 -1.38 4.55
      vertex 1.95 -1.38 5.6
    endloop
  endfacet
  facet normal 0 -1 -0
    outer loop
      vertex 2.45 -1.38 4.55
      vertex 1.95 -1.38 2.09459
      vertex 2.45 -1.38 2.185
    endloop
  endfacet
  facet normal 0 -1 0
    outer loop
      vertex 1.95 -1.38 2.07416
      vertex 1.95 -1.38 2.09459
      vertex 1.94217 -1.38 2.09094
    endloop
  endfacet
  facet normal 0 -1 0
    outer loop
      vertex 1.95 -1.38 2.09459
      vertex 1.95 -1.38 2.07416
      vertex 2.45 -1.38 2.185
    endloop
  endfacet
  facet normal 0 -1 0
    outer loop
      vertex 1.95 -1.38 1.1
      vertex 2.45 -1.38 2.185
      vertex 1.95 -1.38 2.07416
    endloop
  endfacet
  facet normal 0 -1 -0
    outer loop
      vertex 2.45 -1.38 2.185
      vertex 1.95 -1.38 1.1
      vertex 2.95595 -1.38 1.1
    endloop
  endfacet
  facet normal 0 -1 -0
    outer loop
      vertex 2.9 -1.38 5.35791
      vertex 2.45 -1.38 4.55
      vertex 2.9 -1.38 4.55
    endloop
  endfacet
  facet normal 0.357415 0.862849 -0.357415
    outer loop
      vertex 3.04142 1.32142 4.55
      vertex 2.9 1.32142 4.40858
      vertex 2.9 1.38 4.55
    endloop
  endfacet
  facet normal 0.57735 -0.57735 -0.57735
    outer loop
      vertex 3.04142 -1.32142 4.55
      vertex 2.9 -1.32142 4.40858
      vertex 3.04142 -1.18 4.40858
    endloop
  endfacet
  facet normal 1 -0 0
    outer loop
      vertex 3.1 -1.18 5.15791
      vertex 3.1 1.18 4.55
      vertex 3.1 1.18 5.15791
    endloop
  endfacet
  facet normal 1 0 0
    outer loop
      vertex 3.1 1.18 4.55
      vertex 3.1 -1.18 5.15791
      vertex 3.1 -1.18 4.55
    endloop
  endfacet
  facet normal 0 0.382694 0.923875
    outer loop
      vertex 2.51649 1.32142 5.74142
      vertex 2.45 1.32142 5.74142
      vertex 2.45791 1.18 5.8
    endloop
  endfacet
  facet normal 0 0.382694 0.923875
    outer loop
      vertex 2.45791 1.18 5.8
      vertex 2.45 1.32142 5.74142
      vertex 2.45 1.18 5.8
    endloop
  endfacet
  facet normal 0 0.923875 0.382694
    outer loop
      vertex 2.51649 1.32142 5.74142
      vertex 2.45 1.38 5.6
      vertex 2.45 1.32142 5.74142
    endloop
  endfacet
  facet normal 0 0.923875 0.382694
    outer loop
      vertex 2.65791 1.38 5.6
      vertex 2.45 1.38 5.6
      vertex 2.51649 1.32142 5.74142
    endloop
  endfacet
  facet normal 0 -0.382694 0.923875
    outer loop
      vertex 2.45 -1.32142 5.74142
      vertex 2.45791 -1.18 5.8
      vertex 2.45 -1.18 5.8
    endloop
  endfacet
  facet normal 0 -0.382694 0.923875
    outer loop
      vertex 2.45791 -1.18 5.8
      vertex 2.45 -1.32142 5.74142
      vertex 2.51649 -1.32142 5.74142
    endloop
  endfacet
  facet normal -0 0 1
    outer loop
      vertex 2.45 1.18 5.8
      vertex 2.45791 -1.18 5.8
      vertex 2.45791 1.18 5.8
    endloop
  endfacet
  facet normal 0 0 1
    outer loop
      vertex 2.45791 -1.18 5.8
      vertex 2.45 1.18 5.8
      vertex 2.45 -1.18 5.8
    endloop
  endfacet
  facet normal 0.862849 -0.357415 -0.357415
    outer loop
      vertex 3.1 -1.18 4.55
      vertex 3.04142 -1.32142 4.55
      vertex 3.04142 -1.18 4.40858
    endloop
  endfacet
  facet normal 0 1 0
    outer loop
      vertex 2.65791 1.38 5.6
      vertex 2.9 1.38 5.35791
      vertex 2.45 1.38 5.6
    endloop
  endfacet
  facet normal 0 1 0
    outer loop
      vertex 2.45 1.38 4.55
      vertex 2.45 1.38 5.6
      vertex 2.9 1.38 5.35791
    endloop
  endfacet
  facet normal 0 1 0
    outer loop
      vertex 2.45 1.38 4.55
      vertex 2.9 1.38 5.35791
      vertex 2.9 1.38 4.55
    endloop
  endfacet
  facet normal 0 1 0
    outer loop
      vertex 2.45 1.38 5.6
      vertex 2.45 1.38 4.55
      vertex 1.95 1.38 5.6
    endloop
  endfacet
  facet normal 0 1 0
    outer loop
      vertex 1.95 1.38 2.09459
      vertex 2.45 1.38 4.55
      vertex 2.45 1.38 2.185
    endloop
  endfacet
  facet normal 0 1 0
    outer loop
      vertex 2.45 1.38 4.55
      vertex 1.95 1.38 2.09459
      vertex 1.95 1.38 5.6
    endloop
  endfacet
  facet normal 0 1 0
    outer loop
      vertex 1.95 1.38 2.07416
      vertex 1.95 1.38 2.09459
      vertex 2.45 1.38 2.185
    endloop
  endfacet
  facet normal 0 1 0
    outer loop
      vertex 1.95 1.38 2.09459
      vertex 1.95 1.38 2.07416
      vertex 1.94217 1.38 2.09094
    endloop
  endfacet
  facet normal 0 1 0
    outer loop
      vertex 1.95 1.38 1.1
      vertex 2.45 1.38 2.185
      vertex 2.95595 1.38 1.1
    endloop
  endfacet
  facet normal 0 1 0
    outer loop
      vertex 2.45 1.38 2.185
      vertex 1.95 1.38 1.1
      vertex 1.95 1.38 2.07416
    endloop
  endfacet
  facet normal 0.382694 -0.923875 0
    outer loop
      vertex 2.9 -1.38 4.55
      vertex 3.04142 -1.32142 5.21649
      vertex 2.9 -1.38 5.35791
    endloop
  endfacet
  facet normal 0.382694 -0.923875 0
    outer loop
      vertex 3.04142 -1.32142 5.21649
      vertex 2.9 -1.38 4.55
      vertex 3.04142 -1.32142 4.55
    endloop
  endfacet
  facet normal 0.57735 0.57735 -0.57735
    outer loop
      vertex 3.04142 1.18 4.40858
      vertex 2.9 1.32142 4.40858
      vertex 3.04142 1.32142 4.55
    endloop
  endfacet
  facet normal 0.923875 -0.382694 0
    outer loop
      vertex 3.04142 -1.32142 4.55
      vertex 3.1 -1.18 5.15791
      vertex 3.04142 -1.32142 5.21649
    endloop
  endfacet
  facet normal 0.923875 -0.382694 0
    outer loop
      vertex 3.1 -1.18 5.15791
      vertex 3.04142 -1.32142 4.55
      vertex 3.1 -1.18 4.55
    endloop
  endfacet
  facet normal 0.357415 -0.862849 -0.357415
    outer loop
      vertex 3.04142 -1.32142 4.55
      vertex 2.9 -1.38 4.55
      vertex 2.9 -1.32142 4.40858
    endloop
  endfacet
  facet normal 0 0.923875 -0.382694
    outer loop
      vertex 2.59142 1.32142 4.40858
      vertex 2.9 1.38 4.55
      vertex 2.9 1.32142 4.40858
    endloop
  endfacet
  facet normal 0 0.923875 -0.382694
    outer loop
      vertex 2.9 1.38 4.55
      vertex 2.59142 1.32142 4.40858
      vertex 2.45 1.38 4.55
    endloop
  endfacet
  facet normal 0.862849 0.357415 -0.357415
    outer loop
      vertex 3.1 1.18 4.55
      vertex 3.04142 1.18 4.40858
      vertex 3.04142 1.32142 4.55
    endloop
  endfacet
  facet normal 0.382694 0 -0.923875
    outer loop
      vertex 2.9 -1.18 4.35
      vertex 3.04142 1.18 4.40858
      vertex 3.04142 -1.18 4.40858
    endloop
  endfacet
  facet normal 0.382694 0 -0.923875
    outer loop
      vertex 3.04142 1.18 4.40858
      vertex 2.9 -1.18 4.35
      vertex 2.9 1.18 4.35
    endloop
  endfacet
  facet normal 0.357415 0.357415 -0.862849
    outer loop
      vertex 3.04142 1.18 4.40858
      vertex 2.9 1.18 4.35
      vertex 2.9 1.32142 4.40858
    endloop
  endfacet
  facet normal 0 0 -1
    outer loop
      vertex 2.65 -1.18 4.35
      vertex 2.9 1.18 4.35
      vertex 2.9 -1.18 4.35
    endloop
  endfacet
  facet normal -0 0 -1
    outer loop
      vertex 2.9 1.18 4.35
      vertex 2.65 -1.18 4.35
      vertex 2.65 1.18 4.35
    endloop
  endfacet
  facet normal 0.382694 0.923875 0
    outer loop
      vertex 2.9 1.38 4.55
      vertex 3.04142 1.32142 5.21649
      vertex 3.04142 1.32142 4.55
    endloop
  endfacet
  facet normal 0.382694 0.923875 0
    outer loop
      vertex 3.04142 1.32142 5.21649
      vertex 2.9 1.38 4.55
      vertex 2.9 1.38 5.35791
    endloop
  endfacet
  facet normal 0.707122 -7.25088e-05 0.707092
    outer loop
      vertex 2.59142 1.25494 5.66648
      vertex 2.65791 1.38 5.6
      vertex 2.51649 1.32142 5.74142
    endloop
  endfacet
  facet normal 0.707046 8.2231e-06 0.707168
    outer loop
      vertex 2.64441 1.18 5.6135
      vertex 2.65791 1.38 5.6
      vertex 2.59142 1.25494 5.66648
    endloop
  endfacet
  facet normal 0.707107 1.65939e-15 0.707107
    outer loop
      vertex 2.65791 1.38 5.6
      vertex 2.64441 1.18 5.6135
      vertex 2.9 1.38 5.35791
    endloop
  endfacet
  facet normal 0.707154 0 0.70706
    outer loop
      vertex 2.51649 1.32142 5.74142
      vertex 2.51649 1.25494 5.74142
      vertex 2.59142 1.25494 5.66648
    endloop
  endfacet
  facet normal 0.707107 0 0.707107
    outer loop
      vertex 2.45791 1.18 5.8
      vertex 2.51649 1.25494 5.74142
      vertex 2.51649 1.32142 5.74142
    endloop
  endfacet
  facet normal 0.707107 0 0.707107
    outer loop
      vertex 2.45791 1.18 5.8
      vertex 2.4635 1.18 5.79441
      vertex 2.51649 1.25494 5.74142
    endloop
  endfacet
  facet normal 0.707107 -0 0.707107
    outer loop
      vertex 2.45791 -1.18 5.8
      vertex 2.4635 1.18 5.79441
      vertex 2.45791 1.18 5.8
    endloop
  endfacet
  facet normal 0.707107 0 0.707107
    outer loop
      vertex 2.45791 -1.18 5.8
      vertex 2.4635 -1.18 5.79441
      vertex 2.4635 1.18 5.79441
    endloop
  endfacet
  facet normal 0.707107 0 0.707107
    outer loop
      vertex 2.45791 -1.18 5.8
      vertex 2.51649 -1.25494 5.74142
      vertex 2.4635 -1.18 5.79441
    endloop
  endfacet
  facet normal 0.707154 0 0.70706
    outer loop
      vertex 2.51649 -1.25494 5.74142
      vertex 2.51649 -1.32142 5.74142
      vertex 2.59142 -1.25494 5.66648
    endloop
  endfacet
  facet normal 0.707107 -0 0.707107
    outer loop
      vertex 2.51649 -1.32142 5.74142
      vertex 2.51649 -1.25494 5.74142
      vertex 2.45791 -1.18 5.8
    endloop
  endfacet
  facet normal 0.707107 0 0.707107
    outer loop
      vertex 3.1 1.18 5.15791
      vertex 2.9 1.38 5.35791
      vertex 2.64441 1.18 5.6135
    endloop
  endfacet
  facet normal 0.707107 0 0.707107
    outer loop
      vertex 2.9 1.38 5.35791
      vertex 3.1 1.18 5.15791
      vertex 3.04142 1.32142 5.21649
    endloop
  endfacet
  facet normal 0.707107 -0 0.707107
    outer loop
      vertex 2.64441 -1.18 5.6135
      vertex 3.1 1.18 5.15791
      vertex 2.64441 1.18 5.6135
    endloop
  endfacet
  facet normal 0.707107 0 0.707107
    outer loop
      vertex 2.64441 -1.18 5.6135
      vertex 3.1 -1.18 5.15791
      vertex 3.1 1.18 5.15791
    endloop
  endfacet
  facet normal 0.707046 -8.2231e-06 0.707168
    outer loop
      vertex 2.65791 -1.38 5.6
      vertex 2.64441 -1.18 5.6135
      vertex 2.59142 -1.25494 5.66648
    endloop
  endfacet
  facet normal 0.707122 7.25088e-05 0.707092
    outer loop
      vertex 2.65791 -1.38 5.6
      vertex 2.59142 -1.25494 5.66648
      vertex 2.51649 -1.32142 5.74142
    endloop
  endfacet
  facet normal 0.707107 -1.65939e-15 0.707107
    outer loop
      vertex 2.64441 -1.18 5.6135
      vertex 2.65791 -1.38 5.6
      vertex 2.9 -1.38 5.35791
    endloop
  endfacet
  facet normal 0.707107 0 0.707107
    outer loop
      vertex 2.64441 -1.18 5.6135
      vertex 2.9 -1.38 5.35791
      vertex 3.1 -1.18 5.15791
    endloop
  endfacet
  facet normal 0.707107 0 0.707107
    outer loop
      vertex 3.1 -1.18 5.15791
      vertex 2.9 -1.38 5.35791
      vertex 3.04142 -1.32142 5.21649
    endloop
  endfacet
  facet normal -0.923875 -0.382694 0
    outer loop
      vertex 1.80858 -1.32142 1.1
      vertex 1.75 -1.18 5.6
      vertex 1.75 -1.18 1.1
    endloop
  endfacet
  facet normal -0.923875 -0.382694 0
    outer loop
      vertex 1.75 -1.18 5.6
      vertex 1.80858 -1.32142 1.1
      vertex 1.80858 -1.32142 5.6
    endloop
  endfacet
  facet normal -0.38269 0.923877 0
    outer loop
      vertex 1.95 1.38 2.07416
      vertex 1.95 1.38 1.1
      vertex 1.86647 1.3454 2.05564
    endloop
  endfacet
  facet normal -0.382694 0.923875 -1.90823e-06
    outer loop
      vertex 1.95 1.38 5.6
      vertex 1.93645 1.37438 2.10323
      vertex 1.80858 1.32142 5.6
    endloop
  endfacet
  facet normal -0.383114 0.923701 0
    outer loop
      vertex 1.93645 1.37438 2.10323
      vertex 1.95 1.38 5.6
      vertex 1.95 1.38 2.09459
    endloop
  endfacet
  facet normal -0.382609 0.92391 1.72485e-06
    outer loop
      vertex 1.86647 1.3454 2.05564
      vertex 1.80858 1.32142 5.6
      vertex 1.93645 1.37438 2.10323
    endloop
  endfacet
  facet normal -0.382699 0.923873 0
    outer loop
      vertex 1.86647 1.3454 2.05564
      vertex 1.80858 1.32142 1.1
      vertex 1.80858 1.32142 5.6
    endloop
  endfacet
  facet normal -0.382694 0.923875 -3.7872e-07
    outer loop
      vertex 1.80858 1.32142 1.1
      vertex 1.86647 1.3454 2.05564
      vertex 1.95 1.38 1.1
    endloop
  endfacet
  facet normal -0.357415 0.862849 0.357415
    outer loop
      vertex 1.95 1.38 5.6
      vertex 1.80858 1.32142 5.6
      vertex 1.95 1.32142 5.74142
    endloop
  endfacet
  facet normal -0.923875 0 0.382694
    outer loop
      vertex 1.75 -1.18 5.6
      vertex 1.80858 1.18 5.74142
      vertex 1.75 1.18 5.6
    endloop
  endfacet
  facet normal -0.923875 0 0.382694
    outer loop
      vertex 1.80858 1.18 5.74142
      vertex 1.75 -1.18 5.6
      vertex 1.80858 -1.18 5.74142
    endloop
  endfacet
  facet normal 0.382663 0.923888 0
    outer loop
      vertex 2.46032 1.37572 2.18729
      vertex 2.59142 1.32142 4.40858
      vertex 2.59142 1.32142 2.21636
    endloop
  endfacet
  facet normal 0.383095 0.923709 -2.98873e-05
    outer loop
      vertex 2.45 1.38 2.185
      vertex 2.59142 1.32142 4.40858
      vertex 2.46032 1.37572 2.18729
    endloop
  endfacet
  facet normal 0.382694 0.923875 0
    outer loop
      vertex 2.59142 1.32142 4.40858
      vertex 2.45 1.38 2.185
      vertex 2.45 1.38 4.55
    endloop
  endfacet
  facet normal -0.57735 -0.57735 0.57735
    outer loop
      vertex 1.80858 -1.18 5.74142
      vertex 1.80858 -1.32142 5.6
      vertex 1.95 -1.32142 5.74142
    endloop
  endfacet
  facet normal -0.357415 0.357415 0.862849
    outer loop
      vertex 1.95 1.32142 5.74142
      vertex 1.80858 1.18 5.74142
      vertex 1.95 1.18 5.8
    endloop
  endfacet
  facet normal -1 0 0
    outer loop
      vertex 1.75 -1.18 1.1
      vertex 1.75 1.18 5.6
      vertex 1.75 1.18 1.1
    endloop
  endfacet
  facet normal -1 -0 0
    outer loop
      vertex 1.75 1.18 5.6
      vertex 1.75 -1.18 1.1
      vertex 1.75 -1.18 5.6
    endloop
  endfacet
  facet normal 1 -0 0
    outer loop
      vertex 2.65 -1.18 4.35
      vertex 2.65 1.18 2.22934
      vertex 2.65 1.18 4.35
    endloop
  endfacet
  facet normal 1 0 0
    outer loop
      vertex 2.65 1.18 2.22934
      vertex 2.65 -1.18 4.35
      vertex 2.65 -1.18 2.22934
    endloop
  endfacet
  facet normal 0.923875 0.382694 0
    outer loop
      vertex 2.65 1.18 4.35
      vertex 2.59142 1.32142 2.21636
      vertex 2.59142 1.32142 4.40858
    endloop
  endfacet
  facet normal 0.923875 0.382694 0
    outer loop
      vertex 2.59142 1.32142 2.21636
      vertex 2.65 1.18 4.35
      vertex 2.65 1.18 2.22934
    endloop
  endfacet
  facet normal 0.86284 0.357426 0.357426
    outer loop
      vertex 2.59142 1.25494 5.66648
      vertex 2.59142 1.18 5.74142
      vertex 2.64441 1.18 5.6135
    endloop
  endfacet
  facet normal -0.57735 0.57735 0.57735
    outer loop
      vertex 1.80858 1.32142 5.6
      vertex 1.80858 1.18 5.74142
      vertex 1.95 1.32142 5.74142
    endloop
  endfacet
  facet normal 0.577402 0.577325 0.577325
    outer loop
      vertex 2.59142 1.25494 5.66648
      vertex 2.51649 1.25494 5.74142
      vertex 2.59142 1.18 5.74142
    endloop
  endfacet
  facet normal -0.382694 0 0.923875
    outer loop
      vertex 1.80858 1.18 5.74142
      vertex 1.95 -1.18 5.8
      vertex 1.95 1.18 5.8
    endloop
  endfacet
  facet normal -0.382694 0 0.923875
    outer loop
      vertex 1.95 -1.18 5.8
      vertex 1.80858 1.18 5.74142
      vertex 1.80858 -1.18 5.74142
    endloop
  endfacet
  facet normal -0.923875 0.382694 0
    outer loop
      vertex 1.75 1.18 1.1
      vertex 1.80858 1.32142 5.6
      vertex 1.80858 1.32142 1.1
    endloop
  endfacet
  facet normal -0.923875 0.382694 0
    outer loop
      vertex 1.80858 1.32142 5.6
      vertex 1.75 1.18 1.1
      vertex 1.75 1.18 5.6
    endloop
  endfacet
  facet normal -0 0 1
    outer loop
      vertex 1.95 1.18 5.8
      vertex 2.45 -1.18 5.8
      vertex 2.45 1.18 5.8
    endloop
  endfacet
  facet normal 0 0 1
    outer loop
      vertex 2.45 -1.18 5.8
      vertex 1.95 1.18 5.8
      vertex 1.95 -1.18 5.8
    endloop
  endfacet
  facet normal -0.357415 -0.357415 0.862849
    outer loop
      vertex 1.95 -1.18 5.8
      vertex 1.80858 -1.18 5.74142
      vertex 1.95 -1.32142 5.74142
    endloop
  endfacet
  facet normal 0.382694 -0.923875 0
    outer loop
      vertex 2.45 -1.38 2.185
      vertex 2.59142 -1.32142 4.40858
      vertex 2.45 -1.38 4.55
    endloop
  endfacet
  facet normal 0.382663 -0.923888 0
    outer loop
      vertex 2.59142 -1.32142 4.40858
      vertex 2.46032 -1.37572 2.18729
      vertex 2.59142 -1.32142 2.21636
    endloop
  endfacet
  facet normal 0.383095 -0.923709 -2.98873e-05
    outer loop
      vertex 2.59142 -1.32142 4.40858
      vertex 2.45 -1.38 2.185
      vertex 2.46032 -1.37572 2.18729
    endloop
  endfacet
  facet normal -0.357415 -0.862849 0.357415
    outer loop
      vertex 1.95 -1.32142 5.74142
      vertex 1.80858 -1.32142 5.6
      vertex 1.95 -1.38 5.6
    endloop
  endfacet
  facet normal -0.862849 -0.357415 0.357415
    outer loop
      vertex 1.80858 -1.18 5.74142
      vertex 1.75 -1.18 5.6
      vertex 1.80858 -1.32142 5.6
    endloop
  endfacet
  facet normal 0.382707 0 0.92387
    outer loop
      vertex 2.4635 1.18 5.79441
      vertex 2.59142 -1.18 5.74142
      vertex 2.59142 1.18 5.74142
    endloop
  endfacet
  facet normal 0.382707 0 0.92387
    outer loop
      vertex 2.59142 -1.18 5.74142
      vertex 2.4635 1.18 5.79441
      vertex 2.4635 -1.18 5.79441
    endloop
  endfacet
  facet normal -0.862849 0.357415 0.357415
    outer loop
      vertex 1.80858 1.32142 5.6
      vertex 1.75 1.18 5.6
      vertex 1.80858 1.18 5.74142
    endloop
  endfacet
  facet normal 0.577402 -0.577325 0.577325
    outer loop
      vertex 2.59142 -1.18 5.74142
      vertex 2.51649 -1.25494 5.74142
      vertex 2.59142 -1.25494 5.66648
    endloop
  endfacet
  facet normal 0 -0.923875 0.382694
    outer loop
      vertex 1.95 -1.38 5.6
      vertex 2.45 -1.32142 5.74142
      vertex 1.95 -1.32142 5.74142
    endloop
  endfacet
  facet normal 0 -0.923875 0.382694
    outer loop
      vertex 2.45 -1.32142 5.74142
      vertex 1.95 -1.38 5.6
      vertex 2.45 -1.38 5.6
    endloop
  endfacet
  facet normal 0 -0.382694 0.923875
    outer loop
      vertex 1.95 -1.18 5.8
      vertex 2.45 -1.32142 5.74142
      vertex 2.45 -1.18 5.8
    endloop
  endfacet
  facet normal 0 -0.382694 0.923875
    outer loop
      vertex 2.45 -1.32142 5.74142
      vertex 1.95 -1.18 5.8
      vertex 1.95 -1.32142 5.74142
    endloop
  endfacet
  facet normal 0.357432 -0.357384 0.862855
    outer loop
      vertex 2.59142 -1.18 5.74142
      vertex 2.4635 -1.18 5.79441
      vertex 2.51649 -1.25494 5.74142
    endloop
  endfacet
  facet normal -0 0.382694 0.923875
    outer loop
      vertex 1.95 1.32142 5.74142
      vertex 2.45 1.18 5.8
      vertex 2.45 1.32142 5.74142
    endloop
  endfacet
  facet normal 0 0.382694 0.923875
    outer loop
      vertex 2.45 1.18 5.8
      vertex 1.95 1.32142 5.74142
      vertex 1.95 1.18 5.8
    endloop
  endfacet
  facet normal 0.357432 0.357384 0.862855
    outer loop
      vertex 2.51649 1.25494 5.74142
      vertex 2.4635 1.18 5.79441
      vertex 2.59142 1.18 5.74142
    endloop
  endfacet
  facet normal 0.923875 -0.382694 0
    outer loop
      vertex 2.59142 -1.32142 2.21636
      vertex 2.65 -1.18 4.35
      vertex 2.59142 -1.32142 4.40858
    endloop
  endfacet
  facet normal 0.923875 -0.382694 0
    outer loop
      vertex 2.65 -1.18 4.35
      vertex 2.59142 -1.32142 2.21636
      vertex 2.65 -1.18 2.22934
    endloop
  endfacet
  facet normal -0.382694 -0.923875 -1.90823e-06
    outer loop
      vertex 1.80858 -1.32142 5.6
      vertex 1.93645 -1.37438 2.10323
      vertex 1.95 -1.38 5.6
    endloop
  endfacet
  facet normal -0.382609 -0.92391 1.72485e-06
    outer loop
      vertex 1.80858 -1.32142 5.6
      vertex 1.86647 -1.3454 2.05564
      vertex 1.93645 -1.37438 2.10323
    endloop
  endfacet
  facet normal -0.382699 -0.923873 0
    outer loop
      vertex 1.86647 -1.3454 2.05564
      vertex 1.80858 -1.32142 5.6
      vertex 1.80858 -1.32142 1.1
    endloop
  endfacet
  facet normal -0.383114 -0.923701 -0
    outer loop
      vertex 1.95 -1.38 5.6
      vertex 1.93645 -1.37438 2.10323
      vertex 1.95 -1.38 2.09459
    endloop
  endfacet
  facet normal -0.382694 -0.923875 -3.7872e-07
    outer loop
      vertex 1.95 -1.38 1.1
      vertex 1.86647 -1.3454 2.05564
      vertex 1.80858 -1.32142 1.1
    endloop
  endfacet
  facet normal -0.38269 -0.923877 0
    outer loop
      vertex 1.86647 -1.3454 2.05564
      vertex 1.95 -1.38 1.1
      vertex 1.95 -1.38 2.07416
    endloop
  endfacet
  facet normal 0 0.923875 0.382694
    outer loop
      vertex 2.45 1.38 5.6
      vertex 1.95 1.32142 5.74142
      vertex 2.45 1.32142 5.74142
    endloop
  endfacet
  facet normal 0 0.923875 0.382694
    outer loop
      vertex 1.95 1.32142 5.74142
      vertex 2.45 1.38 5.6
      vertex 1.95 1.38 5.6
    endloop
  endfacet
  facet normal 0.86284 -0.357426 0.357426
    outer loop
      vertex 2.59142 -1.18 5.74142
      vertex 2.59142 -1.25494 5.66648
      vertex 2.64441 -1.18 5.6135
    endloop
  endfacet
  facet normal 0.92387 -0 0.382707
    outer loop
      vertex 2.59142 -1.18 5.74142
      vertex 2.64441 1.18 5.6135
      vertex 2.59142 1.18 5.74142
    endloop
  endfacet
  facet normal 0.92387 0 0.382707
    outer loop
      vertex 2.64441 1.18 5.6135
      vertex 2.59142 -1.18 5.74142
      vertex 2.64441 -1.18 5.6135
    endloop
  endfacet
  facet normal 0.346803 0.923891 0.161718
    outer loop
      vertex 3.07504 1.33529 1.1
      vertex 2.59142 1.32142 2.21636
      vertex 3.11199 1.32142 1.1
    endloop
  endfacet
  facet normal 0.346805 0.92389 0.161718
    outer loop
      vertex 2.59142 1.32142 2.21636
      vertex 3.07504 1.33529 1.1
      vertex 2.46032 1.37572 2.18729
    endloop
  endfacet
  facet normal -0.161808 0.92376 0.347111
    outer loop
      vertex 1.94217 1.38 2.09094
      vertex 1.93645 1.37438 2.10323
      vertex 1.95 1.38 2.09459
    endloop
  endfacet
  facet normal 0.346805 -0.92389 0.161718
    outer loop
      vertex 3.07504 -1.33529 1.1
      vertex 2.59142 -1.32142 2.21636
      vertex 2.46032 -1.37572 2.18729
    endloop
  endfacet
  facet normal 0.346803 -0.923891 0.161718
    outer loop
      vertex 2.59142 -1.32142 2.21636
      vertex 3.07504 -1.33529 1.1
      vertex 3.11199 -1.32142 1.1
    endloop
  endfacet
  facet normal 0.906308 -0 0.422618
    outer loop
      vertex 2.65 -1.18 2.22934
      vertex 3.17662 1.18 1.1
      vertex 2.65 1.18 2.22934
    endloop
  endfacet
  facet normal 0.906308 0 0.422618
    outer loop
      vertex 3.17662 1.18 1.1
      vertex 2.65 -1.18 2.22934
      vertex 3.17662 -1.18 1.1
    endloop
  endfacet
  facet normal -0.475133 -0.86267 0.173348
    outer loop
      vertex 1.93645 -1.37438 2.10323
      vertex 1.86647 -1.3454 2.05564
      vertex 1.94217 -1.38 2.09094
    endloop
  endfacet
  facet normal -0.346807 -0.92387 -0.16183
    outer loop
      vertex 1.94217 -1.38 2.09094
      vertex 1.86647 -1.3454 2.05564
      vertex 1.95 -1.38 2.07416
    endloop
  endfacet
  facet normal 0.346849 0.92387 0.161744
    outer loop
      vertex 2.95595 1.38 1.1
      vertex 2.46032 1.37572 2.18729
      vertex 3.07504 1.33529 1.1
    endloop
  endfacet
  facet normal 0.347171 0.923723 0.16189
    outer loop
      vertex 2.46032 1.37572 2.18729
      vertex 2.95595 1.38 1.1
      vertex 2.45 1.38 2.185
    endloop
  endfacet
  facet normal 0.347171 -0.923723 0.16189
    outer loop
      vertex 2.95595 -1.38 1.1
      vertex 2.46032 -1.37572 2.18729
      vertex 2.45 -1.38 2.185
    endloop
  endfacet
  facet normal 0.346849 -0.92387 0.161744
    outer loop
      vertex 2.46032 -1.37572 2.18729
      vertex 2.95595 -1.38 1.1
      vertex 3.07504 -1.33529 1.1
    endloop
  endfacet
  facet normal -0.161808 -0.92376 0.347111
    outer loop
      vertex 1.95 -1.38 2.09459
      vertex 1.93645 -1.37438 2.10323
      vertex 1.94217 -1.38 2.09094
    endloop
  endfacet
  facet normal 0.837321 -0.382678 0.390449
    outer loop
      vertex 2.59142 -1.32142 2.21636
      vertex 3.17662 -1.18 1.1
      vertex 2.65 -1.18 2.22934
    endloop
  endfacet
  facet normal 0.837326 -0.382664 0.390453
    outer loop
      vertex 3.17662 -1.18 1.1
      vertex 2.59142 -1.32142 2.21636
      vertex 3.11199 -1.32142 1.1
    endloop
  endfacet
  facet normal -0.346807 0.92387 -0.16183
    outer loop
      vertex 1.95 1.38 2.07416
      vertex 1.86647 1.3454 2.05564
      vertex 1.94217 1.38 2.09094
    endloop
  endfacet
  facet normal -0.475133 0.86267 0.173348
    outer loop
      vertex 1.94217 1.38 2.09094
      vertex 1.86647 1.3454 2.05564
      vertex 1.93645 1.37438 2.10323
    endloop
  endfacet
  facet normal 0.837321 0.382678 0.390449
    outer loop
      vertex 3.17662 1.18 1.1
      vertex 2.59142 1.32142 2.21636
      vertex 2.65 1.18 2.22934
    endloop
  endfacet
  facet normal 0.837326 0.382664 0.390453
    outer loop
      vertex 2.59142 1.32142 2.21636
      vertex 3.17662 1.18 1.1
      vertex 3.11199 1.32142 1.1
    endloop
  endfacet
  facet normal -0.382694 -0.923875 0
    outer loop
      vertex -3.68855 -6.56355 0
      vertex -3.335 -6.71 1.1
      vertex -3.68855 -6.56355 1.1
    endloop
  endfacet
  facet normal -0.382694 -0.923875 -0
    outer loop
      vertex -3.335 -6.71 1.1
      vertex -3.68855 -6.56355 0
      vertex -3.335 -6.71 0
    endloop
  endfacet
  facet normal 0 1 -0
    outer loop
      vertex 3.335 6.71 0
      vertex -3.335 6.71 1.1
      vertex 3.335 6.71 1.1
    endloop
  endfacet
  facet normal 0 1 0
    outer loop
      vertex -3.335 6.71 1.1
      vertex 3.335 6.71 0
      vertex -3.335 6.71 0
    endloop
  endfacet
  facet normal 0.923875 -0.382694 0
    outer loop
      vertex 3.68855 -6.56355 1.1
      vertex 3.835 -6.21 0
      vertex 3.835 -6.21 1.1
    endloop
  endfacet
  facet normal 0.923875 -0.382694 0
    outer loop
      vertex 3.835 -6.21 0
      vertex 3.68855 -6.56355 1.1
      vertex 3.68855 -6.56355 0
    endloop
  endfacet
  facet normal 0 0 1
    outer loop
      vertex 3.335 6.71 1.1
      vertex 3.835 6.21 1.1
      vertex 3.68855 6.56355 1.1
    endloop
  endfacet
  facet normal 0 0 1
    outer loop
      vertex 3.835 6.21 1.1
      vertex 3.17662 1.18 1.1
      vertex 3.835 -6.21 1.1
    endloop
  endfacet
  facet normal 0 0 1
    outer loop
      vertex 1.95 1.38 1.1
      vertex 3.835 6.21 1.1
      vertex 3.335 6.71 1.1
    endloop
  endfacet
  facet normal -0 0 1
    outer loop
      vertex 3.17662 -1.18 1.1
      vertex 3.835 -6.21 1.1
      vertex 3.17662 1.18 1.1
    endloop
  endfacet
  facet normal -0 0 1
    outer loop
      vertex 3.11199 -1.32142 1.1
      vertex 3.835 -6.21 1.1
      vertex 3.17662 -1.18 1.1
    endloop
  endfacet
  facet normal 0 0 1
    outer loop
      vertex 3.835 6.21 1.1
      vertex 3.11199 1.32142 1.1
      vertex 3.17662 1.18 1.1
    endloop
  endfacet
  facet normal 0 0 1
    outer loop
      vertex 3.835 6.21 1.1
      vertex 3.07504 1.33529 1.1
      vertex 3.11199 1.32142 1.1
    endloop
  endfacet
  facet normal 0 0 1
    outer loop
      vertex 3.835 6.21 1.1
      vertex 2.95595 1.38 1.1
      vertex 3.07504 1.33529 1.1
    endloop
  endfacet
  facet normal 0 0 1
    outer loop
      vertex 3.835 6.21 1.1
      vertex 1.95 1.38 1.1
      vertex 2.95595 1.38 1.1
    endloop
  endfacet
  facet normal 0 0 1
    outer loop
      vertex 3.335 6.71 1.1
      vertex 1.80858 1.32142 1.1
      vertex 1.95 1.38 1.1
    endloop
  endfacet
  facet normal 0 0 1
    outer loop
      vertex -1.80858 1.32142 1.1
      vertex 1.80858 1.32142 1.1
      vertex 3.335 6.71 1.1
    endloop
  endfacet
  facet normal 0 0 1
    outer loop
      vertex 1.75 1.18 1.1
      vertex -1.75 1.18 1.1
      vertex 1.75 -1.18 1.1
    endloop
  endfacet
  facet normal 0 0 1
    outer loop
      vertex 1.80858 1.32142 1.1
      vertex -1.80858 1.32142 1.1
      vertex 1.75 1.18 1.1
    endloop
  endfacet
  facet normal 0 0 1
    outer loop
      vertex 1.75 1.18 1.1
      vertex -1.80858 1.32142 1.1
      vertex -1.75 1.18 1.1
    endloop
  endfacet
  facet normal -0 0 1
    outer loop
      vertex -3.335 6.71 1.1
      vertex -1.80858 1.32142 1.1
      vertex 3.335 6.71 1.1
    endloop
  endfacet
  facet normal 0 0 1
    outer loop
      vertex -1.80858 1.32142 1.1
      vertex -3.335 6.71 1.1
      vertex -1.95 1.38 1.1
    endloop
  endfacet
  facet normal -0 0 1
    outer loop
      vertex -3.835 6.21 1.1
      vertex -1.95 1.38 1.1
      vertex -3.335 6.71 1.1
    endloop
  endfacet
  facet normal 0 0 1
    outer loop
      vertex -1.95 1.38 1.1
      vertex -3.835 6.21 1.1
      vertex -2.95595 1.38 1.1
    endloop
  endfacet
  facet normal 0 0 1
    outer loop
      vertex -3.11199 1.32142 1.1
      vertex -3.835 6.21 1.1
      vertex -3.17662 1.18 1.1
    endloop
  endfacet
  facet normal 0 0 1
    outer loop
      vertex -3.07504 1.33529 1.1
      vertex -3.835 6.21 1.1
      vertex -3.11199 1.32142 1.1
    endloop
  endfacet
  facet normal 0 0 1
    outer loop
      vertex -2.95595 1.38 1.1
      vertex -3.835 6.21 1.1
      vertex -3.07504 1.33529 1.1
    endloop
  endfacet
  facet normal -0 0 1
    outer loop
      vertex 3.07504 -1.33529 1.1
      vertex 3.835 -6.21 1.1
      vertex 3.11199 -1.32142 1.1
    endloop
  endfacet
  facet normal -0 0 1
    outer loop
      vertex 2.95595 -1.38 1.1
      vertex 3.835 -6.21 1.1
      vertex 3.07504 -1.33529 1.1
    endloop
  endfacet
  facet normal -0 0 1
    outer loop
      vertex 1.95 -1.38 1.1
      vertex 3.835 -6.21 1.1
      vertex 2.95595 -1.38 1.1
    endloop
  endfacet
  facet normal 0 0 1
    outer loop
      vertex 3.835 -6.21 1.1
      vertex 3.335 -6.71 1.1
      vertex 3.68855 -6.56355 1.1
    endloop
  endfacet
  facet normal 0 0 1
    outer loop
      vertex 3.835 -6.21 1.1
      vertex 1.95 -1.38 1.1
      vertex 3.335 -6.71 1.1
    endloop
  endfacet
  facet normal 0 0 1
    outer loop
      vertex 1.80858 -1.32142 1.1
      vertex 3.335 -6.71 1.1
      vertex 1.95 -1.38 1.1
    endloop
  endfacet
  facet normal 0 0 1
    outer loop
      vertex -1.80858 -1.32142 1.1
      vertex 1.80858 -1.32142 1.1
      vertex 1.75 -1.18 1.1
    endloop
  endfacet
  facet normal 0 0 1
    outer loop
      vertex -1.75 -1.18 1.1
      vertex 1.75 -1.18 1.1
      vertex -1.75 1.18 1.1
    endloop
  endfacet
  facet normal 0 0 1
    outer loop
      vertex -1.80858 -1.32142 1.1
      vertex 1.75 -1.18 1.1
      vertex -1.75 -1.18 1.1
    endloop
  endfacet
  facet normal 0 0 1
    outer loop
      vertex 1.80858 -1.32142 1.1
      vertex -1.80858 -1.32142 1.1
      vertex 3.335 -6.71 1.1
    endloop
  endfacet
  facet normal 0 0 1
    outer loop
      vertex -3.335 -6.71 1.1
      vertex -1.80858 -1.32142 1.1
      vertex -1.95 -1.38 1.1
    endloop
  endfacet
  facet normal 0 0 1
    outer loop
      vertex -3.835 -6.21 1.1
      vertex -1.95 -1.38 1.1
      vertex -2.95595 -1.38 1.1
    endloop
  endfacet
  facet normal 0 0 1
    outer loop
      vertex -3.835 -6.21 1.1
      vertex -2.95595 -1.38 1.1
      vertex -3.07504 -1.33529 1.1
    endloop
  endfacet
  facet normal 0 0 1
    outer loop
      vertex -3.835 -6.21 1.1
      vertex -3.07504 -1.33529 1.1
      vertex -3.11199 -1.32142 1.1
    endloop
  endfacet
  facet normal 0 0 1
    outer loop
      vertex -1.80858 -1.32142 1.1
      vertex -3.335 -6.71 1.1
      vertex 3.335 -6.71 1.1
    endloop
  endfacet
  facet normal 0 0 1
    outer loop
      vertex -3.835 -6.21 1.1
      vertex -3.11199 -1.32142 1.1
      vertex -3.17662 -1.18 1.1
    endloop
  endfacet
  facet normal 0 0 1
    outer loop
      vertex -3.17662 1.18 1.1
      vertex -3.835 6.21 1.1
      vertex -3.17662 -1.18 1.1
    endloop
  endfacet
  facet normal 0 0 1
    outer loop
      vertex -3.835 6.21 1.1
      vertex -3.335 6.71 1.1
      vertex -3.68855 6.56355 1.1
    endloop
  endfacet
  facet normal 0 0 1
    outer loop
      vertex -3.835 -6.21 1.1
      vertex -3.17662 -1.18 1.1
      vertex -3.835 6.21 1.1
    endloop
  endfacet
  facet normal 0 0 1
    outer loop
      vertex -1.95 -1.38 1.1
      vertex -3.835 -6.21 1.1
      vertex -3.335 -6.71 1.1
    endloop
  endfacet
  facet normal 0 0 1
    outer loop
      vertex -3.335 -6.71 1.1
      vertex -3.835 -6.21 1.1
      vertex -3.68855 -6.56355 1.1
    endloop
  endfacet
  facet normal 1 -0 0
    outer loop
      vertex 3.835 -6.21 1.1
      vertex 3.835 6.21 0
      vertex 3.835 6.21 1.1
    endloop
  endfacet
  facet normal 1 0 0
    outer loop
      vertex 3.835 6.21 0
      vertex 3.835 -6.21 1.1
      vertex 3.835 -6.21 0
    endloop
  endfacet
  facet normal 0.923875 0.382694 0
    outer loop
      vertex 3.835 6.21 1.1
      vertex 3.68855 6.56355 0
      vertex 3.68855 6.56355 1.1
    endloop
  endfacet
  facet normal 0.923875 0.382694 0
    outer loop
      vertex 3.68855 6.56355 0
      vertex 3.835 6.21 1.1
      vertex 3.835 6.21 0
    endloop
  endfacet
  facet normal 0 -1 0
    outer loop
      vertex -3.335 -6.71 0
      vertex 3.335 -6.71 1.1
      vertex -3.335 -6.71 1.1
    endloop
  endfacet
  facet normal 0 -1 -0
    outer loop
      vertex 3.335 -6.71 1.1
      vertex -3.335 -6.71 0
      vertex 3.335 -6.71 0
    endloop
  endfacet
  facet normal 0.382694 -0.923875 0
    outer loop
      vertex 3.335 -6.71 0
      vertex 3.68855 -6.56355 1.1
      vertex 3.335 -6.71 1.1
    endloop
  endfacet
  facet normal 0.382694 -0.923875 0
    outer loop
      vertex 3.68855 -6.56355 1.1
      vertex 3.335 -6.71 0
      vertex 3.68855 -6.56355 0
    endloop
  endfacet
  facet normal 0.382694 0.923875 -0
    outer loop
      vertex 3.68855 6.56355 0
      vertex 3.335 6.71 1.1
      vertex 3.68855 6.56355 1.1
    endloop
  endfacet
  facet normal 0.382694 0.923875 0
    outer loop
      vertex 3.335 6.71 1.1
      vertex 3.68855 6.56355 0
      vertex 3.335 6.71 0
    endloop
  endfacet
  facet normal -1 0 0
    outer loop
      vertex -3.835 -6.21 0
      vertex -3.835 6.21 1.1
      vertex -3.835 6.21 0
    endloop
  endfacet
  facet normal -1 -0 0
    outer loop
      vertex -3.835 6.21 1.1
      vertex -3.835 -6.21 0
      vertex -3.835 -6.21 1.1
    endloop
  endfacet
  facet normal -0.923875 0.382694 0
    outer loop
      vertex -3.835 6.21 0
      vertex -3.68855 6.56355 1.1
      vertex -3.68855 6.56355 0
    endloop
  endfacet
  facet normal -0.923875 0.382694 0
    outer loop
      vertex -3.68855 6.56355 1.1
      vertex -3.835 6.21 0
      vertex -3.835 6.21 1.1
    endloop
  endfacet
  facet normal -0.382694 0.923875 0
    outer loop
      vertex -3.335 6.71 0
      vertex -3.68855 6.56355 1.1
      vertex -3.335 6.71 1.1
    endloop
  endfacet
  facet normal -0.382694 0.923875 0
    outer loop
      vertex -3.68855 6.56355 1.1
      vertex -3.335 6.71 0
      vertex -3.68855 6.56355 0
    endloop
  endfacet
  facet normal -0.923875 -0.382694 0
    outer loop
      vertex -3.68855 -6.56355 0
      vertex -3.835 -6.21 1.1
      vertex -3.835 -6.21 0
    endloop
  endfacet
  facet normal -0.923875 -0.382694 0
    outer loop
      vertex -3.835 -6.21 1.1
      vertex -3.68855 -6.56355 0
      vertex -3.68855 -6.56355 1.1
    endloop
  endfacet
endsolid OpenSCAD_Model
