solid OpenSCAD_Model
  facet normal 0 0 -1
    outer loop
      vertex 19.05 412.75 0
      vertex 609.6 450.85 0
      vertex 609.6 412.75 0
    endloop
  endfacet
  facet normal 0 0 -1
    outer loop
      vertex 0 450.85 0
      vertex 19.05 412.75 0
      vertex 0 412.75 0
    endloop
  endfacet
  facet normal 0 0 -1
    outer loop
      vertex 19.05 412.75 0
      vertex 0 450.85 0
      vertex 609.6 450.85 0
    endloop
  endfacet
  facet normal 0 0 -1
    outer loop
      vertex 19.05 19.05 0
      vertex 590.55 393.7 0
      vertex 590.55 19.05 0
    endloop
  endfacet
  facet normal -0 0 -1
    outer loop
      vertex 590.55 393.7 0
      vertex 19.05 19.05 0
      vertex 19.05 393.7 0
    endloop
  endfacet
  facet normal 0 0 -1
    outer loop
      vertex 19.05 0 0
      vertex 590.55 7.62939e-07 0
      vertex 590.55 0 0
    endloop
  endfacet
  facet normal -0 0 -1
    outer loop
      vertex 590.55 7.62939e-07 0
      vertex 19.05 0 0
      vertex 19.05 7.62939e-07 0
    endloop
  endfacet
  facet normal 0 -1 0
    outer loop
      vertex 0 0 882.65
      vertex 19.05 0 803.275
      vertex 609.6 0 882.65
    endloop
  endfacet
  facet normal 0 -1 0
    outer loop
      vertex 0 0 882.65
      vertex 19.05 0 79.375
      vertex 19.05 0 803.275
    endloop
  endfacet
  facet normal 0 -1 0
    outer loop
      vertex 19.05 0 79.375
      vertex 19.05 0 0
      vertex 590.55 0 79.375
    endloop
  endfacet
  facet normal 0 -1 0
    outer loop
      vertex 0 0 -88.9
      vertex 19.05 0 79.375
      vertex 0 0 882.65
    endloop
  endfacet
  facet normal 0 -1 -0
    outer loop
      vertex 19.05 0 79.375
      vertex 0 0 -88.9
      vertex 19.05 0 0
    endloop
  endfacet
  facet normal 0 -1 -0
    outer loop
      vertex 19.05 0 0
      vertex 0 0 -88.9
      vertex 19.05 0 -88.9
    endloop
  endfacet
  facet normal 0 -1 0
    outer loop
      vertex 590.55 0 803.275
      vertex 609.6 0 882.65
      vertex 19.05 0 803.275
    endloop
  endfacet
  facet normal 0 -1 0
    outer loop
      vertex 590.55 0 79.375
      vertex 609.6 0 882.65
      vertex 590.55 0 803.275
    endloop
  endfacet
  facet normal 0 -1 0
    outer loop
      vertex 590.55 0 0
      vertex 590.55 0 79.375
      vertex 19.05 0 0
    endloop
  endfacet
  facet normal 0 -1 0
    outer loop
      vertex 609.6 0 -88.9
      vertex 590.55 0 79.375
      vertex 590.55 0 0
    endloop
  endfacet
  facet normal 0 -1 0
    outer loop
      vertex 609.6 0 -88.9
      vertex 590.55 0 0
      vertex 590.55 0 -88.9
    endloop
  endfacet
  facet normal 0 -1 0
    outer loop
      vertex 590.55 0 79.375
      vertex 609.6 0 -88.9
      vertex 609.6 0 882.65
    endloop
  endfacet
  facet normal -1 0 0
    outer loop
      vertex 590.55 19.05 -88.9
      vertex 590.55 393.7 0
      vertex 590.55 393.7 -88.9
    endloop
  endfacet
  facet normal -1 -0 0
    outer loop
      vertex 590.55 393.7 0
      vertex 590.55 19.05 -88.9
      vertex 590.55 19.05 0
    endloop
  endfacet
  facet normal -1 0 0
    outer loop
      vertex 590.55 0 -88.9
      vertex 590.55 7.62939e-07 0
      vertex 590.55 7.62939e-07 -88.9
    endloop
  endfacet
  facet normal -1 -0 0
    outer loop
      vertex 590.55 7.62939e-07 0
      vertex 590.55 0 -88.9
      vertex 590.55 0 0
    endloop
  endfacet
  facet normal 0 0 -1
    outer loop
      vertex 0 0 -88.9
      vertex 19.05 7.62939e-07 -88.9
      vertex 19.05 0 -88.9
    endloop
  endfacet
  facet normal -0 0 -1
    outer loop
      vertex 19.05 7.62939e-07 -88.9
      vertex 0 0 -88.9
      vertex 19.05 19.05 -88.9
    endloop
  endfacet
  facet normal -0 0 -1
    outer loop
      vertex 19.05 19.05 -88.9
      vertex 0 0 -88.9
      vertex 19.05 393.7 -88.9
    endloop
  endfacet
  facet normal 0 0 -1
    outer loop
      vertex 0 412.75 -88.9
      vertex 19.05 393.7 -88.9
      vertex 0 0 -88.9
    endloop
  endfacet
  facet normal 0 0 -1
    outer loop
      vertex 19.05 393.7 -88.9
      vertex 0 412.75 -88.9
      vertex 19.05 412.75 -88.9
    endloop
  endfacet
  facet normal 0 0 -1
    outer loop
      vertex 19.05 7.62939e-07 -88.9
      vertex 590.55 19.05 -88.9
      vertex 590.55 7.62939e-07 -88.9
    endloop
  endfacet
  facet normal -0 0 -1
    outer loop
      vertex 590.55 19.05 -88.9
      vertex 19.05 7.62939e-07 -88.9
      vertex 19.05 19.05 -88.9
    endloop
  endfacet
  facet normal 0 0 -1
    outer loop
      vertex 590.55 7.62939e-07 -88.9
      vertex 609.6 0 -88.9
      vertex 590.55 0 -88.9
    endloop
  endfacet
  facet normal 0 0 -1
    outer loop
      vertex 590.55 19.05 -88.9
      vertex 609.6 0 -88.9
      vertex 590.55 7.62939e-07 -88.9
    endloop
  endfacet
  facet normal 0 0 -1
    outer loop
      vertex 609.6 0 -88.9
      vertex 590.55 19.05 -88.9
      vertex 609.6 412.75 -88.9
    endloop
  endfacet
  facet normal 0 0 -1
    outer loop
      vertex 590.55 393.7 -88.9
      vertex 609.6 412.75 -88.9
      vertex 590.55 19.05 -88.9
    endloop
  endfacet
  facet normal 0 0 -1
    outer loop
      vertex 19.05 412.75 -88.9
      vertex 590.55 393.7 -88.9
      vertex 19.05 393.7 -88.9
    endloop
  endfacet
  facet normal 0 0 -1
    outer loop
      vertex 590.55 393.7 -88.9
      vertex 19.05 412.75 -88.9
      vertex 609.6 412.75 -88.9
    endloop
  endfacet
  facet normal 1 0 0
    outer loop
      vertex 609.6 450.85 882.65
      vertex 609.6 412.75 0
      vertex 609.6 450.85 0
    endloop
  endfacet
  facet normal 1 -0 0
    outer loop
      vertex 609.6 0 882.65
      vertex 609.6 412.75 0
      vertex 609.6 450.85 882.65
    endloop
  endfacet
  facet normal 1 0 0
    outer loop
      vertex 609.6 0 -88.9
      vertex 609.6 412.75 0
      vertex 609.6 0 882.65
    endloop
  endfacet
  facet normal 1 0 0
    outer loop
      vertex 609.6 412.75 0
      vertex 609.6 0 -88.9
      vertex 609.6 412.75 -88.9
    endloop
  endfacet
  facet normal -1 0 0
    outer loop
      vertex 0 412.75 -88.9
      vertex 0 0 -88.9
      vertex 0 412.75 0
    endloop
  endfacet
  facet normal -1 0 0
    outer loop
      vertex 0 412.75 0
      vertex 0 450.85 882.65
      vertex 0 450.85 0
    endloop
  endfacet
  facet normal -1 0 0
    outer loop
      vertex 0 0 882.65
      vertex 0 412.75 0
      vertex 0 0 -88.9
    endloop
  endfacet
  facet normal -1 0 0
    outer loop
      vertex 0 412.75 0
      vertex 0 0 882.65
      vertex 0 450.85 882.65
    endloop
  endfacet
  facet normal 1 -0 0
    outer loop
      vertex 19.05 19.05 0
      vertex 19.05 393.7 -88.9
      vertex 19.05 393.7 0
    endloop
  endfacet
  facet normal 1 0 0
    outer loop
      vertex 19.05 393.7 -88.9
      vertex 19.05 19.05 0
      vertex 19.05 19.05 -88.9
    endloop
  endfacet
  facet normal 1 -0 0
    outer loop
      vertex 19.05 0 0
      vertex 19.05 7.62939e-07 -88.9
      vertex 19.05 7.62939e-07 0
    endloop
  endfacet
  facet normal 1 0 0
    outer loop
      vertex 19.05 7.62939e-07 -88.9
      vertex 19.05 0 0
      vertex 19.05 0 -88.9
    endloop
  endfacet
  facet normal 0 1 -0
    outer loop
      vertex 19.05 412.75 -88.9
      vertex 0 412.75 0
      vertex 19.05 412.75 0
    endloop
  endfacet
  facet normal 0 1 0
    outer loop
      vertex 0 412.75 0
      vertex 19.05 412.75 -88.9
      vertex 0 412.75 -88.9
    endloop
  endfacet
  facet normal 0 1 -0
    outer loop
      vertex 590.55 19.05 -88.9
      vertex 19.05 19.05 0
      vertex 590.55 19.05 0
    endloop
  endfacet
  facet normal 0 1 0
    outer loop
      vertex 19.05 19.05 0
      vertex 590.55 19.05 -88.9
      vertex 19.05 19.05 -88.9
    endloop
  endfacet
  facet normal 0 -1 0
    outer loop
      vertex 19.05 7.62939e-07 -88.9
      vertex 590.55 7.62939e-07 0
      vertex 19.05 7.62939e-07 0
    endloop
  endfacet
  facet normal 0 -1 -0
    outer loop
      vertex 590.55 7.62939e-07 0
      vertex 19.05 7.62939e-07 -88.9
      vertex 590.55 7.62939e-07 -88.9
    endloop
  endfacet
  facet normal 0 1 -0
    outer loop
      vertex 609.6 412.75 -88.9
      vertex 19.05 412.75 0
      vertex 609.6 412.75 0
    endloop
  endfacet
  facet normal 0 1 0
    outer loop
      vertex 19.05 412.75 0
      vertex 609.6 412.75 -88.9
      vertex 19.05 412.75 -88.9
    endloop
  endfacet
  facet normal 0 -1 0
    outer loop
      vertex 19.05 393.7 -88.9
      vertex 590.55 393.7 0
      vertex 19.05 393.7 0
    endloop
  endfacet
  facet normal 0 -1 -0
    outer loop
      vertex 590.55 393.7 0
      vertex 19.05 393.7 -88.9
      vertex 590.55 393.7 -88.9
    endloop
  endfacet
  facet normal 0 0 -1
    outer loop
      vertex 609.6 412.75 0
      vertex 1219.2 450.85 0
      vertex 1219.2 412.75 0
    endloop
  endfacet
  facet normal -0 0 -1
    outer loop
      vertex 1219.2 450.85 0
      vertex 609.6 412.75 0
      vertex 609.6 450.85 0
    endloop
  endfacet
  facet normal 0 0 -1
    outer loop
      vertex 628.65 19.05 0
      vertex 1200.15 393.7 0
      vertex 1200.15 19.05 0
    endloop
  endfacet
  facet normal -0 0 -1
    outer loop
      vertex 1200.15 393.7 0
      vertex 628.65 19.05 0
      vertex 628.65 393.7 0
    endloop
  endfacet
  facet normal 0 0 -1
    outer loop
      vertex 628.65 0 0
      vertex 1200.15 7.62939e-07 0
      vertex 1200.15 0 0
    endloop
  endfacet
  facet normal -0 0 -1
    outer loop
      vertex 1200.15 7.62939e-07 0
      vertex 628.65 0 0
      vertex 628.65 7.62939e-07 0
    endloop
  endfacet
  facet normal 0 -1 0
    outer loop
      vertex 609.6 0 882.65
      vertex 628.65 0 803.275
      vertex 1219.2 0 882.65
    endloop
  endfacet
  facet normal 0 -1 0
    outer loop
      vertex 609.6 0 882.65
      vertex 628.65 0 79.375
      vertex 628.65 0 803.275
    endloop
  endfacet
  facet normal 0 -1 0
    outer loop
      vertex 628.65 0 79.375
      vertex 628.65 0 0
      vertex 1200.15 0 79.375
    endloop
  endfacet
  facet normal 0 -1 0
    outer loop
      vertex 609.6 0 -88.9
      vertex 628.65 0 79.375
      vertex 609.6 0 882.65
    endloop
  endfacet
  facet normal 0 -1 -0
    outer loop
      vertex 628.65 0 79.375
      vertex 609.6 0 -88.9
      vertex 628.65 0 0
    endloop
  endfacet
  facet normal 0 -1 -0
    outer loop
      vertex 628.65 0 0
      vertex 609.6 0 -88.9
      vertex 628.65 0 -88.9
    endloop
  endfacet
  facet normal 0 -1 0
    outer loop
      vertex 1200.15 0 803.275
      vertex 1219.2 0 882.65
      vertex 628.65 0 803.275
    endloop
  endfacet
  facet normal 0 -1 0
    outer loop
      vertex 1200.15 0 79.375
      vertex 1219.2 0 882.65
      vertex 1200.15 0 803.275
    endloop
  endfacet
  facet normal 0 -1 0
    outer loop
      vertex 1200.15 0 0
      vertex 1200.15 0 79.375
      vertex 628.65 0 0
    endloop
  endfacet
  facet normal 0 -1 0
    outer loop
      vertex 1219.2 0 -88.9
      vertex 1200.15 0 79.375
      vertex 1200.15 0 0
    endloop
  endfacet
  facet normal 0 -1 0
    outer loop
      vertex 1219.2 0 -88.9
      vertex 1200.15 0 0
      vertex 1200.15 0 -88.9
    endloop
  endfacet
  facet normal 0 -1 0
    outer loop
      vertex 1200.15 0 79.375
      vertex 1219.2 0 -88.9
      vertex 1219.2 0 882.65
    endloop
  endfacet
  facet normal -1 0 0
    outer loop
      vertex 1200.15 19.05 -88.9
      vertex 1200.15 393.7 0
      vertex 1200.15 393.7 -88.9
    endloop
  endfacet
  facet normal -1 -0 0
    outer loop
      vertex 1200.15 393.7 0
      vertex 1200.15 19.05 -88.9
      vertex 1200.15 19.05 0
    endloop
  endfacet
  facet normal -1 0 0
    outer loop
      vertex 1200.15 0 -88.9
      vertex 1200.15 7.62939e-07 0
      vertex 1200.15 7.62939e-07 -88.9
    endloop
  endfacet
  facet normal -1 -0 0
    outer loop
      vertex 1200.15 7.62939e-07 0
      vertex 1200.15 0 -88.9
      vertex 1200.15 0 0
    endloop
  endfacet
  facet normal 0 0 -1
    outer loop
      vertex 609.6 0 -88.9
      vertex 628.65 7.62939e-07 -88.9
      vertex 628.65 0 -88.9
    endloop
  endfacet
  facet normal -0 0 -1
    outer loop
      vertex 628.65 7.62939e-07 -88.9
      vertex 609.6 0 -88.9
      vertex 628.65 19.05 -88.9
    endloop
  endfacet
  facet normal -0 0 -1
    outer loop
      vertex 628.65 19.05 -88.9
      vertex 609.6 0 -88.9
      vertex 628.65 393.7 -88.9
    endloop
  endfacet
  facet normal 0 0 -1
    outer loop
      vertex 628.65 7.62939e-07 -88.9
      vertex 1200.15 19.05 -88.9
      vertex 1200.15 7.62939e-07 -88.9
    endloop
  endfacet
  facet normal -0 0 -1
    outer loop
      vertex 1200.15 19.05 -88.9
      vertex 628.65 7.62939e-07 -88.9
      vertex 628.65 19.05 -88.9
    endloop
  endfacet
  facet normal 0 0 -1
    outer loop
      vertex 1200.15 7.62939e-07 -88.9
      vertex 1219.2 0 -88.9
      vertex 1200.15 0 -88.9
    endloop
  endfacet
  facet normal 0 0 -1
    outer loop
      vertex 1200.15 19.05 -88.9
      vertex 1219.2 0 -88.9
      vertex 1200.15 7.62939e-07 -88.9
    endloop
  endfacet
  facet normal 0 0 -1
    outer loop
      vertex 1219.2 0 -88.9
      vertex 1200.15 19.05 -88.9
      vertex 1219.2 412.75 -88.9
    endloop
  endfacet
  facet normal 0 0 -1
    outer loop
      vertex 1200.15 393.7 -88.9
      vertex 1219.2 412.75 -88.9
      vertex 1200.15 19.05 -88.9
    endloop
  endfacet
  facet normal 0 0 -1
    outer loop
      vertex 628.65 393.7 -88.9
      vertex 1219.2 412.75 -88.9
      vertex 1200.15 393.7 -88.9
    endloop
  endfacet
  facet normal 0 0 -1
    outer loop
      vertex 628.65 393.7 -88.9
      vertex 609.6 412.75 -88.9
      vertex 1219.2 412.75 -88.9
    endloop
  endfacet
  facet normal 0 0 -1
    outer loop
      vertex 609.6 412.75 -88.9
      vertex 628.65 393.7 -88.9
      vertex 609.6 0 -88.9
    endloop
  endfacet
  facet normal 1 0 0
    outer loop
      vertex 1219.2 450.85 882.65
      vertex 1219.2 412.75 0
      vertex 1219.2 450.85 0
    endloop
  endfacet
  facet normal 1 -0 0
    outer loop
      vertex 1219.2 0 882.65
      vertex 1219.2 412.75 0
      vertex 1219.2 450.85 882.65
    endloop
  endfacet
  facet normal 1 0 0
    outer loop
      vertex 1219.2 0 -88.9
      vertex 1219.2 412.75 0
      vertex 1219.2 0 882.65
    endloop
  endfacet
  facet normal 1 0 0
    outer loop
      vertex 1219.2 412.75 0
      vertex 1219.2 0 -88.9
      vertex 1219.2 412.75 -88.9
    endloop
  endfacet
  facet normal -1 0 0
    outer loop
      vertex 609.6 412.75 -88.9
      vertex 609.6 0 -88.9
      vertex 609.6 412.75 0
    endloop
  endfacet
  facet normal -1 0 0
    outer loop
      vertex 609.6 412.75 0
      vertex 609.6 450.85 882.65
      vertex 609.6 450.85 0
    endloop
  endfacet
  facet normal -1 0 0
    outer loop
      vertex 609.6 0 882.65
      vertex 609.6 412.75 0
      vertex 609.6 0 -88.9
    endloop
  endfacet
  facet normal -1 0 0
    outer loop
      vertex 609.6 412.75 0
      vertex 609.6 0 882.65
      vertex 609.6 450.85 882.65
    endloop
  endfacet
  facet normal 1 -0 0
    outer loop
      vertex 628.65 19.05 0
      vertex 628.65 393.7 -88.9
      vertex 628.65 393.7 0
    endloop
  endfacet
  facet normal 1 0 0
    outer loop
      vertex 628.65 393.7 -88.9
      vertex 628.65 19.05 0
      vertex 628.65 19.05 -88.9
    endloop
  endfacet
  facet normal 1 -0 0
    outer loop
      vertex 628.65 0 0
      vertex 628.65 7.62939e-07 -88.9
      vertex 628.65 7.62939e-07 0
    endloop
  endfacet
  facet normal 1 0 0
    outer loop
      vertex 628.65 7.62939e-07 -88.9
      vertex 628.65 0 0
      vertex 628.65 0 -88.9
    endloop
  endfacet
  facet normal 0 1 -0
    outer loop
      vertex 1200.15 19.05 -88.9
      vertex 628.65 19.05 0
      vertex 1200.15 19.05 0
    endloop
  endfacet
  facet normal 0 1 0
    outer loop
      vertex 628.65 19.05 0
      vertex 1200.15 19.05 -88.9
      vertex 628.65 19.05 -88.9
    endloop
  endfacet
  facet normal 0 -1 0
    outer loop
      vertex 628.65 7.62939e-07 -88.9
      vertex 1200.15 7.62939e-07 0
      vertex 628.65 7.62939e-07 0
    endloop
  endfacet
  facet normal 0 -1 -0
    outer loop
      vertex 1200.15 7.62939e-07 0
      vertex 628.65 7.62939e-07 -88.9
      vertex 1200.15 7.62939e-07 -88.9
    endloop
  endfacet
  facet normal 0 1 -0
    outer loop
      vertex 1219.2 412.75 -88.9
      vertex 609.6 412.75 0
      vertex 1219.2 412.75 0
    endloop
  endfacet
  facet normal 0 1 0
    outer loop
      vertex 609.6 412.75 0
      vertex 1219.2 412.75 -88.9
      vertex 609.6 412.75 -88.9
    endloop
  endfacet
  facet normal 0 -1 0
    outer loop
      vertex 628.65 393.7 -88.9
      vertex 1200.15 393.7 0
      vertex 628.65 393.7 0
    endloop
  endfacet
  facet normal 0 -1 -0
    outer loop
      vertex 1200.15 393.7 0
      vertex 628.65 393.7 -88.9
      vertex 1200.15 393.7 -88.9
    endloop
  endfacet
  facet normal 0 0 -1
    outer loop
      vertex 1809.75 412.75 0
      vertex 1828.8 450.85 0
      vertex 1828.8 412.75 0
    endloop
  endfacet
  facet normal 0 0 -1
    outer loop
      vertex 1219.2 450.85 0
      vertex 1809.75 412.75 0
      vertex 1219.2 412.75 0
    endloop
  endfacet
  facet normal 0 0 -1
    outer loop
      vertex 1809.75 412.75 0
      vertex 1219.2 450.85 0
      vertex 1828.8 450.85 0
    endloop
  endfacet
  facet normal 0 0 -1
    outer loop
      vertex 1238.25 19.05 0
      vertex 1809.75 393.7 0
      vertex 1809.75 19.05 0
    endloop
  endfacet
  facet normal -0 0 -1
    outer loop
      vertex 1809.75 393.7 0
      vertex 1238.25 19.05 0
      vertex 1238.25 393.7 0
    endloop
  endfacet
  facet normal 0 0 -1
    outer loop
      vertex 1238.25 0 0
      vertex 1809.75 7.62939e-07 0
      vertex 1809.75 0 0
    endloop
  endfacet
  facet normal -0 0 -1
    outer loop
      vertex 1809.75 7.62939e-07 0
      vertex 1238.25 0 0
      vertex 1238.25 7.62939e-07 0
    endloop
  endfacet
  facet normal 0 -1 0
    outer loop
      vertex 1219.2 0 882.65
      vertex 1238.25 0 803.275
      vertex 1828.8 0 882.65
    endloop
  endfacet
  facet normal 0 -1 0
    outer loop
      vertex 1219.2 0 882.65
      vertex 1238.25 0 79.375
      vertex 1238.25 0 803.275
    endloop
  endfacet
  facet normal 0 -1 0
    outer loop
      vertex 1238.25 0 79.375
      vertex 1238.25 0 0
      vertex 1809.75 0 79.375
    endloop
  endfacet
  facet normal 0 -1 0
    outer loop
      vertex 1219.2 0 -88.9
      vertex 1238.25 0 79.375
      vertex 1219.2 0 882.65
    endloop
  endfacet
  facet normal 0 -1 -0
    outer loop
      vertex 1238.25 0 79.375
      vertex 1219.2 0 -88.9
      vertex 1238.25 0 0
    endloop
  endfacet
  facet normal 0 -1 -0
    outer loop
      vertex 1238.25 0 0
      vertex 1219.2 0 -88.9
      vertex 1238.25 0 -88.9
    endloop
  endfacet
  facet normal 0 -1 0
    outer loop
      vertex 1809.75 0 803.275
      vertex 1828.8 0 882.65
      vertex 1238.25 0 803.275
    endloop
  endfacet
  facet normal 0 -1 0
    outer loop
      vertex 1809.75 0 79.375
      vertex 1828.8 0 882.65
      vertex 1809.75 0 803.275
    endloop
  endfacet
  facet normal 0 -1 0
    outer loop
      vertex 1809.75 0 0
      vertex 1809.75 0 79.375
      vertex 1238.25 0 0
    endloop
  endfacet
  facet normal 0 -1 0
    outer loop
      vertex 1828.8 0 -88.9
      vertex 1809.75 0 79.375
      vertex 1809.75 0 0
    endloop
  endfacet
  facet normal 0 -1 0
    outer loop
      vertex 1828.8 0 -88.9
      vertex 1809.75 0 0
      vertex 1809.75 0 -88.9
    endloop
  endfacet
  facet normal 0 -1 0
    outer loop
      vertex 1809.75 0 79.375
      vertex 1828.8 0 -88.9
      vertex 1828.8 0 882.65
    endloop
  endfacet
  facet normal -1 0 0
    outer loop
      vertex 1809.75 19.05 -88.9
      vertex 1809.75 393.7 0
      vertex 1809.75 393.7 -88.9
    endloop
  endfacet
  facet normal -1 -0 0
    outer loop
      vertex 1809.75 393.7 0
      vertex 1809.75 19.05 -88.9
      vertex 1809.75 19.05 0
    endloop
  endfacet
  facet normal -1 0 0
    outer loop
      vertex 1809.75 0 -88.9
      vertex 1809.75 7.62939e-07 0
      vertex 1809.75 7.62939e-07 -88.9
    endloop
  endfacet
  facet normal -1 -0 0
    outer loop
      vertex 1809.75 7.62939e-07 0
      vertex 1809.75 0 -88.9
      vertex 1809.75 0 0
    endloop
  endfacet
  facet normal 0 0 -1
    outer loop
      vertex 1219.2 0 -88.9
      vertex 1238.25 7.62939e-07 -88.9
      vertex 1238.25 0 -88.9
    endloop
  endfacet
  facet normal -0 0 -1
    outer loop
      vertex 1238.25 7.62939e-07 -88.9
      vertex 1219.2 0 -88.9
      vertex 1238.25 19.05 -88.9
    endloop
  endfacet
  facet normal -0 0 -1
    outer loop
      vertex 1238.25 19.05 -88.9
      vertex 1219.2 0 -88.9
      vertex 1238.25 393.7 -88.9
    endloop
  endfacet
  facet normal 0 0 -1
    outer loop
      vertex 1238.25 7.62939e-07 -88.9
      vertex 1809.75 19.05 -88.9
      vertex 1809.75 7.62939e-07 -88.9
    endloop
  endfacet
  facet normal -0 0 -1
    outer loop
      vertex 1809.75 19.05 -88.9
      vertex 1238.25 7.62939e-07 -88.9
      vertex 1238.25 19.05 -88.9
    endloop
  endfacet
  facet normal 0 0 -1
    outer loop
      vertex 1809.75 7.62939e-07 -88.9
      vertex 1828.8 0 -88.9
      vertex 1809.75 0 -88.9
    endloop
  endfacet
  facet normal 0 0 -1
    outer loop
      vertex 1809.75 19.05 -88.9
      vertex 1828.8 0 -88.9
      vertex 1809.75 7.62939e-07 -88.9
    endloop
  endfacet
  facet normal 0 0 -1
    outer loop
      vertex 1828.8 0 -88.9
      vertex 1809.75 19.05 -88.9
      vertex 1828.8 412.75 -88.9
    endloop
  endfacet
  facet normal 0 0 -1
    outer loop
      vertex 1809.75 393.7 -88.9
      vertex 1828.8 412.75 -88.9
      vertex 1809.75 19.05 -88.9
    endloop
  endfacet
  facet normal 0 0 -1
    outer loop
      vertex 1809.75 393.7 -88.9
      vertex 1809.75 412.75 -88.9
      vertex 1828.8 412.75 -88.9
    endloop
  endfacet
  facet normal 0 0 -1
    outer loop
      vertex 1238.25 393.7 -88.9
      vertex 1809.75 412.75 -88.9
      vertex 1809.75 393.7 -88.9
    endloop
  endfacet
  facet normal 0 0 -1
    outer loop
      vertex 1238.25 393.7 -88.9
      vertex 1219.2 412.75 -88.9
      vertex 1809.75 412.75 -88.9
    endloop
  endfacet
  facet normal 0 0 -1
    outer loop
      vertex 1219.2 412.75 -88.9
      vertex 1238.25 393.7 -88.9
      vertex 1219.2 0 -88.9
    endloop
  endfacet
  facet normal 1 0 0
    outer loop
      vertex 1828.8 450.85 882.65
      vertex 1828.8 412.75 0
      vertex 1828.8 450.85 0
    endloop
  endfacet
  facet normal 1 -0 0
    outer loop
      vertex 1828.8 0 882.65
      vertex 1828.8 412.75 0
      vertex 1828.8 450.85 882.65
    endloop
  endfacet
  facet normal 1 0 0
    outer loop
      vertex 1828.8 0 -88.9
      vertex 1828.8 412.75 0
      vertex 1828.8 0 882.65
    endloop
  endfacet
  facet normal 1 0 0
    outer loop
      vertex 1828.8 412.75 0
      vertex 1828.8 0 -88.9
      vertex 1828.8 412.75 -88.9
    endloop
  endfacet
  facet normal 0 1 -0
    outer loop
      vertex 1828.8 412.75 -88.9
      vertex 1809.75 412.75 0
      vertex 1828.8 412.75 0
    endloop
  endfacet
  facet normal 0 1 0
    outer loop
      vertex 1809.75 412.75 0
      vertex 1828.8 412.75 -88.9
      vertex 1809.75 412.75 -88.9
    endloop
  endfacet
  facet normal -1 0 0
    outer loop
      vertex 1219.2 412.75 -88.9
      vertex 1219.2 0 -88.9
      vertex 1219.2 412.75 0
    endloop
  endfacet
  facet normal -1 0 0
    outer loop
      vertex 1219.2 412.75 0
      vertex 1219.2 450.85 882.65
      vertex 1219.2 450.85 0
    endloop
  endfacet
  facet normal -1 0 0
    outer loop
      vertex 1219.2 0 882.65
      vertex 1219.2 412.75 0
      vertex 1219.2 0 -88.9
    endloop
  endfacet
  facet normal -1 0 0
    outer loop
      vertex 1219.2 412.75 0
      vertex 1219.2 0 882.65
      vertex 1219.2 450.85 882.65
    endloop
  endfacet
  facet normal 1 -0 0
    outer loop
      vertex 1238.25 19.05 0
      vertex 1238.25 393.7 -88.9
      vertex 1238.25 393.7 0
    endloop
  endfacet
  facet normal 1 0 0
    outer loop
      vertex 1238.25 393.7 -88.9
      vertex 1238.25 19.05 0
      vertex 1238.25 19.05 -88.9
    endloop
  endfacet
  facet normal 1 -0 0
    outer loop
      vertex 1238.25 0 0
      vertex 1238.25 7.62939e-07 -88.9
      vertex 1238.25 7.62939e-07 0
    endloop
  endfacet
  facet normal 1 0 0
    outer loop
      vertex 1238.25 7.62939e-07 -88.9
      vertex 1238.25 0 0
      vertex 1238.25 0 -88.9
    endloop
  endfacet
  facet normal 0 1 -0
    outer loop
      vertex 1809.75 19.05 -88.9
      vertex 1238.25 19.05 0
      vertex 1809.75 19.05 0
    endloop
  endfacet
  facet normal 0 1 0
    outer loop
      vertex 1238.25 19.05 0
      vertex 1809.75 19.05 -88.9
      vertex 1238.25 19.05 -88.9
    endloop
  endfacet
  facet normal 0 -1 0
    outer loop
      vertex 1238.25 7.62939e-07 -88.9
      vertex 1809.75 7.62939e-07 0
      vertex 1238.25 7.62939e-07 0
    endloop
  endfacet
  facet normal 0 -1 -0
    outer loop
      vertex 1809.75 7.62939e-07 0
      vertex 1238.25 7.62939e-07 -88.9
      vertex 1809.75 7.62939e-07 -88.9
    endloop
  endfacet
  facet normal 0 1 -0
    outer loop
      vertex 1809.75 412.75 -88.9
      vertex 1219.2 412.75 0
      vertex 1809.75 412.75 0
    endloop
  endfacet
  facet normal 0 1 0
    outer loop
      vertex 1219.2 412.75 0
      vertex 1809.75 412.75 -88.9
      vertex 1219.2 412.75 -88.9
    endloop
  endfacet
  facet normal 0 -1 0
    outer loop
      vertex 1238.25 393.7 -88.9
      vertex 1809.75 393.7 0
      vertex 1238.25 393.7 0
    endloop
  endfacet
  facet normal 0 -1 -0
    outer loop
      vertex 1809.75 393.7 0
      vertex 1238.25 393.7 -88.9
      vertex 1809.75 393.7 -88.9
    endloop
  endfacet
  facet normal -1 0 0
    outer loop
      vertex 590.55 0 79.375
      vertex 590.55 19.05 803.275
      vertex 590.55 19.05 79.375
    endloop
  endfacet
  facet normal -1 -0 0
    outer loop
      vertex 590.55 19.05 803.275
      vertex 590.55 0 79.375
      vertex 590.55 0 803.275
    endloop
  endfacet
  facet normal -0 0 1
    outer loop
      vertex 19.05 19.05 79.375
      vertex 590.55 0 79.375
      vertex 590.55 19.05 79.375
    endloop
  endfacet
  facet normal 0 0 1
    outer loop
      vertex 590.55 0 79.375
      vertex 19.05 19.05 79.375
      vertex 19.05 0 79.375
    endloop
  endfacet
  facet normal 1 -0 0
    outer loop
      vertex 19.05 0 803.275
      vertex 19.05 19.05 79.375
      vertex 19.05 19.05 803.275
    endloop
  endfacet
  facet normal 1 0 0
    outer loop
      vertex 19.05 19.05 79.375
      vertex 19.05 0 803.275
      vertex 19.05 0 79.375
    endloop
  endfacet
  facet normal 0 -1 0
    outer loop
      vertex 19.05 19.05 79.375
      vertex 590.55 19.05 803.275
      vertex 19.05 19.05 803.275
    endloop
  endfacet
  facet normal 0 -1 -0
    outer loop
      vertex 590.55 19.05 803.275
      vertex 19.05 19.05 79.375
      vertex 590.55 19.05 79.375
    endloop
  endfacet
  facet normal 0 0 -1
    outer loop
      vertex 590.55 25.4 882.65
      vertex 38.1 450.85 882.65
      vertex 590.55 450.85 882.65
    endloop
  endfacet
  facet normal 0 0 -1
    outer loop
      vertex 19.05 450.85 882.65
      vertex 38.1 450.85 882.65
      vertex 19.05 25.4 882.65
    endloop
  endfacet
  facet normal 0 0 -1
    outer loop
      vertex 19.05 25.4 882.65
      vertex 38.1 450.85 882.65
      vertex 590.55 25.4 882.65
    endloop
  endfacet
  facet normal 0 0 -1
    outer loop
      vertex 628.65 25.4 882.65
      vertex 1200.15 450.85 882.65
      vertex 1200.15 25.4 882.65
    endloop
  endfacet
  facet normal -0 0 -1
    outer loop
      vertex 1200.15 450.85 882.65
      vertex 628.65 25.4 882.65
      vertex 628.65 450.85 882.65
    endloop
  endfacet
  facet normal 0 0 -1
    outer loop
      vertex 1809.75 25.4 882.65
      vertex 1790.7 450.85 882.65
      vertex 1809.75 450.85 882.65
    endloop
  endfacet
  facet normal 0 0 -1
    outer loop
      vertex 1238.25 25.4 882.65
      vertex 1790.7 450.85 882.65
      vertex 1809.75 25.4 882.65
    endloop
  endfacet
  facet normal -0 0 -1
    outer loop
      vertex 1790.7 450.85 882.65
      vertex 1238.25 25.4 882.65
      vertex 1238.25 450.85 882.65
    endloop
  endfacet
  facet normal 0 0 -1
    outer loop
      vertex 1828.8 450.85 882.65
      vertex 1847.85 -19.05 882.65
      vertex 1828.8 0 882.65
    endloop
  endfacet
  facet normal 0 0 -1
    outer loop
      vertex 1847.85 -19.05 882.65
      vertex 1219.2 0 882.65
      vertex 1828.8 0 882.65
    endloop
  endfacet
  facet normal 0 0 -1
    outer loop
      vertex 1847.85 -19.05 882.65
      vertex 609.6 0 882.65
      vertex 1219.2 0 882.65
    endloop
  endfacet
  facet normal 0 0 -1
    outer loop
      vertex -19.05 -19.05 882.65
      vertex 609.6 0 882.65
      vertex 1847.85 -19.05 882.65
    endloop
  endfacet
  facet normal -0 0 -1
    outer loop
      vertex 0 0 882.65
      vertex -19.05 -19.05 882.65
      vertex 0 450.85 882.65
    endloop
  endfacet
  facet normal -0 0 -1
    outer loop
      vertex 609.6 0 882.65
      vertex -19.05 -19.05 882.65
      vertex 0 0 882.65
    endloop
  endfacet
  facet normal 0 0 -1
    outer loop
      vertex 1847.85 -19.05 882.65
      vertex 1828.8 450.85 882.65
      vertex 1847.85 488.95 882.65
    endloop
  endfacet
  facet normal 0 0 -1
    outer loop
      vertex 1809.75 450.85 882.65
      vertex 1847.85 488.95 882.65
      vertex 1828.8 450.85 882.65
    endloop
  endfacet
  facet normal 0 0 -1
    outer loop
      vertex 1790.7 469.9 882.65
      vertex 1809.75 450.85 882.65
      vertex 1790.7 450.85 882.65
    endloop
  endfacet
  facet normal 0 0 -1
    outer loop
      vertex 1809.75 450.85 882.65
      vertex 1790.7 469.9 882.65
      vertex 1847.85 488.95 882.65
    endloop
  endfacet
  facet normal 0 0 -1
    outer loop
      vertex 38.1 469.9 882.65
      vertex 1847.85 488.95 882.65
      vertex 1790.7 469.9 882.65
    endloop
  endfacet
  facet normal 0 0 -1
    outer loop
      vertex 38.1 450.85 882.65
      vertex 19.05 450.85 882.65
      vertex 38.1 469.9 882.65
    endloop
  endfacet
  facet normal 0 0 -1
    outer loop
      vertex 0 450.85 882.65
      vertex 38.1 469.9 882.65
      vertex 19.05 450.85 882.65
    endloop
  endfacet
  facet normal 0 0 -1
    outer loop
      vertex 38.1 469.9 882.65
      vertex -19.05 488.95 882.65
      vertex 1847.85 488.95 882.65
    endloop
  endfacet
  facet normal 0 0 -1
    outer loop
      vertex 0 450.85 882.65
      vertex -19.05 488.95 882.65
      vertex 38.1 469.9 882.65
    endloop
  endfacet
  facet normal 0 0 -1
    outer loop
      vertex -19.05 488.95 882.65
      vertex 0 450.85 882.65
      vertex -19.05 -19.05 882.65
    endloop
  endfacet
  facet normal 0 0 0
    outer loop
      vertex 1200.15 450.85 882.65
      vertex 628.65 450.85 882.65
      vertex 609.6 450.85 882.65
    endloop
  endfacet
  facet normal 0 0 0
    outer loop
      vertex 1790.7 450.85 882.65
      vertex 1238.25 450.85 882.65
      vertex 1219.2 450.85 882.65
    endloop
  endfacet
  facet normal 0 0 0
    outer loop
      vertex 1790.7 450.85 882.65
      vertex 1219.2 450.85 882.65
      vertex 1200.15 450.85 882.65
    endloop
  endfacet
  facet normal 0 0 0
    outer loop
      vertex 1200.15 450.85 882.65
      vertex 609.6 450.85 882.65
      vertex 590.55 450.85 882.65
    endloop
  endfacet
  facet normal 0 0 -0
    outer loop
      vertex 590.55 450.85 882.65
      vertex 38.1 450.85 882.65
      vertex 1790.7 450.85 882.65
    endloop
  endfacet
  facet normal 0 0 -0
    outer loop
      vertex 1200.15 450.85 882.65
      vertex 590.55 450.85 882.65
      vertex 1790.7 450.85 882.65
    endloop
  endfacet
  facet normal 0 0 -1
    outer loop
      vertex 19.05 0 803.275
      vertex 590.55 19.05 803.275
      vertex 590.55 0 803.275
    endloop
  endfacet
  facet normal -0 0 -1
    outer loop
      vertex 590.55 19.05 803.275
      vertex 19.05 0 803.275
      vertex 19.05 19.05 803.275
    endloop
  endfacet
  facet normal -1 0 0
    outer loop
      vertex 590.55 450.85 654.05
      vertex 590.55 371.475 863.6
      vertex 590.55 450.85 863.6
    endloop
  endfacet
  facet normal -1 0 0
    outer loop
      vertex 590.55 371.475 863.6
      vertex 590.55 104.775 863.6
      vertex 590.55 371.475 882.65
    endloop
  endfacet
  facet normal -1 0 0
    outer loop
      vertex 590.55 450.85 654.05
      vertex 590.55 104.775 863.6
      vertex 590.55 371.475 863.6
    endloop
  endfacet
  facet normal -1 0 0
    outer loop
      vertex 590.55 25.4 654.05
      vertex 590.55 104.775 863.6
      vertex 590.55 450.85 654.05
    endloop
  endfacet
  facet normal -1 -0 0
    outer loop
      vertex 590.55 104.775 863.6
      vertex 590.55 25.4 654.05
      vertex 590.55 25.4 863.6
    endloop
  endfacet
  facet normal -1 -0 0
    outer loop
      vertex 590.55 371.475 882.65
      vertex 590.55 104.775 863.6
      vertex 590.55 104.775 882.65
    endloop
  endfacet
  facet normal -1 0 0
    outer loop
      vertex 590.55 25.4 19.05
      vertex 590.55 450.85 635
      vertex 590.55 450.85 19.05
    endloop
  endfacet
  facet normal -1 -0 0
    outer loop
      vertex 590.55 450.85 635
      vertex 590.55 25.4 19.05
      vertex 590.55 25.4 635
    endloop
  endfacet
  facet normal 0 -0 0
    outer loop
      vertex 590.55 25.4 635
      vertex 590.55 25.4 19.05
      vertex 590.55 25.4 882.65
    endloop
  endfacet
  facet normal 0 0 0
    outer loop
      vertex 590.55 25.4 863.6
      vertex 590.55 25.4 654.05
      vertex 590.55 25.4 635
    endloop
  endfacet
  facet normal 0 0 0
    outer loop
      vertex 590.55 25.4 882.65
      vertex 590.55 450.85 882.65
      vertex 590.55 371.475 882.65
    endloop
  endfacet
  facet normal 0 0 0
    outer loop
      vertex 590.55 371.475 882.65
      vertex 590.55 104.775 882.65
      vertex 590.55 25.4 882.65
    endloop
  endfacet
  facet normal 0 0 0
    outer loop
      vertex 590.55 25.4 635
      vertex 590.55 25.4 882.65
      vertex 590.55 25.4 863.6
    endloop
  endfacet
  facet normal -0 0 1
    outer loop
      vertex 19.05 104.775 882.65
      vertex 590.55 25.4 882.65
      vertex 590.55 104.775 882.65
    endloop
  endfacet
  facet normal 0 0 1
    outer loop
      vertex 590.55 25.4 882.65
      vertex 19.05 104.775 882.65
      vertex 19.05 25.4 882.65
    endloop
  endfacet
  facet normal 0 0 -1
    outer loop
      vertex 19.05 25.4 863.6
      vertex 590.55 104.775 863.6
      vertex 590.55 25.4 863.6
    endloop
  endfacet
  facet normal -0 0 -1
    outer loop
      vertex 590.55 104.775 863.6
      vertex 19.05 25.4 863.6
      vertex 19.05 104.775 863.6
    endloop
  endfacet
  facet normal 1 -0 0
    outer loop
      vertex 19.05 25.4 635
      vertex 19.05 450.85 19.05
      vertex 19.05 450.85 635
    endloop
  endfacet
  facet normal 1 0 0
    outer loop
      vertex 19.05 450.85 19.05
      vertex 19.05 25.4 635
      vertex 19.05 25.4 19.05
    endloop
  endfacet
  facet normal 1 0 0
    outer loop
      vertex 19.05 371.475 882.65
      vertex 19.05 104.775 882.65
      vertex 19.05 371.475 863.6
    endloop
  endfacet
  facet normal 1 -0 0
    outer loop
      vertex 19.05 371.475 863.6
      vertex 19.05 450.85 654.05
      vertex 19.05 450.85 863.6
    endloop
  endfacet
  facet normal 1 0 0
    outer loop
      vertex 19.05 104.775 863.6
      vertex 19.05 371.475 863.6
      vertex 19.05 104.775 882.65
    endloop
  endfacet
  facet normal 1 0 0
    outer loop
      vertex 19.05 371.475 863.6
      vertex 19.05 104.775 863.6
      vertex 19.05 450.85 654.05
    endloop
  endfacet
  facet normal 1 0 0
    outer loop
      vertex 19.05 25.4 654.05
      vertex 19.05 104.775 863.6
      vertex 19.05 25.4 863.6
    endloop
  endfacet
  facet normal 1 0 0
    outer loop
      vertex 19.05 104.775 863.6
      vertex 19.05 25.4 654.05
      vertex 19.05 450.85 654.05
    endloop
  endfacet
  facet normal 0 0 0
    outer loop
      vertex 19.05 104.775 882.65
      vertex 19.05 371.475 882.65
      vertex 19.05 450.85 882.65
    endloop
  endfacet
  facet normal 0 0 -0
    outer loop
      vertex 19.05 104.775 882.65
      vertex 19.05 450.85 882.65
      vertex 19.05 25.4 882.65
    endloop
  endfacet
  facet normal 0 0 0
    outer loop
      vertex 19.05 25.4 654.05
      vertex 19.05 25.4 863.6
      vertex 19.05 25.4 882.65
    endloop
  endfacet
  facet normal 0 0 0
    outer loop
      vertex 19.05 25.4 19.05
      vertex 19.05 25.4 635
      vertex 19.05 25.4 654.05
    endloop
  endfacet
  facet normal 0 0 0
    outer loop
      vertex 19.05 25.4 882.65
      vertex 19.05 25.4 19.05
      vertex 19.05 25.4 654.05
    endloop
  endfacet
  facet normal 0 1 -0
    outer loop
      vertex 590.55 104.775 863.6
      vertex 19.05 104.775 882.65
      vertex 590.55 104.775 882.65
    endloop
  endfacet
  facet normal 0 1 0
    outer loop
      vertex 19.05 104.775 882.65
      vertex 590.55 104.775 863.6
      vertex 19.05 104.775 863.6
    endloop
  endfacet
  facet normal 0 -1 0
    outer loop
      vertex 19.05 25.4 863.6
      vertex 590.55 25.4 882.65
      vertex 19.05 25.4 882.65
    endloop
  endfacet
  facet normal 0 -1 -0
    outer loop
      vertex 590.55 25.4 882.65
      vertex 19.05 25.4 863.6
      vertex 590.55 25.4 863.6
    endloop
  endfacet
  facet normal -0 0 1
    outer loop
      vertex 19.05 450.85 882.65
      vertex 590.55 371.475 882.65
      vertex 590.55 450.85 882.65
    endloop
  endfacet
  facet normal 0 0 1
    outer loop
      vertex 590.55 371.475 882.65
      vertex 19.05 450.85 882.65
      vertex 19.05 371.475 882.65
    endloop
  endfacet
  facet normal 0 0 -1
    outer loop
      vertex 19.05 371.475 863.6
      vertex 590.55 450.85 863.6
      vertex 590.55 371.475 863.6
    endloop
  endfacet
  facet normal -0 0 -1
    outer loop
      vertex 590.55 450.85 863.6
      vertex 19.05 371.475 863.6
      vertex 19.05 450.85 863.6
    endloop
  endfacet
  facet normal 0 1 -0
    outer loop
      vertex 590.55 450.85 863.6
      vertex 19.05 450.85 882.65
      vertex 590.55 450.85 882.65
    endloop
  endfacet
  facet normal 0 1 0
    outer loop
      vertex 19.05 450.85 882.65
      vertex 590.55 450.85 863.6
      vertex 19.05 450.85 863.6
    endloop
  endfacet
  facet normal 0 -1 0
    outer loop
      vertex 19.05 371.475 863.6
      vertex 590.55 371.475 882.65
      vertex 19.05 371.475 882.65
    endloop
  endfacet
  facet normal 0 -1 -0
    outer loop
      vertex 590.55 371.475 882.65
      vertex 19.05 371.475 863.6
      vertex 590.55 371.475 863.6
    endloop
  endfacet
  facet normal 0 1 -0
    outer loop
      vertex 590.55 25.4 19.05
      vertex 19.05 25.4 882.65
      vertex 590.55 25.4 882.65
    endloop
  endfacet
  facet normal 0 1 0
    outer loop
      vertex 19.05 25.4 882.65
      vertex 590.55 25.4 19.05
      vertex 19.05 25.4 19.05
    endloop
  endfacet
  facet normal -1 0 0
    outer loop
      vertex 1200.15 0 79.375
      vertex 1200.15 19.05 803.275
      vertex 1200.15 19.05 79.375
    endloop
  endfacet
  facet normal -1 -0 0
    outer loop
      vertex 1200.15 19.05 803.275
      vertex 1200.15 0 79.375
      vertex 1200.15 0 803.275
    endloop
  endfacet
  facet normal -0 0 1
    outer loop
      vertex 628.65 19.05 79.375
      vertex 1200.15 0 79.375
      vertex 1200.15 19.05 79.375
    endloop
  endfacet
  facet normal 0 0 1
    outer loop
      vertex 1200.15 0 79.375
      vertex 628.65 19.05 79.375
      vertex 628.65 0 79.375
    endloop
  endfacet
  facet normal 1 -0 0
    outer loop
      vertex 628.65 0 803.275
      vertex 628.65 19.05 79.375
      vertex 628.65 19.05 803.275
    endloop
  endfacet
  facet normal 1 0 0
    outer loop
      vertex 628.65 19.05 79.375
      vertex 628.65 0 803.275
      vertex 628.65 0 79.375
    endloop
  endfacet
  facet normal 0 -1 0
    outer loop
      vertex 628.65 19.05 79.375
      vertex 1200.15 19.05 803.275
      vertex 628.65 19.05 803.275
    endloop
  endfacet
  facet normal 0 -1 -0
    outer loop
      vertex 1200.15 19.05 803.275
      vertex 628.65 19.05 79.375
      vertex 1200.15 19.05 79.375
    endloop
  endfacet
  facet normal 0 0 -1
    outer loop
      vertex 628.65 0 803.275
      vertex 1200.15 19.05 803.275
      vertex 1200.15 0 803.275
    endloop
  endfacet
  facet normal -0 0 -1
    outer loop
      vertex 1200.15 19.05 803.275
      vertex 628.65 0 803.275
      vertex 628.65 19.05 803.275
    endloop
  endfacet
  facet normal -1 0 0
    outer loop
      vertex 1200.15 450.85 476.25
      vertex 1200.15 371.475 863.6
      vertex 1200.15 450.85 863.6
    endloop
  endfacet
  facet normal -1 0 0
    outer loop
      vertex 1200.15 371.475 863.6
      vertex 1200.15 104.775 863.6
      vertex 1200.15 371.475 882.65
    endloop
  endfacet
  facet normal -1 0 0
    outer loop
      vertex 1200.15 450.85 476.25
      vertex 1200.15 104.775 863.6
      vertex 1200.15 371.475 863.6
    endloop
  endfacet
  facet normal -1 0 0
    outer loop
      vertex 1200.15 25.4 476.25
      vertex 1200.15 104.775 863.6
      vertex 1200.15 450.85 476.25
    endloop
  endfacet
  facet normal -1 -0 0
    outer loop
      vertex 1200.15 104.775 863.6
      vertex 1200.15 25.4 476.25
      vertex 1200.15 25.4 863.6
    endloop
  endfacet
  facet normal -1 -0 0
    outer loop
      vertex 1200.15 371.475 882.65
      vertex 1200.15 104.775 863.6
      vertex 1200.15 104.775 882.65
    endloop
  endfacet
  facet normal -1 0 0
    outer loop
      vertex 1200.15 25.4 19.05
      vertex 1200.15 450.85 457.2
      vertex 1200.15 450.85 19.05
    endloop
  endfacet
  facet normal -1 -0 0
    outer loop
      vertex 1200.15 450.85 457.2
      vertex 1200.15 25.4 19.05
      vertex 1200.15 25.4 457.2
    endloop
  endfacet
  facet normal 0 -0 0
    outer loop
      vertex 1200.15 25.4 457.2
      vertex 1200.15 25.4 19.05
      vertex 1200.15 25.4 882.65
    endloop
  endfacet
  facet normal 0 0 0
    outer loop
      vertex 1200.15 25.4 882.65
      vertex 1200.15 450.85 882.65
      vertex 1200.15 371.475 882.65
    endloop
  endfacet
  facet normal 0 0 0
    outer loop
      vertex 1200.15 371.475 882.65
      vertex 1200.15 104.775 882.65
      vertex 1200.15 25.4 882.65
    endloop
  endfacet
  facet normal 0 -0 0
    outer loop
      vertex 1200.15 25.4 476.25
      vertex 1200.15 25.4 457.2
      vertex 1200.15 25.4 882.65
    endloop
  endfacet
  facet normal 0 -0 0
    outer loop
      vertex 1200.15 25.4 863.6
      vertex 1200.15 25.4 476.25
      vertex 1200.15 25.4 882.65
    endloop
  endfacet
  facet normal -0 0 1
    outer loop
      vertex 628.65 104.775 882.65
      vertex 1200.15 25.4 882.65
      vertex 1200.15 104.775 882.65
    endloop
  endfacet
  facet normal 0 0 1
    outer loop
      vertex 1200.15 25.4 882.65
      vertex 628.65 104.775 882.65
      vertex 628.65 25.4 882.65
    endloop
  endfacet
  facet normal 0 0 -1
    outer loop
      vertex 628.65 25.4 863.6
      vertex 1200.15 104.775 863.6
      vertex 1200.15 25.4 863.6
    endloop
  endfacet
  facet normal -0 0 -1
    outer loop
      vertex 1200.15 104.775 863.6
      vertex 628.65 25.4 863.6
      vertex 628.65 104.775 863.6
    endloop
  endfacet
  facet normal 1 -0 0
    outer loop
      vertex 628.65 25.4 457.2
      vertex 628.65 450.85 19.05
      vertex 628.65 450.85 457.2
    endloop
  endfacet
  facet normal 1 0 0
    outer loop
      vertex 628.65 450.85 19.05
      vertex 628.65 25.4 457.2
      vertex 628.65 25.4 19.05
    endloop
  endfacet
  facet normal 1 0 0
    outer loop
      vertex 628.65 371.475 882.65
      vertex 628.65 104.775 882.65
      vertex 628.65 371.475 863.6
    endloop
  endfacet
  facet normal 1 -0 0
    outer loop
      vertex 628.65 371.475 863.6
      vertex 628.65 450.85 476.25
      vertex 628.65 450.85 863.6
    endloop
  endfacet
  facet normal 1 0 0
    outer loop
      vertex 628.65 104.775 863.6
      vertex 628.65 371.475 863.6
      vertex 628.65 104.775 882.65
    endloop
  endfacet
  facet normal 1 0 0
    outer loop
      vertex 628.65 371.475 863.6
      vertex 628.65 104.775 863.6
      vertex 628.65 450.85 476.25
    endloop
  endfacet
  facet normal 1 0 0
    outer loop
      vertex 628.65 25.4 476.25
      vertex 628.65 104.775 863.6
      vertex 628.65 25.4 863.6
    endloop
  endfacet
  facet normal 1 0 0
    outer loop
      vertex 628.65 104.775 863.6
      vertex 628.65 25.4 476.25
      vertex 628.65 450.85 476.25
    endloop
  endfacet
  facet normal 0 0 0
    outer loop
      vertex 628.65 104.775 882.65
      vertex 628.65 371.475 882.65
      vertex 628.65 450.85 882.65
    endloop
  endfacet
  facet normal 0 0 0
    outer loop
      vertex 628.65 25.4 882.65
      vertex 628.65 104.775 882.65
      vertex 628.65 450.85 882.65
    endloop
  endfacet
  facet normal 0 0 0
    outer loop
      vertex 628.65 25.4 19.05
      vertex 628.65 25.4 457.2
      vertex 628.65 25.4 476.25
    endloop
  endfacet
  facet normal 0 0 0
    outer loop
      vertex 628.65 25.4 476.25
      vertex 628.65 25.4 863.6
      vertex 628.65 25.4 882.65
    endloop
  endfacet
  facet normal 0 0 0
    outer loop
      vertex 628.65 25.4 882.65
      vertex 628.65 25.4 19.05
      vertex 628.65 25.4 476.25
    endloop
  endfacet
  facet normal 0 1 -0
    outer loop
      vertex 1200.15 104.775 863.6
      vertex 628.65 104.775 882.65
      vertex 1200.15 104.775 882.65
    endloop
  endfacet
  facet normal 0 1 0
    outer loop
      vertex 628.65 104.775 882.65
      vertex 1200.15 104.775 863.6
      vertex 628.65 104.775 863.6
    endloop
  endfacet
  facet normal 0 -1 0
    outer loop
      vertex 628.65 25.4 863.6
      vertex 1200.15 25.4 882.65
      vertex 628.65 25.4 882.65
    endloop
  endfacet
  facet normal 0 -1 -0
    outer loop
      vertex 1200.15 25.4 882.65
      vertex 628.65 25.4 863.6
      vertex 1200.15 25.4 863.6
    endloop
  endfacet
  facet normal -0 0 1
    outer loop
      vertex 628.65 450.85 882.65
      vertex 1200.15 371.475 882.65
      vertex 1200.15 450.85 882.65
    endloop
  endfacet
  facet normal 0 0 1
    outer loop
      vertex 1200.15 371.475 882.65
      vertex 628.65 450.85 882.65
      vertex 628.65 371.475 882.65
    endloop
  endfacet
  facet normal 0 0 -1
    outer loop
      vertex 628.65 371.475 863.6
      vertex 1200.15 450.85 863.6
      vertex 1200.15 371.475 863.6
    endloop
  endfacet
  facet normal -0 0 -1
    outer loop
      vertex 1200.15 450.85 863.6
      vertex 628.65 371.475 863.6
      vertex 628.65 450.85 863.6
    endloop
  endfacet
  facet normal 0 1 -0
    outer loop
      vertex 1200.15 450.85 863.6
      vertex 628.65 450.85 882.65
      vertex 1200.15 450.85 882.65
    endloop
  endfacet
  facet normal 0 1 0
    outer loop
      vertex 628.65 450.85 882.65
      vertex 1200.15 450.85 863.6
      vertex 628.65 450.85 863.6
    endloop
  endfacet
  facet normal 0 -1 0
    outer loop
      vertex 628.65 371.475 863.6
      vertex 1200.15 371.475 882.65
      vertex 628.65 371.475 882.65
    endloop
  endfacet
  facet normal 0 -1 -0
    outer loop
      vertex 1200.15 371.475 882.65
      vertex 628.65 371.475 863.6
      vertex 1200.15 371.475 863.6
    endloop
  endfacet
  facet normal 0 1 -0
    outer loop
      vertex 1200.15 25.4 19.05
      vertex 628.65 25.4 882.65
      vertex 1200.15 25.4 882.65
    endloop
  endfacet
  facet normal 0 1 0
    outer loop
      vertex 628.65 25.4 882.65
      vertex 1200.15 25.4 19.05
      vertex 628.65 25.4 19.05
    endloop
  endfacet
  facet normal -1 0 0
    outer loop
      vertex 1809.75 0 79.375
      vertex 1809.75 19.05 803.275
      vertex 1809.75 19.05 79.375
    endloop
  endfacet
  facet normal -1 -0 0
    outer loop
      vertex 1809.75 19.05 803.275
      vertex 1809.75 0 79.375
      vertex 1809.75 0 803.275
    endloop
  endfacet
  facet normal -0 0 1
    outer loop
      vertex 1238.25 19.05 79.375
      vertex 1809.75 0 79.375
      vertex 1809.75 19.05 79.375
    endloop
  endfacet
  facet normal 0 0 1
    outer loop
      vertex 1809.75 0 79.375
      vertex 1238.25 19.05 79.375
      vertex 1238.25 0 79.375
    endloop
  endfacet
  facet normal 1 -0 0
    outer loop
      vertex 1238.25 0 803.275
      vertex 1238.25 19.05 79.375
      vertex 1238.25 19.05 803.275
    endloop
  endfacet
  facet normal 1 0 0
    outer loop
      vertex 1238.25 19.05 79.375
      vertex 1238.25 0 803.275
      vertex 1238.25 0 79.375
    endloop
  endfacet
  facet normal 0 -1 0
    outer loop
      vertex 1238.25 19.05 79.375
      vertex 1809.75 19.05 803.275
      vertex 1238.25 19.05 803.275
    endloop
  endfacet
  facet normal 0 -1 -0
    outer loop
      vertex 1809.75 19.05 803.275
      vertex 1238.25 19.05 79.375
      vertex 1809.75 19.05 79.375
    endloop
  endfacet
  facet normal 0 0 -1
    outer loop
      vertex 1238.25 0 803.275
      vertex 1809.75 19.05 803.275
      vertex 1809.75 0 803.275
    endloop
  endfacet
  facet normal -0 0 -1
    outer loop
      vertex 1809.75 19.05 803.275
      vertex 1238.25 0 803.275
      vertex 1238.25 19.05 803.275
    endloop
  endfacet
  facet normal -1 0 0
    outer loop
      vertex 1809.75 450.85 654.05
      vertex 1809.75 371.475 863.6
      vertex 1809.75 450.85 863.6
    endloop
  endfacet
  facet normal -1 0 0
    outer loop
      vertex 1809.75 371.475 863.6
      vertex 1809.75 104.775 863.6
      vertex 1809.75 371.475 882.65
    endloop
  endfacet
  facet normal -1 0 0
    outer loop
      vertex 1809.75 450.85 654.05
      vertex 1809.75 104.775 863.6
      vertex 1809.75 371.475 863.6
    endloop
  endfacet
  facet normal -1 0 0
    outer loop
      vertex 1809.75 25.4 654.05
      vertex 1809.75 104.775 863.6
      vertex 1809.75 450.85 654.05
    endloop
  endfacet
  facet normal -1 -0 0
    outer loop
      vertex 1809.75 104.775 863.6
      vertex 1809.75 25.4 654.05
      vertex 1809.75 25.4 863.6
    endloop
  endfacet
  facet normal -1 -0 0
    outer loop
      vertex 1809.75 371.475 882.65
      vertex 1809.75 104.775 863.6
      vertex 1809.75 104.775 882.65
    endloop
  endfacet
  facet normal -1 0 0
    outer loop
      vertex 1809.75 25.4 19.05
      vertex 1809.75 450.85 635
      vertex 1809.75 450.85 19.05
    endloop
  endfacet
  facet normal -1 -0 0
    outer loop
      vertex 1809.75 450.85 635
      vertex 1809.75 25.4 19.05
      vertex 1809.75 25.4 635
    endloop
  endfacet
  facet normal 0 -0 0
    outer loop
      vertex 1809.75 25.4 635
      vertex 1809.75 25.4 19.05
      vertex 1809.75 25.4 882.65
    endloop
  endfacet
  facet normal 0 0 0
    outer loop
      vertex 1809.75 25.4 863.6
      vertex 1809.75 25.4 654.05
      vertex 1809.75 25.4 635
    endloop
  endfacet
  facet normal 0 0 0
    outer loop
      vertex 1809.75 25.4 882.65
      vertex 1809.75 25.4 863.6
      vertex 1809.75 25.4 635
    endloop
  endfacet
  facet normal 0 0 0
    outer loop
      vertex 1809.75 25.4 882.65
      vertex 1809.75 450.85 882.65
      vertex 1809.75 371.475 882.65
    endloop
  endfacet
  facet normal 0 0 0
    outer loop
      vertex 1809.75 371.475 882.65
      vertex 1809.75 104.775 882.65
      vertex 1809.75 25.4 882.65
    endloop
  endfacet
  facet normal -0 0 1
    outer loop
      vertex 1238.25 104.775 882.65
      vertex 1809.75 25.4 882.65
      vertex 1809.75 104.775 882.65
    endloop
  endfacet
  facet normal 0 0 1
    outer loop
      vertex 1809.75 25.4 882.65
      vertex 1238.25 104.775 882.65
      vertex 1238.25 25.4 882.65
    endloop
  endfacet
  facet normal 0 0 -1
    outer loop
      vertex 1238.25 25.4 863.6
      vertex 1809.75 104.775 863.6
      vertex 1809.75 25.4 863.6
    endloop
  endfacet
  facet normal -0 0 -1
    outer loop
      vertex 1809.75 104.775 863.6
      vertex 1238.25 25.4 863.6
      vertex 1238.25 104.775 863.6
    endloop
  endfacet
  facet normal 1 -0 0
    outer loop
      vertex 1238.25 25.4 635
      vertex 1238.25 450.85 19.05
      vertex 1238.25 450.85 635
    endloop
  endfacet
  facet normal 1 0 0
    outer loop
      vertex 1238.25 450.85 19.05
      vertex 1238.25 25.4 635
      vertex 1238.25 25.4 19.05
    endloop
  endfacet
  facet normal 1 0 0
    outer loop
      vertex 1238.25 371.475 882.65
      vertex 1238.25 104.775 882.65
      vertex 1238.25 371.475 863.6
    endloop
  endfacet
  facet normal 1 -0 0
    outer loop
      vertex 1238.25 371.475 863.6
      vertex 1238.25 450.85 654.05
      vertex 1238.25 450.85 863.6
    endloop
  endfacet
  facet normal 1 0 0
    outer loop
      vertex 1238.25 104.775 863.6
      vertex 1238.25 371.475 863.6
      vertex 1238.25 104.775 882.65
    endloop
  endfacet
  facet normal 1 0 0
    outer loop
      vertex 1238.25 371.475 863.6
      vertex 1238.25 104.775 863.6
      vertex 1238.25 450.85 654.05
    endloop
  endfacet
  facet normal 1 0 0
    outer loop
      vertex 1238.25 25.4 654.05
      vertex 1238.25 104.775 863.6
      vertex 1238.25 25.4 863.6
    endloop
  endfacet
  facet normal 1 0 0
    outer loop
      vertex 1238.25 104.775 863.6
      vertex 1238.25 25.4 654.05
      vertex 1238.25 450.85 654.05
    endloop
  endfacet
  facet normal 0 0 -0
    outer loop
      vertex 1238.25 371.475 882.65
      vertex 1238.25 450.85 882.65
      vertex 1238.25 25.4 882.65
    endloop
  endfacet
  facet normal 0 0 -0
    outer loop
      vertex 1238.25 104.775 882.65
      vertex 1238.25 371.475 882.65
      vertex 1238.25 25.4 882.65
    endloop
  endfacet
  facet normal -0 0 0
    outer loop
      vertex 1238.25 25.4 863.6
      vertex 1238.25 25.4 882.65
      vertex 1238.25 25.4 19.05
    endloop
  endfacet
  facet normal 0 0 0
    outer loop
      vertex 1238.25 25.4 863.6
      vertex 1238.25 25.4 19.05
      vertex 1238.25 25.4 635
    endloop
  endfacet
  facet normal -0 0 0
    outer loop
      vertex 1238.25 25.4 654.05
      vertex 1238.25 25.4 863.6
      vertex 1238.25 25.4 635
    endloop
  endfacet
  facet normal 0 1 -0
    outer loop
      vertex 1809.75 104.775 863.6
      vertex 1238.25 104.775 882.65
      vertex 1809.75 104.775 882.65
    endloop
  endfacet
  facet normal 0 1 0
    outer loop
      vertex 1238.25 104.775 882.65
      vertex 1809.75 104.775 863.6
      vertex 1238.25 104.775 863.6
    endloop
  endfacet
  facet normal 0 -1 0
    outer loop
      vertex 1238.25 25.4 863.6
      vertex 1809.75 25.4 882.65
      vertex 1238.25 25.4 882.65
    endloop
  endfacet
  facet normal 0 -1 -0
    outer loop
      vertex 1809.75 25.4 882.65
      vertex 1238.25 25.4 863.6
      vertex 1809.75 25.4 863.6
    endloop
  endfacet
  facet normal -0 0 1
    outer loop
      vertex 1238.25 450.85 882.65
      vertex 1809.75 371.475 882.65
      vertex 1809.75 450.85 882.65
    endloop
  endfacet
  facet normal 0 0 1
    outer loop
      vertex 1809.75 371.475 882.65
      vertex 1238.25 450.85 882.65
      vertex 1238.25 371.475 882.65
    endloop
  endfacet
  facet normal 0 0 -1
    outer loop
      vertex 1238.25 371.475 863.6
      vertex 1809.75 450.85 863.6
      vertex 1809.75 371.475 863.6
    endloop
  endfacet
  facet normal -0 0 -1
    outer loop
      vertex 1809.75 450.85 863.6
      vertex 1238.25 371.475 863.6
      vertex 1238.25 450.85 863.6
    endloop
  endfacet
  facet normal 0 1 -0
    outer loop
      vertex 1809.75 450.85 863.6
      vertex 1238.25 450.85 882.65
      vertex 1809.75 450.85 882.65
    endloop
  endfacet
  facet normal 0 1 0
    outer loop
      vertex 1238.25 450.85 882.65
      vertex 1809.75 450.85 863.6
      vertex 1238.25 450.85 863.6
    endloop
  endfacet
  facet normal 0 -1 0
    outer loop
      vertex 1238.25 371.475 863.6
      vertex 1809.75 371.475 882.65
      vertex 1238.25 371.475 882.65
    endloop
  endfacet
  facet normal 0 -1 -0
    outer loop
      vertex 1809.75 371.475 882.65
      vertex 1238.25 371.475 863.6
      vertex 1809.75 371.475 863.6
    endloop
  endfacet
  facet normal 0 1 -0
    outer loop
      vertex 1809.75 25.4 19.05
      vertex 1238.25 25.4 882.65
      vertex 1809.75 25.4 882.65
    endloop
  endfacet
  facet normal 0 1 0
    outer loop
      vertex 1238.25 25.4 882.65
      vertex 1809.75 25.4 19.05
      vertex 1238.25 25.4 19.05
    endloop
  endfacet
  facet normal -0 0 1
    outer loop
      vertex 19.05 450.85 654.05
      vertex 590.55 25.4 654.05
      vertex 590.55 450.85 654.05
    endloop
  endfacet
  facet normal 0 0 1
    outer loop
      vertex 590.55 25.4 654.05
      vertex 19.05 450.85 654.05
      vertex 19.05 25.4 654.05
    endloop
  endfacet
  facet normal 0 0 0
    outer loop
      vertex 596.9 450.85 654.05
      vertex 12.7 450.85 654.05
      vertex 19.05 450.85 654.05
    endloop
  endfacet
  facet normal 0 0 0
    outer loop
      vertex 19.05 450.85 654.05
      vertex 590.55 450.85 654.05
      vertex 596.9 450.85 654.05
    endloop
  endfacet
  facet normal 0 0 -1
    outer loop
      vertex 19.05 25.4 635
      vertex 590.55 450.85 635
      vertex 590.55 25.4 635
    endloop
  endfacet
  facet normal -0 0 -1
    outer loop
      vertex 590.55 450.85 635
      vertex 19.05 25.4 635
      vertex 19.05 450.85 635
    endloop
  endfacet
  facet normal 0 0 0
    outer loop
      vertex 596.9 450.85 635
      vertex 590.55 450.85 635
      vertex 19.05 450.85 635
    endloop
  endfacet
  facet normal 0 0 -0
    outer loop
      vertex 19.05 450.85 635
      vertex 12.7 450.85 635
      vertex 596.9 450.85 635
    endloop
  endfacet
  facet normal 0 1 -0
    outer loop
      vertex 596.9 450.85 635
      vertex 12.7 450.85 654.05
      vertex 596.9 450.85 654.05
    endloop
  endfacet
  facet normal 0 1 0
    outer loop
      vertex 12.7 450.85 654.05
      vertex 596.9 450.85 635
      vertex 12.7 450.85 635
    endloop
  endfacet
  facet normal 0 -1 0
    outer loop
      vertex 19.05 25.4 635
      vertex 590.55 25.4 654.05
      vertex 19.05 25.4 654.05
    endloop
  endfacet
  facet normal 0 -1 -0
    outer loop
      vertex 590.55 25.4 654.05
      vertex 19.05 25.4 635
      vertex 590.55 25.4 635
    endloop
  endfacet
  facet normal -0 0 1
    outer loop
      vertex 1238.25 450.85 654.05
      vertex 1809.75 25.4 654.05
      vertex 1809.75 450.85 654.05
    endloop
  endfacet
  facet normal 0 0 1
    outer loop
      vertex 1809.75 25.4 654.05
      vertex 1238.25 450.85 654.05
      vertex 1238.25 25.4 654.05
    endloop
  endfacet
  facet normal 0 0 0
    outer loop
      vertex 1816.1 450.85 654.05
      vertex 1231.9 450.85 654.05
      vertex 1238.25 450.85 654.05
    endloop
  endfacet
  facet normal 0 -0 0
    outer loop
      vertex 1809.75 450.85 654.05
      vertex 1816.1 450.85 654.05
      vertex 1238.25 450.85 654.05
    endloop
  endfacet
  facet normal 0 0 -1
    outer loop
      vertex 1238.25 25.4 635
      vertex 1809.75 450.85 635
      vertex 1809.75 25.4 635
    endloop
  endfacet
  facet normal -0 0 -1
    outer loop
      vertex 1809.75 450.85 635
      vertex 1238.25 25.4 635
      vertex 1238.25 450.85 635
    endloop
  endfacet
  facet normal 0 0 -0
    outer loop
      vertex 1238.25 450.85 635
      vertex 1231.9 450.85 635
      vertex 1816.1 450.85 635
    endloop
  endfacet
  facet normal 0 0 -0
    outer loop
      vertex 1809.75 450.85 635
      vertex 1238.25 450.85 635
      vertex 1816.1 450.85 635
    endloop
  endfacet
  facet normal 0 1 -0
    outer loop
      vertex 1816.1 450.85 635
      vertex 1231.9 450.85 654.05
      vertex 1816.1 450.85 654.05
    endloop
  endfacet
  facet normal 0 1 0
    outer loop
      vertex 1231.9 450.85 654.05
      vertex 1816.1 450.85 635
      vertex 1231.9 450.85 635
    endloop
  endfacet
  facet normal 0 -1 0
    outer loop
      vertex 1238.25 25.4 635
      vertex 1809.75 25.4 654.05
      vertex 1238.25 25.4 654.05
    endloop
  endfacet
  facet normal 0 -1 -0
    outer loop
      vertex 1809.75 25.4 654.05
      vertex 1238.25 25.4 635
      vertex 1809.75 25.4 635
    endloop
  endfacet
  facet normal -0 0 1
    outer loop
      vertex 628.65 450.85 476.25
      vertex 1200.15 25.4 476.25
      vertex 1200.15 450.85 476.25
    endloop
  endfacet
  facet normal 0 0 1
    outer loop
      vertex 1200.15 25.4 476.25
      vertex 628.65 450.85 476.25
      vertex 628.65 25.4 476.25
    endloop
  endfacet
  facet normal 0 0 0
    outer loop
      vertex 1206.5 450.85 476.25
      vertex 622.3 450.85 476.25
      vertex 628.65 450.85 476.25
    endloop
  endfacet
  facet normal 0 0 0
    outer loop
      vertex 628.65 450.85 476.25
      vertex 1200.15 450.85 476.25
      vertex 1206.5 450.85 476.25
    endloop
  endfacet
  facet normal 0 0 -1
    outer loop
      vertex 628.65 25.4 457.2
      vertex 1200.15 450.85 457.2
      vertex 1200.15 25.4 457.2
    endloop
  endfacet
  facet normal -0 0 -1
    outer loop
      vertex 1200.15 450.85 457.2
      vertex 628.65 25.4 457.2
      vertex 628.65 450.85 457.2
    endloop
  endfacet
  facet normal 0 0 0
    outer loop
      vertex 1200.15 450.85 457.2
      vertex 628.65 450.85 457.2
      vertex 622.3 450.85 457.2
    endloop
  endfacet
  facet normal 0 0 0
    outer loop
      vertex 622.3 450.85 457.2
      vertex 1206.5 450.85 457.2
      vertex 1200.15 450.85 457.2
    endloop
  endfacet
  facet normal 0 1 -0
    outer loop
      vertex 1206.5 450.85 457.2
      vertex 622.3 450.85 476.25
      vertex 1206.5 450.85 476.25
    endloop
  endfacet
  facet normal 0 1 0
    outer loop
      vertex 622.3 450.85 476.25
      vertex 1206.5 450.85 457.2
      vertex 622.3 450.85 457.2
    endloop
  endfacet
  facet normal 0 -1 0
    outer loop
      vertex 628.65 25.4 457.2
      vertex 1200.15 25.4 476.25
      vertex 628.65 25.4 476.25
    endloop
  endfacet
  facet normal 0 -1 -0
    outer loop
      vertex 1200.15 25.4 476.25
      vertex 628.65 25.4 457.2
      vertex 1200.15 25.4 457.2
    endloop
  endfacet
  facet normal 0 1 0
    outer loop
      vertex 609.6 450.85 882.65
      vertex 590.55 450.85 863.6
      vertex 590.55 450.85 882.65
    endloop
  endfacet
  facet normal 0 1 0
    outer loop
      vertex 609.6 450.85 882.65
      vertex 596.9 450.85 654.05
      vertex 590.55 450.85 863.6
    endloop
  endfacet
  facet normal 0 1 0
    outer loop
      vertex 609.6 450.85 882.65
      vertex 596.9 450.85 635
      vertex 596.9 450.85 654.05
    endloop
  endfacet
  facet normal 0 1 0
    outer loop
      vertex 596.9 450.85 635
      vertex 590.55 450.85 19.05
      vertex 590.55 450.85 635
    endloop
  endfacet
  facet normal 0 1 -0
    outer loop
      vertex 609.6 450.85 0
      vertex 596.9 450.85 635
      vertex 609.6 450.85 882.65
    endloop
  endfacet
  facet normal 0 1 0
    outer loop
      vertex 590.55 450.85 19.05
      vertex 609.6 450.85 0
      vertex 19.05 450.85 19.05
    endloop
  endfacet
  facet normal 0 1 0
    outer loop
      vertex 596.9 450.85 635
      vertex 609.6 450.85 0
      vertex 590.55 450.85 19.05
    endloop
  endfacet
  facet normal 0 1 0
    outer loop
      vertex 590.55 450.85 863.6
      vertex 596.9 450.85 654.05
      vertex 590.55 450.85 654.05
    endloop
  endfacet
  facet normal 0 1 0
    outer loop
      vertex 19.05 450.85 635
      vertex 19.05 450.85 19.05
      vertex 12.7 450.85 635
    endloop
  endfacet
  facet normal 0 1 -0
    outer loop
      vertex 19.05 450.85 863.6
      vertex 0 450.85 882.65
      vertex 19.05 450.85 882.65
    endloop
  endfacet
  facet normal 0 1 0
    outer loop
      vertex 12.7 450.85 654.05
      vertex 19.05 450.85 863.6
      vertex 19.05 450.85 654.05
    endloop
  endfacet
  facet normal 0 1 0
    outer loop
      vertex 19.05 450.85 863.6
      vertex 12.7 450.85 654.05
      vertex 0 450.85 882.65
    endloop
  endfacet
  facet normal 0 1 -0
    outer loop
      vertex 12.7 450.85 635
      vertex 0 450.85 882.65
      vertex 12.7 450.85 654.05
    endloop
  endfacet
  facet normal 0 1 0
    outer loop
      vertex 0 450.85 0
      vertex 12.7 450.85 635
      vertex 19.05 450.85 19.05
    endloop
  endfacet
  facet normal 0 1 0
    outer loop
      vertex 12.7 450.85 635
      vertex 0 450.85 0
      vertex 0 450.85 882.65
    endloop
  endfacet
  facet normal 0 1 0
    outer loop
      vertex 0 450.85 0
      vertex 19.05 450.85 19.05
      vertex 609.6 450.85 0
    endloop
  endfacet
  facet normal -0 0 1
    outer loop
      vertex 19.05 450.85 19.05
      vertex 590.55 25.4 19.05
      vertex 590.55 450.85 19.05
    endloop
  endfacet
  facet normal 0 0 1
    outer loop
      vertex 590.55 25.4 19.05
      vertex 19.05 450.85 19.05
      vertex 19.05 25.4 19.05
    endloop
  endfacet
  facet normal 0 1 0
    outer loop
      vertex 1219.2 450.85 882.65
      vertex 1200.15 450.85 863.6
      vertex 1200.15 450.85 882.65
    endloop
  endfacet
  facet normal 0 1 0
    outer loop
      vertex 1219.2 450.85 882.65
      vertex 1206.5 450.85 476.25
      vertex 1200.15 450.85 863.6
    endloop
  endfacet
  facet normal 0 1 0
    outer loop
      vertex 1219.2 450.85 882.65
      vertex 1206.5 450.85 457.2
      vertex 1206.5 450.85 476.25
    endloop
  endfacet
  facet normal 0 1 0
    outer loop
      vertex 1206.5 450.85 457.2
      vertex 1200.15 450.85 19.05
      vertex 1200.15 450.85 457.2
    endloop
  endfacet
  facet normal 0 1 -0
    outer loop
      vertex 1219.2 450.85 0
      vertex 1206.5 450.85 457.2
      vertex 1219.2 450.85 882.65
    endloop
  endfacet
  facet normal 0 1 0
    outer loop
      vertex 1200.15 450.85 19.05
      vertex 1219.2 450.85 0
      vertex 628.65 450.85 19.05
    endloop
  endfacet
  facet normal 0 1 0
    outer loop
      vertex 1206.5 450.85 457.2
      vertex 1219.2 450.85 0
      vertex 1200.15 450.85 19.05
    endloop
  endfacet
  facet normal 0 1 0
    outer loop
      vertex 1200.15 450.85 863.6
      vertex 1206.5 450.85 476.25
      vertex 1200.15 450.85 476.25
    endloop
  endfacet
  facet normal 0 1 0
    outer loop
      vertex 628.65 450.85 457.2
      vertex 628.65 450.85 19.05
      vertex 622.3 450.85 457.2
    endloop
  endfacet
  facet normal 0 1 -0
    outer loop
      vertex 628.65 450.85 863.6
      vertex 609.6 450.85 882.65
      vertex 628.65 450.85 882.65
    endloop
  endfacet
  facet normal 0 1 0
    outer loop
      vertex 622.3 450.85 476.25
      vertex 628.65 450.85 863.6
      vertex 628.65 450.85 476.25
    endloop
  endfacet
  facet normal 0 1 0
    outer loop
      vertex 628.65 450.85 863.6
      vertex 622.3 450.85 476.25
      vertex 609.6 450.85 882.65
    endloop
  endfacet
  facet normal 0 1 -0
    outer loop
      vertex 622.3 450.85 457.2
      vertex 609.6 450.85 882.65
      vertex 622.3 450.85 476.25
    endloop
  endfacet
  facet normal 0 1 0
    outer loop
      vertex 609.6 450.85 0
      vertex 622.3 450.85 457.2
      vertex 628.65 450.85 19.05
    endloop
  endfacet
  facet normal 0 1 0
    outer loop
      vertex 622.3 450.85 457.2
      vertex 609.6 450.85 0
      vertex 609.6 450.85 882.65
    endloop
  endfacet
  facet normal 0 1 0
    outer loop
      vertex 609.6 450.85 0
      vertex 628.65 450.85 19.05
      vertex 1219.2 450.85 0
    endloop
  endfacet
  facet normal -0 0 1
    outer loop
      vertex 628.65 450.85 19.05
      vertex 1200.15 25.4 19.05
      vertex 1200.15 450.85 19.05
    endloop
  endfacet
  facet normal 0 0 1
    outer loop
      vertex 1200.15 25.4 19.05
      vertex 628.65 450.85 19.05
      vertex 628.65 25.4 19.05
    endloop
  endfacet
  facet normal 0 1 0
    outer loop
      vertex 1828.8 450.85 882.65
      vertex 1809.75 450.85 863.6
      vertex 1809.75 450.85 882.65
    endloop
  endfacet
  facet normal 0 1 0
    outer loop
      vertex 1828.8 450.85 882.65
      vertex 1816.1 450.85 654.05
      vertex 1809.75 450.85 863.6
    endloop
  endfacet
  facet normal 0 1 0
    outer loop
      vertex 1828.8 450.85 882.65
      vertex 1816.1 450.85 635
      vertex 1816.1 450.85 654.05
    endloop
  endfacet
  facet normal 0 1 0
    outer loop
      vertex 1816.1 450.85 635
      vertex 1809.75 450.85 19.05
      vertex 1809.75 450.85 635
    endloop
  endfacet
  facet normal 0 1 -0
    outer loop
      vertex 1828.8 450.85 0
      vertex 1816.1 450.85 635
      vertex 1828.8 450.85 882.65
    endloop
  endfacet
  facet normal 0 1 0
    outer loop
      vertex 1809.75 450.85 19.05
      vertex 1828.8 450.85 0
      vertex 1238.25 450.85 19.05
    endloop
  endfacet
  facet normal 0 1 0
    outer loop
      vertex 1816.1 450.85 635
      vertex 1828.8 450.85 0
      vertex 1809.75 450.85 19.05
    endloop
  endfacet
  facet normal 0 1 0
    outer loop
      vertex 1809.75 450.85 863.6
      vertex 1816.1 450.85 654.05
      vertex 1809.75 450.85 654.05
    endloop
  endfacet
  facet normal 0 1 0
    outer loop
      vertex 1238.25 450.85 635
      vertex 1238.25 450.85 19.05
      vertex 1231.9 450.85 635
    endloop
  endfacet
  facet normal 0 1 -0
    outer loop
      vertex 1238.25 450.85 863.6
      vertex 1219.2 450.85 882.65
      vertex 1238.25 450.85 882.65
    endloop
  endfacet
  facet normal 0 1 0
    outer loop
      vertex 1231.9 450.85 654.05
      vertex 1238.25 450.85 863.6
      vertex 1238.25 450.85 654.05
    endloop
  endfacet
  facet normal 0 1 0
    outer loop
      vertex 1238.25 450.85 863.6
      vertex 1231.9 450.85 654.05
      vertex 1219.2 450.85 882.65
    endloop
  endfacet
  facet normal 0 1 -0
    outer loop
      vertex 1231.9 450.85 635
      vertex 1219.2 450.85 882.65
      vertex 1231.9 450.85 654.05
    endloop
  endfacet
  facet normal 0 1 0
    outer loop
      vertex 1219.2 450.85 0
      vertex 1231.9 450.85 635
      vertex 1238.25 450.85 19.05
    endloop
  endfacet
  facet normal 0 1 0
    outer loop
      vertex 1231.9 450.85 635
      vertex 1219.2 450.85 0
      vertex 1219.2 450.85 882.65
    endloop
  endfacet
  facet normal 0 1 0
    outer loop
      vertex 1219.2 450.85 0
      vertex 1238.25 450.85 19.05
      vertex 1828.8 450.85 0
    endloop
  endfacet
  facet normal -0 0 1
    outer loop
      vertex 1238.25 450.85 19.05
      vertex 1809.75 25.4 19.05
      vertex 1809.75 450.85 19.05
    endloop
  endfacet
  facet normal 0 0 1
    outer loop
      vertex 1809.75 25.4 19.05
      vertex 1238.25 450.85 19.05
      vertex 1238.25 25.4 19.05
    endloop
  endfacet
  facet normal 1 -0 0
    outer loop
      vertex 1790.7 450.85 19.05
      vertex 1790.7 469.9 -19.05
      vertex 1790.7 469.9 19.05
    endloop
  endfacet
  facet normal 1 0 0
    outer loop
      vertex 1790.7 469.9 -19.05
      vertex 1790.7 450.85 19.05
      vertex 1790.7 450.85 -19.05
    endloop
  endfacet
  facet normal -0 0 1
    outer loop
      vertex 38.1 469.9 19.05
      vertex 1790.7 450.85 19.05
      vertex 1790.7 469.9 19.05
    endloop
  endfacet
  facet normal 0 0 1
    outer loop
      vertex 1790.7 450.85 19.05
      vertex 38.1 469.9 19.05
      vertex 38.1 450.85 19.05
    endloop
  endfacet
  facet normal 0 0 -1
    outer loop
      vertex 38.1 450.85 -19.05
      vertex 1790.7 469.9 -19.05
      vertex 1790.7 450.85 -19.05
    endloop
  endfacet
  facet normal -0 0 -1
    outer loop
      vertex 1790.7 469.9 -19.05
      vertex 38.1 450.85 -19.05
      vertex 38.1 469.9 -19.05
    endloop
  endfacet
  facet normal -1 0 0
    outer loop
      vertex 38.1 450.85 -19.05
      vertex 38.1 469.9 19.05
      vertex 38.1 469.9 -19.05
    endloop
  endfacet
  facet normal -1 -0 0
    outer loop
      vertex 38.1 469.9 19.05
      vertex 38.1 450.85 -19.05
      vertex 38.1 450.85 19.05
    endloop
  endfacet
  facet normal 0 1 -0
    outer loop
      vertex 1790.7 469.9 -19.05
      vertex 38.1 469.9 19.05
      vertex 1790.7 469.9 19.05
    endloop
  endfacet
  facet normal 0 1 0
    outer loop
      vertex 38.1 469.9 19.05
      vertex 1790.7 469.9 -19.05
      vertex 38.1 469.9 -19.05
    endloop
  endfacet
  facet normal 0 -1 0
    outer loop
      vertex 38.1 450.85 -19.05
      vertex 1790.7 450.85 19.05
      vertex 38.1 450.85 19.05
    endloop
  endfacet
  facet normal 0 -1 -0
    outer loop
      vertex 1790.7 450.85 19.05
      vertex 38.1 450.85 -19.05
      vertex 1790.7 450.85 -19.05
    endloop
  endfacet
  facet normal 1 -0 0
    outer loop
      vertex 1790.7 450.85 882.65
      vertex 1790.7 469.9 844.55
      vertex 1790.7 469.9 882.65
    endloop
  endfacet
  facet normal 1 0 0
    outer loop
      vertex 1790.7 469.9 844.55
      vertex 1790.7 450.85 882.65
      vertex 1790.7 450.85 844.55
    endloop
  endfacet
  facet normal 0 0 -1
    outer loop
      vertex 1238.25 450.85 844.55
      vertex 1790.7 469.9 844.55
      vertex 1790.7 450.85 844.55
    endloop
  endfacet
  facet normal -0 0 -1
    outer loop
      vertex 1790.7 469.9 844.55
      vertex 1238.25 450.85 844.55
      vertex 1238.25 469.9 844.55
    endloop
  endfacet
  facet normal 0 0 -1
    outer loop
      vertex 38.1 450.85 844.55
      vertex 590.55 469.9 844.55
      vertex 590.55 450.85 844.55
    endloop
  endfacet
  facet normal -0 0 -1
    outer loop
      vertex 590.55 469.9 844.55
      vertex 38.1 450.85 844.55
      vertex 38.1 469.9 844.55
    endloop
  endfacet
  facet normal 0 0 -1
    outer loop
      vertex 628.65 450.85 844.55
      vertex 1200.15 469.9 844.55
      vertex 1200.15 450.85 844.55
    endloop
  endfacet
  facet normal -0 0 -1
    outer loop
      vertex 1200.15 469.9 844.55
      vertex 628.65 450.85 844.55
      vertex 628.65 469.9 844.55
    endloop
  endfacet
  facet normal -1 0 0
    outer loop
      vertex 38.1 450.85 844.55
      vertex 38.1 469.9 882.65
      vertex 38.1 469.9 844.55
    endloop
  endfacet
  facet normal -1 -0 0
    outer loop
      vertex 38.1 469.9 882.65
      vertex 38.1 450.85 844.55
      vertex 38.1 450.85 882.65
    endloop
  endfacet
  facet normal 0 1 0
    outer loop
      vertex 1790.7 469.9 654.05
      vertex 1790.7 469.9 615.95
      vertex 1238.25 469.9 654.05
    endloop
  endfacet
  facet normal 0 1 -0
    outer loop
      vertex 628.65 469.9 476.25
      vertex 590.55 469.9 844.55
      vertex 628.65 469.9 844.55
    endloop
  endfacet
  facet normal 0 1 -0
    outer loop
      vertex 628.65 469.9 438.15
      vertex 590.55 469.9 844.55
      vertex 628.65 469.9 476.25
    endloop
  endfacet
  facet normal 0 1 0
    outer loop
      vertex 590.55 469.9 19.05
      vertex 628.65 469.9 438.15
      vertex 628.65 469.9 247.65
    endloop
  endfacet
  facet normal 0 1 0
    outer loop
      vertex 590.55 469.9 19.05
      vertex 628.65 469.9 247.65
      vertex 628.65 469.9 209.55
    endloop
  endfacet
  facet normal 0 1 0
    outer loop
      vertex 590.55 469.9 19.05
      vertex 628.65 469.9 209.55
      vertex 628.65 469.9 19.05
    endloop
  endfacet
  facet normal 0 1 0
    outer loop
      vertex 628.65 469.9 438.15
      vertex 590.55 469.9 19.05
      vertex 590.55 469.9 844.55
    endloop
  endfacet
  facet normal 0 1 -0
    outer loop
      vertex 1238.25 469.9 654.05
      vertex 1200.15 469.9 844.55
      vertex 1238.25 469.9 844.55
    endloop
  endfacet
  facet normal 0 1 0
    outer loop
      vertex 1238.25 469.9 615.95
      vertex 1238.25 469.9 654.05
      vertex 1790.7 469.9 615.95
    endloop
  endfacet
  facet normal 0 1 0
    outer loop
      vertex 1200.15 469.9 476.25
      vertex 1238.25 469.9 654.05
      vertex 1238.25 469.9 615.95
    endloop
  endfacet
  facet normal 0 1 0
    outer loop
      vertex 1238.25 469.9 654.05
      vertex 1200.15 469.9 476.25
      vertex 1200.15 469.9 844.55
    endloop
  endfacet
  facet normal 0 1 0
    outer loop
      vertex 1200.15 469.9 476.25
      vertex 1200.15 469.9 438.15
      vertex 628.65 469.9 476.25
    endloop
  endfacet
  facet normal 0 1 0
    outer loop
      vertex 1238.25 469.9 615.95
      vertex 1200.15 469.9 438.15
      vertex 1200.15 469.9 476.25
    endloop
  endfacet
  facet normal 0 1 0
    outer loop
      vertex 1238.25 469.9 615.95
      vertex 1200.15 469.9 247.65
      vertex 1200.15 469.9 438.15
    endloop
  endfacet
  facet normal 0 1 0
    outer loop
      vertex 1200.15 469.9 247.65
      vertex 1200.15 469.9 209.55
      vertex 628.65 469.9 247.65
    endloop
  endfacet
  facet normal 0 1 -0
    outer loop
      vertex 1238.25 469.9 19.05
      vertex 1200.15 469.9 247.65
      vertex 1238.25 469.9 615.95
    endloop
  endfacet
  facet normal 0 1 0
    outer loop
      vertex 1200.15 469.9 247.65
      vertex 1238.25 469.9 19.05
      vertex 1200.15 469.9 209.55
    endloop
  endfacet
  facet normal 0 1 0
    outer loop
      vertex 1200.15 469.9 209.55
      vertex 1238.25 469.9 19.05
      vertex 1200.15 469.9 19.05
    endloop
  endfacet
  facet normal 0 1 0
    outer loop
      vertex 1238.25 469.9 844.55
      vertex 1790.7 469.9 882.65
      vertex 1790.7 469.9 844.55
    endloop
  endfacet
  facet normal 0 1 0
    outer loop
      vertex 1200.15 469.9 844.55
      vertex 1790.7 469.9 882.65
      vertex 1238.25 469.9 844.55
    endloop
  endfacet
  facet normal 0 1 0
    outer loop
      vertex 1790.7 469.9 882.65
      vertex 1200.15 469.9 844.55
      vertex 38.1 469.9 882.65
    endloop
  endfacet
  facet normal 0 1 -0
    outer loop
      vertex 628.65 469.9 844.55
      vertex 38.1 469.9 882.65
      vertex 1200.15 469.9 844.55
    endloop
  endfacet
  facet normal 0 1 -0
    outer loop
      vertex 590.55 469.9 844.55
      vertex 38.1 469.9 882.65
      vertex 628.65 469.9 844.55
    endloop
  endfacet
  facet normal 0 1 0
    outer loop
      vertex 38.1 469.9 882.65
      vertex 590.55 469.9 844.55
      vertex 38.1 469.9 844.55
    endloop
  endfacet
  facet normal 0 1 0
    outer loop
      vertex 628.65 469.9 476.25
      vertex 1200.15 469.9 438.15
      vertex 628.65 469.9 438.15
    endloop
  endfacet
  facet normal 0 1 0
    outer loop
      vertex 628.65 469.9 247.65
      vertex 1200.15 469.9 209.55
      vertex 628.65 469.9 209.55
    endloop
  endfacet
  facet normal 0 0 0
    outer loop
      vertex 628.65 469.9 209.55
      vertex 628.65 469.9 247.65
      vertex 628.65 469.9 438.15
    endloop
  endfacet
  facet normal 0 0 0
    outer loop
      vertex 628.65 469.9 844.55
      vertex 628.65 469.9 19.05
      vertex 628.65 469.9 209.55
    endloop
  endfacet
  facet normal 0 0 0
    outer loop
      vertex 628.65 469.9 438.15
      vertex 628.65 469.9 476.25
      vertex 628.65 469.9 844.55
    endloop
  endfacet
  facet normal 0 0 0
    outer loop
      vertex 628.65 469.9 844.55
      vertex 628.65 469.9 209.55
      vertex 628.65 469.9 438.15
    endloop
  endfacet
  facet normal 0 -1 0
    outer loop
      vertex 628.65 450.85 247.65
      vertex 628.65 450.85 209.55
      vertex 1200.15 450.85 247.65
    endloop
  endfacet
  facet normal 0 -1 0
    outer loop
      vertex 628.65 450.85 476.25
      vertex 628.65 450.85 438.15
      vertex 1200.15 450.85 476.25
    endloop
  endfacet
  facet normal 0 -1 0
    outer loop
      vertex 1200.15 450.85 844.55
      vertex 1238.25 450.85 654.05
      vertex 1238.25 450.85 844.55
    endloop
  endfacet
  facet normal 0 -1 0
    outer loop
      vertex 1238.25 450.85 654.05
      vertex 1238.25 450.85 615.95
      vertex 1790.7 450.85 654.05
    endloop
  endfacet
  facet normal 0 -1 0
    outer loop
      vertex 1200.15 450.85 476.25
      vertex 1238.25 450.85 654.05
      vertex 1200.15 450.85 844.55
    endloop
  endfacet
  facet normal 0 -1 -0
    outer loop
      vertex 1238.25 450.85 654.05
      vertex 1200.15 450.85 476.25
      vertex 1238.25 450.85 615.95
    endloop
  endfacet
  facet normal 0 -1 0
    outer loop
      vertex 1200.15 450.85 438.15
      vertex 1200.15 450.85 476.25
      vertex 628.65 450.85 438.15
    endloop
  endfacet
  facet normal 0 -1 0
    outer loop
      vertex 1200.15 450.85 438.15
      vertex 1238.25 450.85 615.95
      vertex 1200.15 450.85 476.25
    endloop
  endfacet
  facet normal 0 -1 0
    outer loop
      vertex 1200.15 450.85 247.65
      vertex 1238.25 450.85 615.95
      vertex 1200.15 450.85 438.15
    endloop
  endfacet
  facet normal 0 -1 0
    outer loop
      vertex 1200.15 450.85 209.55
      vertex 1200.15 450.85 247.65
      vertex 628.65 450.85 209.55
    endloop
  endfacet
  facet normal 0 -1 0
    outer loop
      vertex 1238.25 450.85 19.05
      vertex 1200.15 450.85 247.65
      vertex 1200.15 450.85 209.55
    endloop
  endfacet
  facet normal 0 -1 0
    outer loop
      vertex 1238.25 450.85 19.05
      vertex 1200.15 450.85 209.55
      vertex 1200.15 450.85 19.05
    endloop
  endfacet
  facet normal 0 -1 0
    outer loop
      vertex 1200.15 450.85 247.65
      vertex 1238.25 450.85 19.05
      vertex 1238.25 450.85 615.95
    endloop
  endfacet
  facet normal 0 -1 0
    outer loop
      vertex 590.55 450.85 844.55
      vertex 628.65 450.85 476.25
      vertex 628.65 450.85 844.55
    endloop
  endfacet
  facet normal 0 -1 0
    outer loop
      vertex 590.55 450.85 844.55
      vertex 628.65 450.85 438.15
      vertex 628.65 450.85 476.25
    endloop
  endfacet
  facet normal 0 -1 0
    outer loop
      vertex 590.55 450.85 19.05
      vertex 628.65 450.85 438.15
      vertex 590.55 450.85 844.55
    endloop
  endfacet
  facet normal 0 -1 -0
    outer loop
      vertex 628.65 450.85 438.15
      vertex 590.55 450.85 19.05
      vertex 628.65 450.85 247.65
    endloop
  endfacet
  facet normal 0 -1 -0
    outer loop
      vertex 628.65 450.85 247.65
      vertex 590.55 450.85 19.05
      vertex 628.65 450.85 209.55
    endloop
  endfacet
  facet normal 0 -1 -0
    outer loop
      vertex 628.65 450.85 209.55
      vertex 590.55 450.85 19.05
      vertex 628.65 450.85 19.05
    endloop
  endfacet
  facet normal 0 -1 0
    outer loop
      vertex 590.55 450.85 844.55
      vertex 38.1 450.85 882.65
      vertex 38.1 450.85 844.55
    endloop
  endfacet
  facet normal 0 -1 0
    outer loop
      vertex 628.65 450.85 844.55
      vertex 38.1 450.85 882.65
      vertex 590.55 450.85 844.55
    endloop
  endfacet
  facet normal 0 -1 0
    outer loop
      vertex 38.1 450.85 882.65
      vertex 628.65 450.85 844.55
      vertex 1790.7 450.85 882.65
    endloop
  endfacet
  facet normal 0 -1 0
    outer loop
      vertex 1200.15 450.85 844.55
      vertex 1790.7 450.85 882.65
      vertex 628.65 450.85 844.55
    endloop
  endfacet
  facet normal 0 -1 0
    outer loop
      vertex 1238.25 450.85 844.55
      vertex 1790.7 450.85 882.65
      vertex 1200.15 450.85 844.55
    endloop
  endfacet
  facet normal 0 -1 -0
    outer loop
      vertex 1790.7 450.85 882.65
      vertex 1238.25 450.85 844.55
      vertex 1790.7 450.85 844.55
    endloop
  endfacet
  facet normal 0 -1 -0
    outer loop
      vertex 1790.7 450.85 654.05
      vertex 1238.25 450.85 615.95
      vertex 1790.7 450.85 615.95
    endloop
  endfacet
  facet normal 0 -0 0
    outer loop
      vertex 628.65 450.85 209.55
      vertex 628.65 450.85 19.05
      vertex 628.65 450.85 844.55
    endloop
  endfacet
  facet normal 0 0 0
    outer loop
      vertex 628.65 450.85 209.55
      vertex 628.65 450.85 844.55
      vertex 628.65 450.85 476.25
    endloop
  endfacet
  facet normal 0 0 0
    outer loop
      vertex 628.65 450.85 209.55
      vertex 628.65 450.85 476.25
      vertex 628.65 450.85 438.15
    endloop
  endfacet
  facet normal 0 0 0
    outer loop
      vertex 628.65 450.85 209.55
      vertex 628.65 450.85 438.15
      vertex 628.65 450.85 247.65
    endloop
  endfacet
  facet normal 1 -0 0
    outer loop
      vertex 38.1 450.85 882.65
      vertex 38.1 469.9 -19.05
      vertex 38.1 469.9 882.65
    endloop
  endfacet
  facet normal 1 0 0
    outer loop
      vertex 38.1 469.9 -19.05
      vertex 38.1 450.85 882.65
      vertex 38.1 450.85 -19.05
    endloop
  endfacet
  facet normal -0 0 1
    outer loop
      vertex 0 469.9 882.65
      vertex 38.1 450.85 882.65
      vertex 38.1 469.9 882.65
    endloop
  endfacet
  facet normal 0 0 1
    outer loop
      vertex 38.1 450.85 882.65
      vertex 0 469.9 882.65
      vertex 0 450.85 882.65
    endloop
  endfacet
  facet normal 0 0 -1
    outer loop
      vertex 0 450.85 -19.05
      vertex 38.1 469.9 -19.05
      vertex 38.1 450.85 -19.05
    endloop
  endfacet
  facet normal -0 0 -1
    outer loop
      vertex 38.1 469.9 -19.05
      vertex 0 450.85 -19.05
      vertex 0 469.9 -19.05
    endloop
  endfacet
  facet normal -1 0 0
    outer loop
      vertex 0 450.85 -19.05
      vertex 0 469.9 882.65
      vertex 0 469.9 -19.05
    endloop
  endfacet
  facet normal -1 -0 0
    outer loop
      vertex 0 469.9 882.65
      vertex 0 450.85 -19.05
      vertex 0 450.85 882.65
    endloop
  endfacet
  facet normal 0 1 -0
    outer loop
      vertex 38.1 469.9 -19.05
      vertex 0 469.9 882.65
      vertex 38.1 469.9 882.65
    endloop
  endfacet
  facet normal 0 1 0
    outer loop
      vertex 0 469.9 882.65
      vertex 38.1 469.9 -19.05
      vertex 0 469.9 -19.05
    endloop
  endfacet
  facet normal 0 -1 0
    outer loop
      vertex 0 450.85 -19.05
      vertex 38.1 450.85 882.65
      vertex 0 450.85 882.65
    endloop
  endfacet
  facet normal 0 -1 -0
    outer loop
      vertex 38.1 450.85 882.65
      vertex 0 450.85 -19.05
      vertex 38.1 450.85 -19.05
    endloop
  endfacet
  facet normal 1 -0 0
    outer loop
      vertex 1828.8 450.85 882.65
      vertex 1828.8 469.9 -19.05
      vertex 1828.8 469.9 882.65
    endloop
  endfacet
  facet normal 1 0 0
    outer loop
      vertex 1828.8 469.9 -19.05
      vertex 1828.8 450.85 882.65
      vertex 1828.8 450.85 -19.05
    endloop
  endfacet
  facet normal -0 0 1
    outer loop
      vertex 1790.7 469.9 882.65
      vertex 1828.8 450.85 882.65
      vertex 1828.8 469.9 882.65
    endloop
  endfacet
  facet normal 0 0 1
    outer loop
      vertex 1828.8 450.85 882.65
      vertex 1790.7 469.9 882.65
      vertex 1790.7 450.85 882.65
    endloop
  endfacet
  facet normal 0 0 -1
    outer loop
      vertex 1790.7 450.85 -19.05
      vertex 1828.8 469.9 -19.05
      vertex 1828.8 450.85 -19.05
    endloop
  endfacet
  facet normal -0 0 -1
    outer loop
      vertex 1828.8 469.9 -19.05
      vertex 1790.7 450.85 -19.05
      vertex 1790.7 469.9 -19.05
    endloop
  endfacet
  facet normal -1 0 0
    outer loop
      vertex 1790.7 450.85 -19.05
      vertex 1790.7 469.9 882.65
      vertex 1790.7 469.9 -19.05
    endloop
  endfacet
  facet normal -1 -0 0
    outer loop
      vertex 1790.7 469.9 882.65
      vertex 1790.7 450.85 -19.05
      vertex 1790.7 450.85 882.65
    endloop
  endfacet
  facet normal 0 1 -0
    outer loop
      vertex 1828.8 469.9 -19.05
      vertex 1790.7 469.9 882.65
      vertex 1828.8 469.9 882.65
    endloop
  endfacet
  facet normal 0 1 0
    outer loop
      vertex 1790.7 469.9 882.65
      vertex 1828.8 469.9 -19.05
      vertex 1790.7 469.9 -19.05
    endloop
  endfacet
  facet normal 0 -1 0
    outer loop
      vertex 1790.7 450.85 -19.05
      vertex 1828.8 450.85 882.65
      vertex 1790.7 450.85 882.65
    endloop
  endfacet
  facet normal 0 -1 -0
    outer loop
      vertex 1828.8 450.85 882.65
      vertex 1790.7 450.85 -19.05
      vertex 1828.8 450.85 -19.05
    endloop
  endfacet
  facet normal 1 -0 0
    outer loop
      vertex 628.65 450.85 844.55
      vertex 628.65 469.9 19.05
      vertex 628.65 469.9 844.55
    endloop
  endfacet
  facet normal 1 0 0
    outer loop
      vertex 628.65 469.9 19.05
      vertex 628.65 450.85 844.55
      vertex 628.65 450.85 19.05
    endloop
  endfacet
  facet normal 0 0 -1
    outer loop
      vertex 590.55 450.85 19.05
      vertex 628.65 469.9 19.05
      vertex 628.65 450.85 19.05
    endloop
  endfacet
  facet normal -0 0 -1
    outer loop
      vertex 628.65 469.9 19.05
      vertex 590.55 450.85 19.05
      vertex 590.55 469.9 19.05
    endloop
  endfacet
  facet normal -1 0 0
    outer loop
      vertex 590.55 450.85 19.05
      vertex 590.55 469.9 844.55
      vertex 590.55 469.9 19.05
    endloop
  endfacet
  facet normal -1 -0 0
    outer loop
      vertex 590.55 469.9 844.55
      vertex 590.55 450.85 19.05
      vertex 590.55 450.85 844.55
    endloop
  endfacet
  facet normal 1 -0 0
    outer loop
      vertex 1238.25 450.85 615.95
      vertex 1238.25 469.9 19.05
      vertex 1238.25 469.9 615.95
    endloop
  endfacet
  facet normal 1 0 0
    outer loop
      vertex 1238.25 469.9 19.05
      vertex 1238.25 450.85 615.95
      vertex 1238.25 450.85 19.05
    endloop
  endfacet
  facet normal 1 -0 0
    outer loop
      vertex 1238.25 450.85 844.55
      vertex 1238.25 469.9 654.05
      vertex 1238.25 469.9 844.55
    endloop
  endfacet
  facet normal 1 0 0
    outer loop
      vertex 1238.25 469.9 654.05
      vertex 1238.25 450.85 844.55
      vertex 1238.25 450.85 654.05
    endloop
  endfacet
  facet normal 0 0 -1
    outer loop
      vertex 1200.15 450.85 19.05
      vertex 1238.25 469.9 19.05
      vertex 1238.25 450.85 19.05
    endloop
  endfacet
  facet normal -0 0 -1
    outer loop
      vertex 1238.25 469.9 19.05
      vertex 1200.15 450.85 19.05
      vertex 1200.15 469.9 19.05
    endloop
  endfacet
  facet normal -1 0 0
    outer loop
      vertex 1200.15 450.85 19.05
      vertex 1200.15 469.9 209.55
      vertex 1200.15 469.9 19.05
    endloop
  endfacet
  facet normal -1 -0 0
    outer loop
      vertex 1200.15 469.9 209.55
      vertex 1200.15 450.85 19.05
      vertex 1200.15 450.85 209.55
    endloop
  endfacet
  facet normal -1 0 0
    outer loop
      vertex 1200.15 450.85 476.25
      vertex 1200.15 469.9 844.55
      vertex 1200.15 469.9 476.25
    endloop
  endfacet
  facet normal -1 -0 0
    outer loop
      vertex 1200.15 469.9 844.55
      vertex 1200.15 450.85 476.25
      vertex 1200.15 450.85 844.55
    endloop
  endfacet
  facet normal -1 0 0
    outer loop
      vertex 1200.15 450.85 247.65
      vertex 1200.15 469.9 438.15
      vertex 1200.15 469.9 247.65
    endloop
  endfacet
  facet normal -1 -0 0
    outer loop
      vertex 1200.15 469.9 438.15
      vertex 1200.15 450.85 247.65
      vertex 1200.15 450.85 438.15
    endloop
  endfacet
  facet normal 1 -0 0
    outer loop
      vertex 590.55 450.85 654.05
      vertex 590.55 469.9 615.95
      vertex 590.55 469.9 654.05
    endloop
  endfacet
  facet normal 1 0 0
    outer loop
      vertex 590.55 469.9 615.95
      vertex 590.55 450.85 654.05
      vertex 590.55 450.85 615.95
    endloop
  endfacet
  facet normal -0 0 1
    outer loop
      vertex 38.1 469.9 654.05
      vertex 590.55 450.85 654.05
      vertex 590.55 469.9 654.05
    endloop
  endfacet
  facet normal 0 0 1
    outer loop
      vertex 590.55 450.85 654.05
      vertex 38.1 469.9 654.05
      vertex 38.1 450.85 654.05
    endloop
  endfacet
  facet normal 0 0 -1
    outer loop
      vertex 38.1 450.85 615.95
      vertex 590.55 469.9 615.95
      vertex 590.55 450.85 615.95
    endloop
  endfacet
  facet normal -0 0 -1
    outer loop
      vertex 590.55 469.9 615.95
      vertex 38.1 450.85 615.95
      vertex 38.1 469.9 615.95
    endloop
  endfacet
  facet normal -1 0 0
    outer loop
      vertex 38.1 450.85 615.95
      vertex 38.1 469.9 654.05
      vertex 38.1 469.9 615.95
    endloop
  endfacet
  facet normal -1 -0 0
    outer loop
      vertex 38.1 469.9 654.05
      vertex 38.1 450.85 615.95
      vertex 38.1 450.85 654.05
    endloop
  endfacet
  facet normal 0 1 -0
    outer loop
      vertex 590.55 469.9 615.95
      vertex 38.1 469.9 654.05
      vertex 590.55 469.9 654.05
    endloop
  endfacet
  facet normal 0 1 0
    outer loop
      vertex 38.1 469.9 654.05
      vertex 590.55 469.9 615.95
      vertex 38.1 469.9 615.95
    endloop
  endfacet
  facet normal 0 -1 0
    outer loop
      vertex 38.1 450.85 615.95
      vertex 590.55 450.85 654.05
      vertex 38.1 450.85 654.05
    endloop
  endfacet
  facet normal 0 -1 -0
    outer loop
      vertex 590.55 450.85 654.05
      vertex 38.1 450.85 615.95
      vertex 590.55 450.85 615.95
    endloop
  endfacet
  facet normal 1 -0 0
    outer loop
      vertex 1790.7 450.85 654.05
      vertex 1790.7 469.9 615.95
      vertex 1790.7 469.9 654.05
    endloop
  endfacet
  facet normal 1 0 0
    outer loop
      vertex 1790.7 469.9 615.95
      vertex 1790.7 450.85 654.05
      vertex 1790.7 450.85 615.95
    endloop
  endfacet
  facet normal -0 0 1
    outer loop
      vertex 1238.25 469.9 654.05
      vertex 1790.7 450.85 654.05
      vertex 1790.7 469.9 654.05
    endloop
  endfacet
  facet normal 0 0 1
    outer loop
      vertex 1790.7 450.85 654.05
      vertex 1238.25 469.9 654.05
      vertex 1238.25 450.85 654.05
    endloop
  endfacet
  facet normal 0 0 -1
    outer loop
      vertex 1238.25 450.85 615.95
      vertex 1790.7 469.9 615.95
      vertex 1790.7 450.85 615.95
    endloop
  endfacet
  facet normal -0 0 -1
    outer loop
      vertex 1790.7 469.9 615.95
      vertex 1238.25 450.85 615.95
      vertex 1238.25 469.9 615.95
    endloop
  endfacet
  facet normal -0 0 1
    outer loop
      vertex 628.65 469.9 247.65
      vertex 1200.15 450.85 247.65
      vertex 1200.15 469.9 247.65
    endloop
  endfacet
  facet normal 0 0 1
    outer loop
      vertex 1200.15 450.85 247.65
      vertex 628.65 469.9 247.65
      vertex 628.65 450.85 247.65
    endloop
  endfacet
  facet normal 0 0 -1
    outer loop
      vertex 628.65 450.85 209.55
      vertex 1200.15 469.9 209.55
      vertex 1200.15 450.85 209.55
    endloop
  endfacet
  facet normal -0 0 -1
    outer loop
      vertex 1200.15 469.9 209.55
      vertex 628.65 450.85 209.55
      vertex 628.65 469.9 209.55
    endloop
  endfacet
  facet normal -1 0 0
    outer loop
      vertex 628.65 450.85 209.55
      vertex 628.65 469.9 247.65
      vertex 628.65 469.9 209.55
    endloop
  endfacet
  facet normal -1 -0 0
    outer loop
      vertex 628.65 469.9 247.65
      vertex 628.65 450.85 209.55
      vertex 628.65 450.85 247.65
    endloop
  endfacet
  facet normal -0 0 1
    outer loop
      vertex 628.65 469.9 476.25
      vertex 1200.15 450.85 476.25
      vertex 1200.15 469.9 476.25
    endloop
  endfacet
  facet normal 0 0 1
    outer loop
      vertex 1200.15 450.85 476.25
      vertex 628.65 469.9 476.25
      vertex 628.65 450.85 476.25
    endloop
  endfacet
  facet normal 0 0 -1
    outer loop
      vertex 628.65 450.85 438.15
      vertex 1200.15 469.9 438.15
      vertex 1200.15 450.85 438.15
    endloop
  endfacet
  facet normal -0 0 -1
    outer loop
      vertex 1200.15 469.9 438.15
      vertex 628.65 450.85 438.15
      vertex 628.65 469.9 438.15
    endloop
  endfacet
  facet normal -1 0 0
    outer loop
      vertex 628.65 450.85 438.15
      vertex 628.65 469.9 476.25
      vertex 628.65 469.9 438.15
    endloop
  endfacet
  facet normal -1 -0 0
    outer loop
      vertex 628.65 469.9 476.25
      vertex 628.65 450.85 438.15
      vertex 628.65 450.85 476.25
    endloop
  endfacet
  facet normal 1 -0 0
    outer loop
      vertex 651.6 25.4 208.6
      vertex 651.6 450.85 20
      vertex 651.6 450.85 208.6
    endloop
  endfacet
  facet normal 1 0 0
    outer loop
      vertex 651.6 450.85 20
      vertex 651.6 25.4 208.6
      vertex 651.6 25.4 20
    endloop
  endfacet
  facet normal -0 0 1
    outer loop
      vertex 632.55 450.85 208.6
      vertex 651.6 25.4 208.6
      vertex 651.6 450.85 208.6
    endloop
  endfacet
  facet normal 0 0 1
    outer loop
      vertex 651.6 25.4 208.6
      vertex 632.55 450.85 208.6
      vertex 632.55 25.4 208.6
    endloop
  endfacet
  facet normal 0 0 -1
    outer loop
      vertex 632.55 25.4 20
      vertex 651.6 450.85 20
      vertex 651.6 25.4 20
    endloop
  endfacet
  facet normal -0 0 -1
    outer loop
      vertex 651.6 450.85 20
      vertex 632.55 25.4 20
      vertex 632.55 450.85 20
    endloop
  endfacet
  facet normal -1 0 0
    outer loop
      vertex 632.55 25.4 20
      vertex 632.55 450.85 208.6
      vertex 632.55 450.85 20
    endloop
  endfacet
  facet normal -1 -0 0
    outer loop
      vertex 632.55 450.85 208.6
      vertex 632.55 25.4 20
      vertex 632.55 25.4 208.6
    endloop
  endfacet
  facet normal 0 1 -0
    outer loop
      vertex 651.6 450.85 20
      vertex 632.55 450.85 208.6
      vertex 651.6 450.85 208.6
    endloop
  endfacet
  facet normal 0 1 0
    outer loop
      vertex 632.55 450.85 208.6
      vertex 651.6 450.85 20
      vertex 632.55 450.85 20
    endloop
  endfacet
  facet normal 0 -1 0
    outer loop
      vertex 632.55 25.4 20
      vertex 651.6 25.4 208.6
      vertex 632.55 25.4 208.6
    endloop
  endfacet
  facet normal 0 -1 -0
    outer loop
      vertex 651.6 25.4 208.6
      vertex 632.55 25.4 20
      vertex 651.6 25.4 20
    endloop
  endfacet
  facet normal 1 -0 0
    outer loop
      vertex 1196.25 25.4 208.6
      vertex 1196.25 450.85 20
      vertex 1196.25 450.85 208.6
    endloop
  endfacet
  facet normal 1 0 0
    outer loop
      vertex 1196.25 450.85 20
      vertex 1196.25 25.4 208.6
      vertex 1196.25 25.4 20
    endloop
  endfacet
  facet normal -0 0 1
    outer loop
      vertex 1177.2 450.85 208.6
      vertex 1196.25 25.4 208.6
      vertex 1196.25 450.85 208.6
    endloop
  endfacet
  facet normal 0 0 1
    outer loop
      vertex 1196.25 25.4 208.6
      vertex 1177.2 450.85 208.6
      vertex 1177.2 25.4 208.6
    endloop
  endfacet
  facet normal 0 0 -1
    outer loop
      vertex 1177.2 25.4 20
      vertex 1196.25 450.85 20
      vertex 1196.25 25.4 20
    endloop
  endfacet
  facet normal -0 0 -1
    outer loop
      vertex 1196.25 450.85 20
      vertex 1177.2 25.4 20
      vertex 1177.2 450.85 20
    endloop
  endfacet
  facet normal -1 0 0
    outer loop
      vertex 1177.2 25.4 20
      vertex 1177.2 450.85 208.6
      vertex 1177.2 450.85 20
    endloop
  endfacet
  facet normal -1 -0 0
    outer loop
      vertex 1177.2 450.85 208.6
      vertex 1177.2 25.4 20
      vertex 1177.2 25.4 208.6
    endloop
  endfacet
  facet normal 0 1 -0
    outer loop
      vertex 1196.25 450.85 20
      vertex 1177.2 450.85 208.6
      vertex 1196.25 450.85 208.6
    endloop
  endfacet
  facet normal 0 1 0
    outer loop
      vertex 1177.2 450.85 208.6
      vertex 1196.25 450.85 20
      vertex 1177.2 450.85 20
    endloop
  endfacet
  facet normal 0 -1 0
    outer loop
      vertex 1177.2 25.4 20
      vertex 1196.25 25.4 208.6
      vertex 1177.2 25.4 208.6
    endloop
  endfacet
  facet normal 0 -1 -0
    outer loop
      vertex 1196.25 25.4 208.6
      vertex 1177.2 25.4 20
      vertex 1196.25 25.4 20
    endloop
  endfacet
  facet normal 1 -0 0
    outer loop
      vertex 1847.85 -19.05 901.7
      vertex 1847.85 488.95 882.65
      vertex 1847.85 488.95 901.7
    endloop
  endfacet
  facet normal 1 0 0
    outer loop
      vertex 1847.85 488.95 882.65
      vertex 1847.85 -19.05 901.7
      vertex 1847.85 -19.05 882.65
    endloop
  endfacet
  facet normal -0 0 1
    outer loop
      vertex -19.05 488.95 901.7
      vertex 1847.85 -19.05 901.7
      vertex 1847.85 488.95 901.7
    endloop
  endfacet
  facet normal 0 0 1
    outer loop
      vertex 1847.85 -19.05 901.7
      vertex -19.05 488.95 901.7
      vertex -19.05 -19.05 901.7
    endloop
  endfacet
  facet normal -1 0 0
    outer loop
      vertex -19.05 -19.05 882.65
      vertex -19.05 488.95 901.7
      vertex -19.05 488.95 882.65
    endloop
  endfacet
  facet normal -1 -0 0
    outer loop
      vertex -19.05 488.95 901.7
      vertex -19.05 -19.05 882.65
      vertex -19.05 -19.05 901.7
    endloop
  endfacet
  facet normal 0 1 -0
    outer loop
      vertex 1847.85 488.95 882.65
      vertex -19.05 488.95 901.7
      vertex 1847.85 488.95 901.7
    endloop
  endfacet
  facet normal 0 1 0
    outer loop
      vertex -19.05 488.95 901.7
      vertex 1847.85 488.95 882.65
      vertex -19.05 488.95 882.65
    endloop
  endfacet
  facet normal 0 -1 0
    outer loop
      vertex -19.05 -19.05 882.65
      vertex 1847.85 -19.05 901.7
      vertex -19.05 -19.05 901.7
    endloop
  endfacet
  facet normal 0 -1 -0
    outer loop
      vertex 1847.85 -19.05 901.7
      vertex -19.05 -19.05 882.65
      vertex 1847.85 -19.05 882.65
    endloop
  endfacet
endsolid OpenSCAD_Model
