solid OpenSCAD_Model
  facet normal -0.951057 -0.309017 0
    outer loop
      vertex -2.42705 -1.76336 -1.5
      vertex -3 0 -1.35
      vertex -3 0 -1.5
    endloop
  endfacet
  facet normal -0.951057 -0.309017 -3.52075e-06
    outer loop
      vertex -3 0 -1.35
      vertex -2.42705 -1.76336 -1.5
      vertex -2.58283 -1.28393 -0.417172
    endloop
  endfacet
  facet normal -0.951055 -0.309021 0
    outer loop
      vertex -2.74217 -0.793509 1.09217
      vertex -3 0 1.5
      vertex -3 0 1.09217
    endloop
  endfacet
  facet normal -0.951054 -0.309024 -0
    outer loop
      vertex -2.42705 -1.76336 1.5
      vertex -2.58283 -1.28393 -0.417172
      vertex -2.42705 -1.76336 -1.5
    endloop
  endfacet
  facet normal -0.951057 -0.309017 -8.10311e-06
    outer loop
      vertex -2.74217 -0.793509 1.09217
      vertex -2.42705 -1.76336 1.5
      vertex -3 0 1.5
    endloop
  endfacet
  facet normal -0.951058 -0.309013 3.09076e-06
    outer loop
      vertex -2.58283 -1.28393 -0.417172
      vertex -2.42705 -1.76336 1.5
      vertex -2.74217 -0.793509 1.09217
    endloop
  endfacet
  facet normal 0.587784 0.809018 -0
    outer loop
      vertex 2.42705 1.76336 -1.5
      vertex 0.927051 2.85317 1.5
      vertex 2.42705 1.76336 1.5
    endloop
  endfacet
  facet normal 0.587784 0.809018 0
    outer loop
      vertex 0.927051 2.85317 1.5
      vertex 2.42705 1.76336 -1.5
      vertex 0.927051 2.85317 -1.5
    endloop
  endfacet
  facet normal 0.951057 0.309017 0
    outer loop
      vertex 3 0 1.5
      vertex 2.42705 1.76336 -1.5
      vertex 2.42705 1.76336 1.5
    endloop
  endfacet
  facet normal 0.951057 0.309017 0
    outer loop
      vertex 2.42705 1.76336 -1.5
      vertex 3 0 1.5
      vertex 3 0 -1.5
    endloop
  endfacet
  facet normal 0 1 -0
    outer loop
      vertex 0.927051 2.85317 -1.5
      vertex -0.927051 2.85317 1.5
      vertex 0.927051 2.85317 1.5
    endloop
  endfacet
  facet normal 0 1 0
    outer loop
      vertex -0.927051 2.85317 1.5
      vertex 0.927051 2.85317 -1.5
      vertex -0.927051 2.85317 -1.5
    endloop
  endfacet
  facet normal 0 0 1
    outer loop
      vertex 1.4 0 1.5
      vertex 3 0 1.5
      vertex 2.42705 1.76336 1.5
    endloop
  endfacet
  facet normal 0 0 1
    outer loop
      vertex 3 0 1.5
      vertex 1.4 0 1.5
      vertex 2.42705 -1.76336 1.5
    endloop
  endfacet
  facet normal 0 0 1
    outer loop
      vertex 0.432623 1.33148 1.5
      vertex 2.42705 1.76336 1.5
      vertex 0.927051 2.85317 1.5
    endloop
  endfacet
  facet normal 0 0 1
    outer loop
      vertex 2.42705 1.76336 1.5
      vertex 0.432623 1.33148 1.5
      vertex 1.4 0 1.5
    endloop
  endfacet
  facet normal -0 0 1
    outer loop
      vertex -0.927051 2.85317 1.5
      vertex 0.432623 1.33148 1.5
      vertex 0.927051 2.85317 1.5
    endloop
  endfacet
  facet normal 0 0 1
    outer loop
      vertex -0.927051 2.85317 1.5
      vertex -1.13262 0.822899 1.5
      vertex 0.432623 1.33148 1.5
    endloop
  endfacet
  facet normal 0 0 1
    outer loop
      vertex -3 0 1.5
      vertex -1.13262 0.822899 1.5
      vertex -2.42705 1.76336 1.5
    endloop
  endfacet
  facet normal -0 0 1
    outer loop
      vertex -2.42705 1.76336 1.5
      vertex -1.13262 0.822899 1.5
      vertex -0.927051 2.85317 1.5
    endloop
  endfacet
  facet normal -0 0 1
    outer loop
      vertex 0.432623 -1.33148 1.5
      vertex 2.42705 -1.76336 1.5
      vertex 1.4 0 1.5
    endloop
  endfacet
  facet normal 0 0 1
    outer loop
      vertex 2.42705 -1.76336 1.5
      vertex 0.432623 -1.33148 1.5
      vertex 0.927051 -2.85317 1.5
    endloop
  endfacet
  facet normal 0 0 1
    outer loop
      vertex 0.432623 -1.33148 1.5
      vertex -0.927051 -2.85317 1.5
      vertex 0.927051 -2.85317 1.5
    endloop
  endfacet
  facet normal 0 0 1
    outer loop
      vertex -1.13262 -0.822899 1.5
      vertex -0.927051 -2.85317 1.5
      vertex 0.432623 -1.33148 1.5
    endloop
  endfacet
  facet normal 0 0 1
    outer loop
      vertex -1.13262 0.822899 1.5
      vertex -3 0 1.5
      vertex -1.13262 -0.822899 1.5
    endloop
  endfacet
  facet normal 0 0 1
    outer loop
      vertex -1.13262 -0.822899 1.5
      vertex -2.42705 -1.76336 1.5
      vertex -0.927051 -2.85317 1.5
    endloop
  endfacet
  facet normal 0 0 1
    outer loop
      vertex -1.13262 -0.822899 1.5
      vertex -3 0 1.5
      vertex -2.42705 -1.76336 1.5
    endloop
  endfacet
  facet normal -0.587784 -0.809018 0
    outer loop
      vertex -2.42705 -1.76336 -1.5
      vertex -0.927051 -2.85317 1.5
      vertex -2.42705 -1.76336 1.5
    endloop
  endfacet
  facet normal -0.587784 -0.809018 -0
    outer loop
      vertex -0.927051 -2.85317 1.5
      vertex -2.42705 -1.76336 -1.5
      vertex -0.927051 -2.85317 -1.5
    endloop
  endfacet
  facet normal 0.951057 -0.309017 0
    outer loop
      vertex 2.42705 -1.76336 1.5
      vertex 3 0 -1.5
      vertex 3 0 1.5
    endloop
  endfacet
  facet normal 0.951057 -0.309017 0
    outer loop
      vertex 3 0 -1.5
      vertex 2.42705 -1.76336 1.5
      vertex 2.42705 -1.76336 -1.5
    endloop
  endfacet
  facet normal -0.587784 0.809018 0
    outer loop
      vertex -0.927051 2.85317 -1.5
      vertex -2.42705 1.76336 1.5
      vertex -0.927051 2.85317 1.5
    endloop
  endfacet
  facet normal -0.587784 0.809018 0
    outer loop
      vertex -2.42705 1.76336 1.5
      vertex -0.927051 2.85317 -1.5
      vertex -2.42705 1.76336 -1.5
    endloop
  endfacet
  facet normal 0 -1 0
    outer loop
      vertex -0.927051 -2.85317 -1.5
      vertex 0.927051 -2.85317 1.5
      vertex -0.927051 -2.85317 1.5
    endloop
  endfacet
  facet normal 0 -1 -0
    outer loop
      vertex 0.927051 -2.85317 1.5
      vertex -0.927051 -2.85317 -1.5
      vertex 0.927051 -2.85317 -1.5
    endloop
  endfacet
  facet normal 0.587784 -0.809018 0
    outer loop
      vertex 0.927051 -2.85317 -1.5
      vertex 2.42705 -1.76336 1.5
      vertex 0.927051 -2.85317 1.5
    endloop
  endfacet
  facet normal 0.587784 -0.809018 0
    outer loop
      vertex 2.42705 -1.76336 1.5
      vertex 0.927051 -2.85317 -1.5
      vertex 2.42705 -1.76336 -1.5
    endloop
  endfacet
  facet normal -0.951054 0.309024 0
    outer loop
      vertex -2.42705 1.76336 -1.5
      vertex -2.58283 1.28393 -0.417172
      vertex -2.42705 1.76336 1.5
    endloop
  endfacet
  facet normal -0.951057 0.309017 0
    outer loop
      vertex -3 0 -1.35
      vertex -2.42705 1.76336 -1.5
      vertex -3 0 -1.5
    endloop
  endfacet
  facet normal -0.951057 0.309017 -3.52075e-06
    outer loop
      vertex -2.42705 1.76336 -1.5
      vertex -3 0 -1.35
      vertex -2.58283 1.28393 -0.417172
    endloop
  endfacet
  facet normal -0.951058 0.309013 3.09076e-06
    outer loop
      vertex -2.74217 0.793509 1.09217
      vertex -2.42705 1.76336 1.5
      vertex -2.58283 1.28393 -0.417172
    endloop
  endfacet
  facet normal -0.951055 0.309021 0
    outer loop
      vertex -3 0 1.5
      vertex -2.74217 0.793509 1.09217
      vertex -3 0 1.09217
    endloop
  endfacet
  facet normal -0.951057 0.309017 -8.10311e-06
    outer loop
      vertex -2.74217 0.793509 1.09217
      vertex -3 0 1.5
      vertex -2.42705 1.76336 1.5
    endloop
  endfacet
  facet normal 0 0 -1
    outer loop
      vertex 1.4 0 -1.5
      vertex 3 0 -1.5
      vertex 2.42705 -1.76336 -1.5
    endloop
  endfacet
  facet normal 0 0 -1
    outer loop
      vertex 3 0 -1.5
      vertex 1.4 0 -1.5
      vertex 2.42705 1.76336 -1.5
    endloop
  endfacet
  facet normal 0 0 -1
    outer loop
      vertex 0.432623 -1.33148 -1.5
      vertex 2.42705 -1.76336 -1.5
      vertex 0.927051 -2.85317 -1.5
    endloop
  endfacet
  facet normal 0 0 -1
    outer loop
      vertex 2.42705 -1.76336 -1.5
      vertex 0.432623 -1.33148 -1.5
      vertex 1.4 0 -1.5
    endloop
  endfacet
  facet normal 0 0 -1
    outer loop
      vertex -0.927051 -2.85317 -1.5
      vertex 0.432623 -1.33148 -1.5
      vertex 0.927051 -2.85317 -1.5
    endloop
  endfacet
  facet normal 0 0 -1
    outer loop
      vertex -0.927051 -2.85317 -1.5
      vertex -1.13262 -0.822899 -1.5
      vertex 0.432623 -1.33148 -1.5
    endloop
  endfacet
  facet normal 0 0 -1
    outer loop
      vertex -3 0 -1.5
      vertex -1.13262 -0.822899 -1.5
      vertex -2.42705 -1.76336 -1.5
    endloop
  endfacet
  facet normal 0 0 -1
    outer loop
      vertex -2.42705 -1.76336 -1.5
      vertex -1.13262 -0.822899 -1.5
      vertex -0.927051 -2.85317 -1.5
    endloop
  endfacet
  facet normal 0 0 -1
    outer loop
      vertex 0.432623 1.33148 -1.5
      vertex 2.42705 1.76336 -1.5
      vertex 1.4 0 -1.5
    endloop
  endfacet
  facet normal -0 0 -1
    outer loop
      vertex 2.42705 1.76336 -1.5
      vertex 0.432623 1.33148 -1.5
      vertex 0.927051 2.85317 -1.5
    endloop
  endfacet
  facet normal 0 0 -1
    outer loop
      vertex 0.432623 1.33148 -1.5
      vertex -0.927051 2.85317 -1.5
      vertex 0.927051 2.85317 -1.5
    endloop
  endfacet
  facet normal 0 0 -1
    outer loop
      vertex -1.13262 0.822899 -1.5
      vertex -0.927051 2.85317 -1.5
      vertex 0.432623 1.33148 -1.5
    endloop
  endfacet
  facet normal 0 0 -1
    outer loop
      vertex -1.13262 -0.822899 -1.5
      vertex -3 0 -1.5
      vertex -1.13262 0.822899 -1.5
    endloop
  endfacet
  facet normal 0 0 -1
    outer loop
      vertex -1.13262 0.822899 -1.5
      vertex -2.42705 1.76336 -1.5
      vertex -0.927051 2.85317 -1.5
    endloop
  endfacet
  facet normal -0 0 -1
    outer loop
      vertex -1.13262 0.822899 -1.5
      vertex -3 0 -1.5
      vertex -2.42705 1.76336 -1.5
    endloop
  endfacet
  facet normal 0.309018 0.951056 0
    outer loop
      vertex 0.432623 -1.33148 1.5
      vertex -1.13262 -0.822899 1.00172
      vertex -1.13262 -0.822899 1.5
    endloop
  endfacet
  facet normal 0.309019 0.951056 -1.6405e-06
    outer loop
      vertex 0.432623 -1.33148 1.5
      vertex 0.28627 -1.28393 -0.417172
      vertex -1.13262 -0.822899 1.00172
    endloop
  endfacet
  facet normal 0.309 0.951062 -0
    outer loop
      vertex 0.432623 -1.33148 -1.5
      vertex 0.28627 -1.28393 -0.417172
      vertex 0.432623 -1.33148 1.5
    endloop
  endfacet
  facet normal 0.30902 0.951056 3.02961e-06
    outer loop
      vertex 0.432623 -1.33148 -1.5
      vertex -1.13262 -0.822899 -0.752128
      vertex 0.28627 -1.28393 -0.417172
    endloop
  endfacet
  facet normal 0.309018 0.951056 0
    outer loop
      vertex -1.13262 -0.822899 -0.752128
      vertex 0.432623 -1.33148 -1.5
      vertex -1.13262 -0.822899 -1.5
    endloop
  endfacet
  facet normal 0.309018 -0.951056 0
    outer loop
      vertex -1.13262 0.822899 1.00172
      vertex 0.432623 1.33148 1.5
      vertex -1.13262 0.822899 1.5
    endloop
  endfacet
  facet normal 0.309019 -0.951056 -1.6405e-06
    outer loop
      vertex 0.28627 1.28393 -0.417172
      vertex 0.432623 1.33148 1.5
      vertex -1.13262 0.822899 1.00172
    endloop
  endfacet
  facet normal 0.309018 -0.951056 0
    outer loop
      vertex 0.432623 1.33148 -1.5
      vertex -1.13262 0.822899 -0.752128
      vertex -1.13262 0.822899 -1.5
    endloop
  endfacet
  facet normal 0.309 -0.951062 0
    outer loop
      vertex 0.28627 1.28393 -0.417172
      vertex 0.432623 1.33148 -1.5
      vertex 0.432623 1.33148 1.5
    endloop
  endfacet
  facet normal 0.30902 -0.951056 3.02961e-06
    outer loop
      vertex -1.13262 0.822899 -0.752128
      vertex 0.432623 1.33148 -1.5
      vertex 0.28627 1.28393 -0.417172
    endloop
  endfacet
  facet normal -0.809017 -0.587785 0
    outer loop
      vertex 1.4 0 -1.5
      vertex 0.432623 1.33148 1.5
      vertex 0.432623 1.33148 -1.5
    endloop
  endfacet
  facet normal -0.809017 -0.587785 0
    outer loop
      vertex 0.432623 1.33148 1.5
      vertex 1.4 0 -1.5
      vertex 1.4 0 1.5
    endloop
  endfacet
  facet normal 1 0 0
    outer loop
      vertex -1.13262 0.822899 1.5
      vertex -1.13262 0.793509 1.09217
      vertex -1.13262 0.822899 1.00172
    endloop
  endfacet
  facet normal 1 0 0
    outer loop
      vertex -1.13262 0.822899 1.5
      vertex -1.13262 -0.793509 1.09217
      vertex -1.13262 0.793509 1.09217
    endloop
  endfacet
  facet normal 1 -0 0
    outer loop
      vertex -1.13262 -0.822899 1.5
      vertex -1.13262 -0.793509 1.09217
      vertex -1.13262 0.822899 1.5
    endloop
  endfacet
  facet normal 1 0 0
    outer loop
      vertex -1.13262 -0.793509 1.09217
      vertex -1.13262 -0.822899 1.5
      vertex -1.13262 -0.822899 1.00172
    endloop
  endfacet
  facet normal 1 -0 0
    outer loop
      vertex -1.13262 0 -1.35
      vertex -1.13262 0.822899 -1.5
      vertex -1.13262 0.822899 -0.752128
    endloop
  endfacet
  facet normal 1 0 0
    outer loop
      vertex -1.13262 0 -1.35
      vertex -1.13262 -0.822899 -1.5
      vertex -1.13262 0.822899 -1.5
    endloop
  endfacet
  facet normal 1 0 0
    outer loop
      vertex -1.13262 -0.822899 -1.5
      vertex -1.13262 0 -1.35
      vertex -1.13262 -0.822899 -0.752128
    endloop
  endfacet
  facet normal -0.809017 0.587785 0
    outer loop
      vertex 0.432623 -1.33148 -1.5
      vertex 1.4 0 1.5
      vertex 1.4 0 -1.5
    endloop
  endfacet
  facet normal -0.809017 0.587785 0
    outer loop
      vertex 1.4 0 1.5
      vertex 0.432623 -1.33148 -1.5
      vertex 0.432623 -1.33148 1.5
    endloop
  endfacet
  facet normal 0 -0.587782 0.809019
    outer loop
      vertex -2.58283 1.28393 -0.417172
      vertex -1.13262 0.822899 -0.752128
      vertex 0.28627 1.28393 -0.417172
    endloop
  endfacet
  facet normal -1.7413e-06 -0.587786 0.809017
    outer loop
      vertex -2.58283 1.28393 -0.417172
      vertex -1.13262 0 -1.35
      vertex -1.13262 0.822899 -0.752128
    endloop
  endfacet
  facet normal 0 -0.587785 0.809018
    outer loop
      vertex -1.13262 0 -1.35
      vertex -2.58283 1.28393 -0.417172
      vertex -3 0 -1.35
    endloop
  endfacet
  facet normal 0 -0.951053 -0.309027
    outer loop
      vertex -2.74217 0.793509 1.09217
      vertex -1.13262 0.822899 1.00172
      vertex -1.13262 0.793509 1.09217
    endloop
  endfacet
  facet normal 3.86704e-07 -0.951055 -0.30902
    outer loop
      vertex -2.58283 1.28393 -0.417172
      vertex -1.13262 0.822899 1.00172
      vertex -2.74217 0.793509 1.09217
    endloop
  endfacet
  facet normal 0 -0.951056 -0.30902
    outer loop
      vertex -1.13262 0.822899 1.00172
      vertex -2.58283 1.28393 -0.417172
      vertex 0.28627 1.28393 -0.417172
    endloop
  endfacet
  facet normal 0 0 -1
    outer loop
      vertex -3 0 1.09217
      vertex -1.13262 -0.793509 1.09217
      vertex -2.74217 -0.793509 1.09217
    endloop
  endfacet
  facet normal 0 0 -1
    outer loop
      vertex -1.13262 -0.793509 1.09217
      vertex -3 0 1.09217
      vertex -1.13262 0.793509 1.09217
    endloop
  endfacet
  facet normal -0 0 -1
    outer loop
      vertex -1.13262 0.793509 1.09217
      vertex -3 0 1.09217
      vertex -2.74217 0.793509 1.09217
    endloop
  endfacet
  facet normal 0 0.951053 -0.309027
    outer loop
      vertex -1.13262 -0.822899 1.00172
      vertex -2.74217 -0.793509 1.09217
      vertex -1.13262 -0.793509 1.09217
    endloop
  endfacet
  facet normal 0 0.951056 -0.30902
    outer loop
      vertex -2.58283 -1.28393 -0.417172
      vertex -1.13262 -0.822899 1.00172
      vertex 0.28627 -1.28393 -0.417172
    endloop
  endfacet
  facet normal 3.86704e-07 0.951055 -0.30902
    outer loop
      vertex -1.13262 -0.822899 1.00172
      vertex -2.58283 -1.28393 -0.417172
      vertex -2.74217 -0.793509 1.09217
    endloop
  endfacet
  facet normal -1.7413e-06 0.587786 0.809017
    outer loop
      vertex -1.13262 0 -1.35
      vertex -2.58283 -1.28393 -0.417172
      vertex -1.13262 -0.822899 -0.752128
    endloop
  endfacet
  facet normal 0 0.587785 0.809018
    outer loop
      vertex -2.58283 -1.28393 -0.417172
      vertex -1.13262 0 -1.35
      vertex -3 0 -1.35
    endloop
  endfacet
  facet normal 0 0.587782 0.809019
    outer loop
      vertex 0.28627 -1.28393 -0.417172
      vertex -1.13262 -0.822899 -0.752128
      vertex -2.58283 -1.28393 -0.417172
    endloop
  endfacet
endsolid OpenSCAD_Model
